<svg xmlns="http://www.w3.org/2000/svg" viewBox="0 0 84.56 71.77" xmlns:v="https://vecta.io/nano"><path d="M0 32.83a7.6 7.6 0 0 0 4.71-1.56 7 7 0 0 0 2.4-4 45.42 45.42 0 0 0 .66-8.81l.2-8.23a15.32 15.32 0 0 1 1.24-5 8.84 8.84 0 0 1 2.24-3A8.47 8.47 0 0 1 14.88.4 19.08 19.08 0 0 1 19.5 0h2.07v5.9h-1.16c-2.55 0-4.25.48-5.07 1.41s-1.28 3-1.28 6.24a105.08 105.08 0 0 1-.4 12.36 14.21 14.21 0 0 1-2.32 6.15 13.67 13.67 0 0 1-5.16 3.85 11.56 11.56 0 0 1 6 5.22c1.22 2.35 1.84 6.21 1.84 11.54l.08 8.64a5.26 5.26 0 0 0 1.51 3.55c.82.68 2.41 1 4.76 1h1.16v5.89h-2.1a17.3 17.3 0 0 1-5.3-.59 9.16 9.16 0 0 1-3.94-2.78 9.9 9.9 0 0 1-2-4.88 72.75 72.75 0 0 1-.51-9.66 49.43 49.43 0 0 0-.62-9.27 7.24 7.24 0 0 0-2.38-4.08A7.46 7.46 0 0 0 0 39zm84.56 0a7.6 7.6 0 0 1-4.71-1.56 7 7 0 0 1-2.41-4 46.47 46.47 0 0 1-.65-8.81l-.2-8.23a15.06 15.06 0 0 0-1.25-5 8.82 8.82 0 0 0-2.23-3A8.53 8.53 0 0 0 69.68.4a19.08 19.08 0 0 0-4.62-.4H63v5.9h1.16c2.55 0 4.25.48 5.1 1.41s1.25 3 1.25 6.24a116.54 116.54 0 0 0 .39 12.36 14.33 14.33 0 0 0 2.33 6.15 13.83 13.83 0 0 0 5.16 3.85 11.56 11.56 0 0 0-6 5.22c-1.22 2.35-1.84 6.21-1.84 11.54l-.09 8.64a5.3 5.3 0 0 1-1.5 3.55c-.82.68-2.41 1-4.76 1H63v5.89h2.09a17.22 17.22 0 0 0 5.3-.59 8.93 8.93 0 0 0 3.94-2.78 10 10 0 0 0 2.05-4.88 72.75 72.75 0 0 0 .51-9.66 48.56 48.56 0 0 1 .62-9.27 7.11 7.11 0 0 1 2.41-4.08A7.31 7.31 0 0 1 84.56 39z" fill="#ff4655"/><path d="M21.66,9.78H62.9V59.64H21.66ZM38,39.4a8.24,8.24,0,0,1-1,1.56,4.36,4.36,0,0,1-1,1,4,4,0,0,1-1.28.57,5.17,5.17,0,0,1-1.53.19h-2.8l2.15-7.39h4.88a1,1,0,0,1,1,.45A2.17,2.17,0,0,1,38.72,37a4.71,4.71,0,0,1-.17,1.16A4.38,4.38,0,0,1,38,39.4Zm-3.83-2.15L33.14,40.9h.28a1.26,1.26,0,0,0,.62-.17,3,3,0,0,0,.71-.36,4.14,4.14,0,0,0,.68-.54,1.92,1.92,0,0,0,.46-.63A1.27,1.27,0,0,1,36,39a1.28,1.28,0,0,0,.14-.34c.06-.15.09-.29.14-.43a1,1,0,0,0,.09-.4.83.83,0,0,0-.09-.39.31.31,0,0,0-.31-.17Zm5.73-1.87-2.18,7.39H43.4l.14-.14a2.82,2.82,0,0,0,.28-.34l.34-.42c.12-.14.2-.29.29-.4a.26.26,0,0,0,0-.08,2,2,0,0,0,.09-.2l.08-.17.06-.12H40.45l.26-.85h2.21l1.61-1.9H42l-1.07,1.31.62-2.21H45s.14-.06.28-.2.26-.34.4-.54a7,7,0,0,0,.39-.62,4.13,4.13,0,0,0,.26-.51Zm9.33,5-.51-5h-2l.68,6q0,.16.09.42c0,.17.08.31.11.46a2.5,2.5,0,0,0,.17.39c.06.09.11.14.2.14h1.84c.06,0,.11,0,.2-.11a1.74,1.74,0,0,0,.25-.23,3.28,3.28,0,0,0,.2-.31.69.69,0,0,0,.17-.2l4-6.54h-2.3Z" fill="#fff" fill-rule="evenodd"/><g fill="#ff4655"><path d="M38.21 2.69h12.72v1.04H38.21z"/><circle cx="34.95" cy="3.2" r="1.33"/></g><path d="M34.38 65.54h15.79v5.33H34.38z" fill="#fff"/><path d="M37.9 34l-.74-6c0-.11 0-.25-.08-.42s-.09-.31-.14-.48a1.25 1.25 0 0 0-.15-.37.26.26 0 0 0-.19-.14h-1.88a.4.4 0 0 0-.22.08 1.79 1.79 0 0 1-.23.26c-.08.08-.14.17-.23.25l-.11.23-4 6.43V34v.08h4.73a.63.63 0 0 0 .23-.25c.11-.17.22-.31.37-.51s.19-.34.28-.48l.17-.34.18 1.5zm-4.51-2l1.87-3.14.4 3.28h-2.27zm5.02 2h2.15l.77-2.69h3.15a1.74 1.74 0 0 0 .79-.2 2.21 2.21 0 0 0 .76-.54 2.49 2.49 0 0 0 .57-.85 2.62 2.62 0 0 0 .23-1.07 5.5 5.5 0 0 0-.06-.63 4.87 4.87 0 0 0-.2-.68 1.68 1.68 0 0 0-.37-.54.68.68 0 0 0-.51-.19h-5.13zm3.74-5.5h2.3a.22.22 0 0 1 .08.12c.06.08.12.14.12.2s0 0 0 0h0v.09a.18.18 0 0 1 0 .11c0 .06-.06.09-.09.14l-.08.17-.06.06H42.6l-1.07 1.19zM46 34h2.1l.77-2.69H52a1.74 1.74 0 0 0 .79-.2 2.21 2.21 0 0 0 .76-.54 2.49 2.49 0 0 0 .57-.85 2.62 2.62 0 0 0 .23-1.07 5.5 5.5 0 0 0-.06-.63 3.81 3.81 0 0 0-.2-.68 1.77 1.77 0 0 0-.34-.54.8.8 0 0 0-.54-.19H48.1zm3.74-5.5H52a.41.41 0 0 1 .11.12.68.68 0 0 1 .11.2h0v.09a.25.25 0 0 1-.05.11c0 .06-.06.09-.09.14l-.08.17s0 .06-.06.06h-1.8l-1.07 1.19z" fill="#ff4655"/></svg>