<svg xmlns="http://www.w3.org/2000/svg" viewBox="0 0 84.56 71.74"><defs><style>.cls-1{fill:#1a1a1a;}.cls-2,.cls-3{fill:#ff4655;}.cls-2{fill-rule:evenodd;}</style></defs><g id="Layer_2" data-name="Layer 2"><g id="Layer_1-2" data-name="Layer 1"><path class="cls-1" d="M0,32.83a7.6,7.6,0,0,0,4.71-1.56,7.17,7.17,0,0,0,2.4-4.06,45.42,45.42,0,0,0,.66-8.81c0-4.14.08-6.89.2-8.22a15.13,15.13,0,0,1,1.24-5A8.69,8.69,0,0,1,11.45,2.1,9.29,9.29,0,0,1,14.88.37,19.46,19.46,0,0,1,19.5,0h2.07V5.9H20.41c-2.55,0-4.25.45-5.07,1.39s-1.28,3-1.28,6.26a104.44,104.44,0,0,1-.4,12.33,14.35,14.35,0,0,1-2.32,6.18,13.75,13.75,0,0,1-5.16,3.83,11.43,11.43,0,0,1,6,5.24c1.22,2.35,1.84,6.18,1.84,11.54,0,4.84,0,7.71.08,8.64a5.3,5.3,0,0,0,1.51,3.55c.82.68,2.41,1,4.76,1h1.16v5.89h-2.1a17,17,0,0,1-5.3-.59,8.92,8.92,0,0,1-3.94-2.78,9.87,9.87,0,0,1-2-4.85,73.09,73.09,0,0,1-.51-9.66,50.05,50.05,0,0,0-.62-9.3,7.25,7.25,0,0,0-2.38-4.05A7.53,7.53,0,0,0,0,38.92Z"/><path class="cls-1" d="M84.56,32.83a7.6,7.6,0,0,1-4.71-1.56,7.19,7.19,0,0,1-2.41-4.06,46.47,46.47,0,0,1-.65-8.81c0-4.14-.06-6.89-.2-8.22a14.87,14.87,0,0,0-1.25-5A8.67,8.67,0,0,0,73.11,2.1,9.37,9.37,0,0,0,69.68.37,19.46,19.46,0,0,0,65.06,0H63V5.9h1.16c2.55,0,4.25.45,5.1,1.39s1.25,3,1.25,6.26a115.82,115.82,0,0,0,.39,12.33,14.48,14.48,0,0,0,2.33,6.18,13.91,13.91,0,0,0,5.16,3.83,11.43,11.43,0,0,0-6,5.24c-1.22,2.35-1.84,6.18-1.84,11.54,0,4.84,0,7.71-.09,8.64a5.35,5.35,0,0,1-1.5,3.55c-.82.68-2.41,1-4.76,1H63v5.89h2.09a16.91,16.91,0,0,0,5.3-.59,8.7,8.7,0,0,0,3.94-2.78,10,10,0,0,0,2.05-4.85,73.09,73.09,0,0,0,.51-9.66,49.17,49.17,0,0,1,.62-9.3,7.13,7.13,0,0,1,2.41-4.05,7.38,7.38,0,0,1,4.65-1.59Z"/><path class="cls-2" d="M21.66,9.75H62.9V59.61H21.66ZM38,39.4a9,9,0,0,1-1,1.53,4.36,4.36,0,0,1-1,1,4.58,4.58,0,0,1-1.28.6,6.4,6.4,0,0,1-1.53.19h-2.8l2.15-7.42h4.88a1.06,1.06,0,0,1,1,.48A2,2,0,0,1,38.72,37,5,5,0,0,1,38,39.4Zm-3.83-2.15-1.07,3.63h.28a1.65,1.65,0,0,0,.62-.15,3.06,3.06,0,0,0,.71-.39,3,3,0,0,0,.68-.54,2.19,2.19,0,0,0,.46-.6A.79.79,0,0,1,36,39a1.09,1.09,0,0,0,.14-.31c.06-.17.09-.32.14-.46a.91.91,0,0,0,.09-.37.87.87,0,0,0-.09-.42.34.34,0,0,0-.31-.14Zm5.73-1.9-2.18,7.42H43.4l.14-.14c.09-.11.17-.22.28-.34a4.07,4.07,0,0,0,.34-.45c.12-.14.2-.26.29-.37s0-.06,0-.11l.09-.17a1.67,1.67,0,0,0,.08-.2c0-.06.06-.09.06-.11H40.45l.26-.85h2.21l1.61-1.88H42l-1.07,1.28.62-2.18H45s.14-.09.28-.23.26-.34.4-.54a4.33,4.33,0,0,0,.39-.62,4.13,4.13,0,0,0,.26-.51Zm9.33,5-.51-5h-2l.68,6c0,.11.06.25.09.39s.08.34.11.49.11.25.17.36.11.17.2.17h1.84c.06,0,.11-.05.2-.11l.25-.25c.06-.12.15-.2.2-.29a.87.87,0,0,0,.17-.22l4-6.55h-2.3Z"/><rect class="cls-1" x="38.21" y="2.66" width="12.72" height="1.04"/><circle class="cls-1" cx="34.95" cy="3.17" r="1.33"/><rect class="cls-3" x="34.38" y="65.51" width="15.79" height="5.33"/><path class="cls-1" d="M37.9,34l-.74-6c0-.11,0-.25-.08-.42s-.09-.31-.14-.45a1,1,0,0,0-.15-.37.25.25,0,0,0-.19-.17H34.72a.35.35,0,0,0-.22.11l-.23.23c-.08.08-.14.2-.23.28s-.08.17-.11.23l-4,6.4v.06a.23.23,0,0,1,0,.09h4.73a.77.77,0,0,0,.23-.26c.11-.14.22-.31.37-.48l.28-.51a2.78,2.78,0,0,1,.17-.31L35.89,34Zm-4.51-2,1.87-3.14.4,3.28H33.39Z"/><path id="_1" data-name="1" class="cls-1" d="M38.41,34h2.15l.77-2.67h3.15a2,2,0,0,0,.79-.2,2.42,2.42,0,0,0,.76-.56,2.72,2.72,0,0,0,.57-.83,2.82,2.82,0,0,0,.23-1.07,6,6,0,0,0-.06-.66,6.45,6.45,0,0,0-.2-.68,1.67,1.67,0,0,0-.37-.51.7.7,0,0,0-.51-.22H40.56Zm3.74-5.5h2.3a.49.49,0,0,1,.08.11c.06.08.12.14.12.2s0,0,0,0v0l0,.08a.18.18,0,0,1,0,.11l-.09.17-.08.15-.06.05H42.6l-1.07,1.19Z"/><path id="_2" data-name="2" class="cls-1" d="M46,34H48.1l.77-2.67H52a2,2,0,0,0,.79-.2,2.42,2.42,0,0,0,.76-.56,2.72,2.72,0,0,0,.57-.83,2.82,2.82,0,0,0,.23-1.07,6,6,0,0,0-.06-.66,4.71,4.71,0,0,0-.2-.68,1.75,1.75,0,0,0-.34-.51.83.83,0,0,0-.54-.22H48.1Zm3.74-5.5H52l.11.11a.68.68,0,0,1,.11.2v0s0,0,0,0l0,.08a.25.25,0,0,1-.05.11l-.09.17L52,29.4s0,.05-.06.05H50.14l-1.07,1.19Z"/></g></g></svg>