<svg xmlns="http://www.w3.org/2000/svg" viewBox="0 0 84.56 71.77"><defs><style>.cls-1{fill:#fff;}.cls-2,.cls-3{fill:#1a1a1a;}.cls-2{fill-rule:evenodd;}</style></defs><g id="Layer_2" data-name="Layer 2"><g id="Layer_1-2" data-name="Layer 1"><path class="cls-1" d="M0,32.83a7.6,7.6,0,0,0,4.71-1.56,7.08,7.08,0,0,0,2.4-4.06,45,45,0,0,0,.66-8.78c0-4.17.08-6.92.2-8.23a15.32,15.32,0,0,1,1.24-5A8.69,8.69,0,0,1,11.45,2.1,9.29,9.29,0,0,1,14.88.37,21.23,21.23,0,0,1,19.5,0h2.07V5.9H20.41c-2.55,0-4.25.48-5.07,1.39s-1.28,3-1.28,6.26a105.08,105.08,0,0,1-.4,12.36,14.21,14.21,0,0,1-2.32,6.15,13.44,13.44,0,0,1-5.16,3.83,11.55,11.55,0,0,1,6,5.24c1.22,2.35,1.84,6.21,1.84,11.54,0,4.84,0,7.74.08,8.64a5.3,5.3,0,0,0,1.51,3.55c.82.68,2.41,1,4.76,1h1.16v5.89h-2.1a16.8,16.8,0,0,1-5.3-.62,8.69,8.69,0,0,1-3.94-2.78,9.87,9.87,0,0,1-2-4.85,72.75,72.75,0,0,1-.51-9.66,49.43,49.43,0,0,0-.62-9.27,7.24,7.24,0,0,0-2.38-4.08A7.46,7.46,0,0,0,0,39Z"/><path class="cls-1" d="M84.56,32.83a7.6,7.6,0,0,1-4.71-1.56,7.09,7.09,0,0,1-2.41-4.06,46.1,46.1,0,0,1-.65-8.78c0-4.17-.06-6.92-.2-8.23a15.06,15.06,0,0,0-1.25-5A8.67,8.67,0,0,0,73.11,2.1,9.37,9.37,0,0,0,69.68.37,21.23,21.23,0,0,0,65.06,0H63V5.9h1.16c2.55,0,4.25.48,5.1,1.39s1.25,3,1.25,6.26a116.54,116.54,0,0,0,.39,12.36,14.33,14.33,0,0,0,2.33,6.15,13.6,13.6,0,0,0,5.16,3.83,11.55,11.55,0,0,0-6,5.24c-1.22,2.35-1.84,6.21-1.84,11.54,0,4.84,0,7.74-.09,8.64a5.35,5.35,0,0,1-1.5,3.55c-.82.68-2.41,1-4.76,1H63v5.89h2.09a16.72,16.72,0,0,0,5.3-.62,8.48,8.48,0,0,0,3.94-2.78,10,10,0,0,0,2.05-4.85,72.75,72.75,0,0,0,.51-9.66,48.56,48.56,0,0,1,.62-9.27,7.11,7.11,0,0,1,2.41-4.08A7.31,7.31,0,0,1,84.56,39Z"/><path class="cls-2" d="M21.66,9.78H62.9V59.64H21.66ZM38,39.4a9.32,9.32,0,0,1-1,1.56,3.76,3.76,0,0,1-1,1,3.51,3.51,0,0,1-1.28.6,5.17,5.17,0,0,1-1.53.19h-2.8l2.15-7.39h4.88a1,1,0,0,1,1,.45A2.13,2.13,0,0,1,38.72,37,5,5,0,0,1,38,39.4Zm-3.83-2.15-1.07,3.63h.28a1.23,1.23,0,0,0,.62-.15,3,3,0,0,0,.71-.36,4.14,4.14,0,0,0,.68-.54,2.29,2.29,0,0,0,.46-.63c0-.05.08-.14.14-.25a1.09,1.09,0,0,0,.14-.31c.06-.15.09-.29.14-.43a1,1,0,0,0,.09-.4.75.75,0,0,0-.09-.39.31.31,0,0,0-.31-.17Zm5.73-1.87-2.18,7.39H43.4l.14-.14a2.82,2.82,0,0,0,.28-.34l.34-.42c.12-.14.2-.29.29-.4a.26.26,0,0,0,0-.08c0-.06.06-.15.09-.2l.08-.17c0-.09.06-.12.06-.14H40.45l.26-.83h2.21l1.61-1.9H42l-1.07,1.31.62-2.21H45s.14-.06.28-.23.26-.31.4-.51.28-.42.39-.62l.26-.51Zm9.33,5-.51-5h-2l.68,6q0,.16.09.42c0,.14.08.31.11.46a2,2,0,0,0,.17.36c.06.12.11.17.2.17h1.84c.06,0,.11,0,.2-.11a1.18,1.18,0,0,0,.25-.25c.06-.09.15-.2.2-.29a.87.87,0,0,0,.17-.22l4-6.52h-2.3Z"/><rect class="cls-1" x="38.21" y="2.66" width="12.72" height="1.04"/><circle class="cls-1" cx="34.95" cy="3.2" r="1.33"/><rect class="cls-3" x="34.38" y="65.51" width="15.79" height="5.33"/><path class="cls-1" d="M37.9,34l-.74-6c0-.11,0-.25-.08-.39s-.09-.34-.14-.48a1.25,1.25,0,0,0-.15-.37.25.25,0,0,0-.19-.17H34.72a.5.5,0,0,0-.22.11c-.06.09-.14.14-.23.26s-.14.17-.23.25-.08.17-.11.23l-4,6.43v0a.38.38,0,0,1,0,.11h4.73c.06,0,.14-.11.23-.28s.22-.31.37-.48.19-.34.28-.51l.17-.31L35.89,34Zm-4.51-2,1.87-3.14.4,3.28H33.39Z"/><path id="_1" data-name="1" class="cls-1" d="M38.41,34h2.15l.77-2.69h3.15a1.74,1.74,0,0,0,.79-.2,2.21,2.21,0,0,0,.76-.54,3.09,3.09,0,0,0,.57-.85,2.74,2.74,0,0,0,.23-1.07,4.94,4.94,0,0,0-.06-.63,3.91,3.91,0,0,0-.2-.68,1.49,1.49,0,0,0-.37-.54.7.7,0,0,0-.51-.22H40.56Zm3.74-5.5h2.3a.22.22,0,0,1,.08.12.38.38,0,0,1,.12.17l0,0v.05l0,.06s0,.09,0,.11l-.09.17a.68.68,0,0,1-.08.15.45.45,0,0,1-.06.08H42.6l-1.07,1.16Z"/><path id="_2" data-name="2" class="cls-1" d="M46,34H48.1l.77-2.69H52a1.74,1.74,0,0,0,.79-.2,2.21,2.21,0,0,0,.76-.54,3.09,3.09,0,0,0,.57-.85,2.74,2.74,0,0,0,.23-1.07,4.94,4.94,0,0,0-.06-.63,3.2,3.2,0,0,0-.2-.68,1.56,1.56,0,0,0-.34-.54.83.83,0,0,0-.54-.22H48.1Zm3.74-5.5H52a.41.41,0,0,1,.11.12.59.59,0,0,1,.11.17v0s0,0,0,.05l0,.06a.16.16,0,0,1-.05.11l-.09.17a.68.68,0,0,1-.08.15c0,.05,0,.08-.06.08H50.14l-1.07,1.16Z"/></g></g></svg>