<svg id="Layer_1" data-name="Layer 1" xmlns="http://www.w3.org/2000/svg" xmlns:xlink="http://www.w3.org/1999/xlink" viewBox="0 0 1920 1080"><defs><style>.cls-1,.cls-38,.cls-39,.cls-40,.cls-5,.cls-6{fill:none;}.cls-2{fill:#1a1a1a;}.cls-3{opacity:0.6;}.cls-4{clip-path:url(#clip-path);}.cls-5{stroke:#ece8e1;stroke-width:0.3px;}.cls-38,.cls-39,.cls-40,.cls-5,.cls-6{stroke-miterlimit:10;}.cls-24,.cls-6{font-size:55.01px;}.cls-38,.cls-39,.cls-40,.cls-6{stroke:#ff4655;}.cls-24,.cls-40,.cls-6{font-family:HansonBold, Hanson;}.cls-7{letter-spacing:-0.18em;}.cls-8{letter-spacing:-0.11em;}.cls-9{letter-spacing:0.02em;}.cls-10{letter-spacing:-0.14em;}.cls-11{letter-spacing:-0.02em;}.cls-12{letter-spacing:0.02em;}.cls-13{letter-spacing:-0.02em;}.cls-14{letter-spacing:-0.01em;}.cls-15{letter-spacing:-0.07em;}.cls-16{letter-spacing:-0.01em;}.cls-17{letter-spacing:-0.01em;}.cls-18{letter-spacing:-0.01em;}.cls-19{letter-spacing:0.01em;}.cls-20{letter-spacing:-0.01em;}.cls-21{letter-spacing:-0.03em;}.cls-22{letter-spacing:-0.11em;}.cls-23{letter-spacing:-0.05em;}.cls-24{fill:#fff;}.cls-25{font-size:14.92px;font-family:Rubik-Medium, Rubik;font-weight:500;}.cls-25,.cls-29{fill:#ece8e1;}.cls-26{letter-spacing:-0.01em;}.cls-27{letter-spacing:-0.02em;}.cls-28{letter-spacing:-0.01em;}.cls-29{font-size:58.38px;font-family:Airstrike;}.cls-30{letter-spacing:-0.1em;}.cls-31{fill:url(#linear-gradient);}.cls-32{fill:url(#linear-gradient-2);}.cls-33{fill:url(#linear-gradient-3);}.cls-34{fill:url(#linear-gradient-4);}.cls-35{fill:url(#linear-gradient-5);}.cls-36{fill:url(#linear-gradient-6);}.cls-37{clip-path:url(#clip-path-2);}.cls-39{fill-rule:evenodd;}.cls-40{font-size:35.8px;}.cls-41{letter-spacing:-0.02em;}.cls-42{letter-spacing:-0.12em;}</style><clipPath id="clip-path"><rect class="cls-1" y="0.15" width="1920" height="1079.85"/></clipPath><linearGradient id="linear-gradient" x1="1007.7" y1="65.75" x2="1054.31" y2="210.7" gradientUnits="userSpaceOnUse"><stop offset="0.15" stop-color="#732733"/><stop offset="0.18" stop-color="#892c38"/><stop offset="0.23" stop-color="#a83340"/><stop offset="0.28" stop-color="#c43947"/><stop offset="0.34" stop-color="#da3e4c"/><stop offset="0.41" stop-color="#eb4150"/><stop offset="0.49" stop-color="#f64453"/><stop offset="0.61" stop-color="#fd4655"/><stop offset="0.94" stop-color="#ff4655"/></linearGradient><linearGradient id="linear-gradient-2" x1="957.04" y1="56.05" x2="1026.32" y2="200.68" xlink:href="#linear-gradient"/><linearGradient id="linear-gradient-3" x1="902.05" y1="55.14" x2="949.3" y2="170.08" xlink:href="#linear-gradient"/><linearGradient id="linear-gradient-4" x1="895.05" y1="47.86" x2="918.68" y2="232.92" gradientUnits="userSpaceOnUse"><stop offset="0.06" stop-color="#ff4655"/><stop offset="0.6" stop-color="#ff6b86"/><stop offset="0.91" stop-color="#ff7c9d"/></linearGradient><linearGradient id="linear-gradient-5" x1="948.41" y1="41.05" x2="972.04" y2="226.11" gradientUnits="userSpaceOnUse"><stop offset="0.04" stop-color="#ff4655"/><stop offset="0.63" stop-color="#ff6b86"/><stop offset="0.96" stop-color="#ff7c9d"/></linearGradient><linearGradient id="linear-gradient-6" x1="998.01" y1="34.71" x2="1021.64" y2="219.78" gradientUnits="userSpaceOnUse"><stop offset="0.19" stop-color="#ff4655"/><stop offset="0.66" stop-color="#ff6b86"/><stop offset="0.93" stop-color="#ff7c9d"/></linearGradient><clipPath id="clip-path-2"><polyline class="cls-1" points="0 1080 0 0 1920 0 1920 1080"/></clipPath></defs><rect class="cls-2" width="1920" height="1080"/><g class="cls-3"><g class="cls-4"><line class="cls-5" x1="1829.17" y1="28.8" x2="2158.19" y2="84.31"/><line class="cls-5" x1="1829.17" y1="28.8" x2="1633" y2="-4.3"/><line class="cls-5" x1="1760.84" y1="992.63" x2="1890.62" y2="910.65"/><line class="cls-5" x1="1617.61" y1="1083.11" x2="1760.84" y2="992.63"/><line class="cls-5" x1="1890.62" y1="910.65" x2="2008.76" y2="836.02"/><line class="cls-5" x1="-45.73" y1="992.63" x2="97.49" y2="1083.11"/><line class="cls-5" x1="82.11" y1="-4.3" x2="-114.06" y2="28.8"/><line class="cls-5" x1="1399.52" y1="992.63" x2="1546.26" y2="910.65"/><line class="cls-5" x1="1546.26" y1="910.65" x2="1679.84" y2="836.02"/><line class="cls-5" x1="1679.84" y1="836.02" x2="1801.96" y2="767.79"/><line class="cls-5" x1="1237.58" y1="1083.11" x2="1399.52" y2="992.63"/><line class="cls-5" x1="1801.96" y1="767.79" x2="1914.03" y2="705.18"/><line class="cls-5" x1="1914.03" y1="705.18" x2="2017.24" y2="647.51"/><line class="cls-5" x1="1350.93" y1="836.02" x2="1487.16" y2="767.79"/><line class="cls-5" x1="1833.71" y1="594.23" x2="1932.3" y2="544.85"/><line class="cls-5" x1="1612.18" y1="705.18" x2="1727.32" y2="647.51"/><line class="cls-5" x1="1201.91" y1="910.65" x2="1350.93" y2="836.02"/><line class="cls-5" x1="1727.32" y1="647.51" x2="1833.71" y2="594.23"/><line class="cls-5" x1="857.55" y1="1083.11" x2="1038.21" y2="992.63"/><line class="cls-5" x1="1038.21" y1="992.63" x2="1201.91" y2="910.65"/><line class="cls-5" x1="1487.16" y1="767.79" x2="1612.18" y2="705.18"/><line class="cls-5" x1="1310.33" y1="705.18" x2="1437.4" y2="647.51"/><line class="cls-5" x1="1172.36" y1="767.79" x2="1310.33" y2="705.18"/><line class="cls-5" x1="1764.73" y1="498.96" x2="1858.95" y2="456.21"/><line class="cls-5" x1="857.55" y1="910.65" x2="1022.01" y2="836.02"/><line class="cls-5" x1="1663.61" y1="544.85" x2="1764.73" y2="498.96"/><line class="cls-5" x1="676.9" y1="992.63" x2="857.55" y2="910.65"/><line class="cls-5" x1="477.52" y1="1083.11" x2="676.9" y2="992.63"/><line class="cls-5" x1="1858.95" y1="456.21" x2="1946.95" y2="416.27"/><line class="cls-5" x1="1022.01" y1="836.02" x2="1172.36" y2="767.79"/><line class="cls-5" x1="1437.4" y1="647.51" x2="1554.8" y2="594.23"/><line class="cls-5" x1="1554.8" y1="594.23" x2="1663.61" y2="544.85"/><line class="cls-5" x1="693.1" y1="836.02" x2="857.55" y2="767.79"/><line class="cls-5" x1="97.49" y1="1083.11" x2="315.58" y2="992.63"/><line class="cls-5" x1="1794.97" y1="378.89" x2="1879.51" y2="343.82"/><line class="cls-5" x1="1879.51" y1="343.82" x2="1958.96" y2="310.85"/><line class="cls-5" x1="857.55" y1="767.79" x2="1008.48" y2="705.18"/><line class="cls-5" x1="1704.86" y1="416.27" x2="1794.97" y2="378.89"/><line class="cls-5" x1="315.58" y1="992.63" x2="513.2" y2="910.65"/><line class="cls-5" x1="513.2" y1="910.65" x2="693.1" y2="836.02"/><line class="cls-5" x1="1008.48" y1="705.18" x2="1147.48" y2="647.51"/><line class="cls-5" x1="1275.9" y1="594.23" x2="1394.93" y2="544.85"/><line class="cls-5" x1="1147.48" y1="647.51" x2="1275.9" y2="594.23"/><line class="cls-5" x1="1608.6" y1="456.21" x2="1704.86" y2="416.27"/><line class="cls-5" x1="1505.54" y1="498.96" x2="1608.6" y2="456.21"/><line class="cls-5" x1="1394.93" y1="544.85" x2="1505.54" y2="498.96"/><line class="cls-5" x1="542.75" y1="767.79" x2="706.63" y2="705.18"/><line class="cls-5" x1="1896.57" y1="250.53" x2="1968.99" y2="222.86"/><line class="cls-5" x1="997" y1="594.23" x2="1126.24" y2="544.85"/><line class="cls-5" x1="1358.25" y1="456.21" x2="1462.77" y2="416.27"/><line class="cls-5" x1="706.63" y1="705.18" x2="857.55" y2="647.51"/><line class="cls-5" x1="1126.24" y1="544.85" x2="1246.34" y2="498.96"/><line class="cls-5" x1="1246.34" y1="498.96" x2="1358.25" y2="456.21"/><line class="cls-5" x1="857.55" y1="647.51" x2="997" y2="594.23"/><line class="cls-5" x1="168.84" y1="910.65" x2="364.18" y2="836.02"/><line class="cls-5" x1="364.18" y1="836.02" x2="542.75" y2="767.79"/><line class="cls-5" x1="-45.73" y1="992.63" x2="168.84" y2="910.65"/><line class="cls-5" x1="1896.57" y1="250.53" x2="1819.93" y2="279.81"/><line class="cls-5" x1="1738.68" y1="310.85" x2="1819.93" y2="279.81"/><line class="cls-5" x1="1652.4" y1="343.82" x2="1738.68" y2="310.85"/><line class="cls-5" x1="1560.62" y1="378.89" x2="1652.4" y2="343.82"/><line class="cls-5" x1="1462.77" y1="416.27" x2="1560.62" y2="378.89"/><line class="cls-5" x1="1425.3" y1="343.82" x2="1518.4" y2="310.85"/><line class="cls-5" x1="1220.69" y1="416.27" x2="1326.26" y2="378.89"/><line class="cls-5" x1="1688.76" y1="250.53" x2="1606.06" y2="279.81"/><line class="cls-5" x1="1326.26" y1="378.89" x2="1425.3" y2="343.82"/><line class="cls-5" x1="1518.4" y1="310.85" x2="1606.06" y2="279.81"/><line class="cls-5" x1="227.95" y1="767.79" x2="404.78" y2="705.18"/><line class="cls-5" x1="567.63" y1="647.51" x2="718.1" y2="594.23"/><line class="cls-5" x1="1688.76" y1="250.53" x2="1766.91" y2="222.86"/><line class="cls-5" x1="1840.86" y1="196.67" x2="1766.91" y2="222.86"/><line class="cls-5" x1="1977.48" y1="148.3" x2="1910.96" y2="171.85"/><line class="cls-5" x1="35.26" y1="836.02" x2="227.95" y2="767.79"/><line class="cls-5" x1="-175.51" y1="910.65" x2="35.26" y2="836.02"/><line class="cls-5" x1="987.15" y1="498.96" x2="1107.9" y2="456.21"/><line class="cls-5" x1="857.55" y1="544.85" x2="987.15" y2="498.96"/><line class="cls-5" x1="1910.96" y1="171.85" x2="1840.86" y2="196.67"/><line class="cls-5" x1="718.1" y1="594.23" x2="857.55" y2="544.85"/><line class="cls-5" x1="1107.9" y1="456.21" x2="1220.69" y2="416.27"/><line class="cls-5" x1="404.78" y1="705.18" x2="567.63" y2="647.51"/><line class="cls-5" x1="-86.85" y1="767.79" x2="102.93" y2="705.18"/><line class="cls-5" x1="102.93" y1="705.18" x2="277.71" y2="647.51"/><line class="cls-5" x1="1480.96" y1="250.53" x2="1564.83" y2="222.86"/><line class="cls-5" x1="588.87" y1="544.85" x2="727.96" y2="498.96"/><line class="cls-5" x1="1923.26" y1="104.61" x2="1858.69" y2="125.91"/><line class="cls-5" x1="1858.69" y1="125.91" x2="1790.83" y2="148.3"/><line class="cls-5" x1="1644.2" y1="196.67" x2="1564.83" y2="222.86"/><line class="cls-5" x1="1091.91" y1="378.89" x2="1198.2" y2="343.82"/><line class="cls-5" x1="1198.2" y1="343.82" x2="1298.12" y2="310.85"/><line class="cls-5" x1="1298.12" y1="310.85" x2="1392.2" y2="279.81"/><line class="cls-5" x1="857.55" y1="456.21" x2="978.6" y2="416.27"/><line class="cls-5" x1="978.6" y1="416.27" x2="1091.91" y2="378.89"/><line class="cls-5" x1="439.2" y1="594.23" x2="588.87" y2="544.85"/><line class="cls-5" x1="1719.43" y1="171.85" x2="1644.2" y2="196.67"/><line class="cls-5" x1="1480.96" y1="250.53" x2="1392.2" y2="279.81"/><line class="cls-5" x1="727.96" y1="498.96" x2="857.55" y2="456.21"/><line class="cls-5" x1="1790.83" y1="148.3" x2="1719.43" y2="171.85"/><line class="cls-5" x1="277.71" y1="647.51" x2="439.2" y2="594.23"/><line class="cls-5" x1="160.3" y1="594.23" x2="320.18" y2="544.85"/><line class="cls-5" x1="736.51" y1="416.27" x2="857.55" y2="378.89"/><line class="cls-5" x1="320.18" y1="544.85" x2="468.76" y2="498.96"/><line class="cls-5" x1="607.2" y1="456.21" x2="736.51" y2="416.27"/><line class="cls-5" x1="1273.16" y1="250.53" x2="1362.75" y2="222.86"/><line class="cls-5" x1="468.76" y1="498.96" x2="607.2" y2="456.21"/><line class="cls-5" x1="-12.21" y1="647.51" x2="160.3" y2="594.23"/><line class="cls-5" x1="1077.84" y1="310.85" x2="1178.34" y2="279.81"/><line class="cls-5" x1="1604.17" y1="148.3" x2="1527.9" y2="171.85"/><line class="cls-5" x1="971.1" y1="343.82" x2="1077.84" y2="310.85"/><line class="cls-5" x1="857.55" y1="378.89" x2="971.1" y2="343.82"/><line class="cls-5" x1="1811.36" y1="84.31" x2="1745.64" y2="104.61"/><line class="cls-5" x1="1745.64" y1="104.61" x2="1676.66" y2="125.91"/><line class="cls-5" x1="1933.89" y1="46.47" x2="1874.04" y2="64.95"/><line class="cls-5" x1="1273.16" y1="250.53" x2="1178.34" y2="279.81"/><line class="cls-5" x1="1676.66" y1="125.91" x2="1604.17" y2="148.3"/><line class="cls-5" x1="1447.54" y1="196.67" x2="1362.75" y2="222.86"/><line class="cls-5" x1="1527.9" y1="171.85" x2="1447.54" y2="196.67"/><line class="cls-5" x1="1874.04" y1="64.95" x2="1811.36" y2="84.31"/><line class="cls-5" x1="1637.94" y1="84.31" x2="1568.02" y2="104.61"/><line class="cls-5" x1="1494.64" y1="125.91" x2="1417.52" y2="148.3"/><line class="cls-5" x1="1829.17" y1="28.8" x2="1768.3" y2="46.47"/><line class="cls-5" x1="857.55" y1="310.85" x2="964.48" y2="279.81"/><line class="cls-5" x1="1065.36" y1="250.53" x2="964.48" y2="279.81"/><line class="cls-5" x1="1768.3" y1="46.47" x2="1704.62" y2="64.95"/><line class="cls-5" x1="1704.62" y1="64.95" x2="1637.94" y2="84.31"/><line class="cls-5" x1="209.57" y1="498.96" x2="356.85" y2="456.21"/><line class="cls-5" x1="623.2" y1="378.89" x2="744" y2="343.82"/><line class="cls-5" x1="1250.88" y1="196.67" x2="1160.67" y2="222.86"/><line class="cls-5" x1="1065.36" y1="250.53" x2="1160.67" y2="222.86"/><line class="cls-5" x1="-118.6" y1="594.23" x2="51.49" y2="544.85"/><line class="cls-5" x1="744" y1="343.82" x2="857.55" y2="310.85"/><line class="cls-5" x1="356.85" y1="456.21" x2="494.42" y2="416.27"/><line class="cls-5" x1="1568.02" y1="104.61" x2="1494.64" y2="125.91"/><line class="cls-5" x1="51.49" y1="544.85" x2="209.57" y2="498.96"/><line class="cls-5" x1="1336.37" y1="171.85" x2="1250.88" y2="196.67"/><line class="cls-5" x1="1417.52" y1="148.3" x2="1336.37" y2="171.85"/><line class="cls-5" x1="494.42" y1="416.27" x2="623.2" y2="378.89"/><line class="cls-5" x1="1054.22" y1="196.67" x2="958.59" y2="222.86"/><line class="cls-5" x1="857.55" y1="250.53" x2="958.59" y2="222.86"/><line class="cls-5" x1="252.33" y1="416.27" x2="388.84" y2="378.89"/><line class="cls-5" x1="106.51" y1="456.21" x2="252.33" y2="416.27"/><line class="cls-5" x1="1535.21" y1="64.95" x2="1464.52" y2="84.31"/><line class="cls-5" x1="1144.85" y1="171.85" x2="1054.22" y2="196.67"/><line class="cls-5" x1="1312.61" y1="125.91" x2="1230.86" y2="148.3"/><line class="cls-5" x1="-49.62" y1="498.96" x2="106.51" y2="456.21"/><line class="cls-5" x1="1464.52" y1="84.31" x2="1390.4" y2="104.61"/><line class="cls-5" x1="1602.71" y1="46.47" x2="1535.21" y2="64.95"/><line class="cls-5" x1="1390.4" y1="104.61" x2="1312.61" y2="125.91"/><line class="cls-5" x1="1667.23" y1="28.8" x2="1602.71" y2="46.47"/><line class="cls-5" x1="637.27" y1="310.85" x2="750.62" y2="279.81"/><line class="cls-5" x1="388.84" y1="378.89" x2="516.9" y2="343.82"/><line class="cls-5" x1="516.9" y1="343.82" x2="637.27" y2="310.85"/><line class="cls-5" x1="857.55" y1="250.53" x2="750.62" y2="279.81"/><line class="cls-5" x1="1230.86" y1="148.3" x2="1144.85" y2="171.85"/><line class="cls-5" x1="1728.96" y1="11.89" x2="1667.23" y2="28.8"/><line class="cls-5" x1="416.99" y1="310.85" x2="536.76" y2="279.81"/><line class="cls-5" x1="-143.84" y1="456.21" x2="10.25" y2="416.27"/><line class="cls-5" x1="756.51" y1="222.86" x2="649.75" y2="250.53"/><line class="cls-5" x1="1291.1" y1="84.31" x2="1212.79" y2="104.61"/><line class="cls-5" x1="1570.53" y1="11.89" x2="1505.29" y2="28.8"/><line class="cls-5" x1="1130.59" y1="125.91" x2="1044.21" y2="148.3"/><line class="cls-5" x1="649.75" y1="250.53" x2="536.76" y2="279.81"/><line class="cls-5" x1="154.49" y1="378.89" x2="289.8" y2="343.82"/><line class="cls-5" x1="1437.12" y1="46.47" x2="1365.8" y2="64.95"/><line class="cls-5" x1="1633" y1="-4.3" x2="1570.53" y2="11.89"/><line class="cls-5" x1="1212.79" y1="104.61" x2="1130.59" y2="125.91"/><line class="cls-5" x1="10.25" y1="416.27" x2="154.49" y2="378.89"/><line class="cls-5" x1="1505.29" y1="28.8" x2="1437.12" y2="46.47"/><line class="cls-5" x1="857.55" y1="196.67" x2="756.51" y2="222.86"/><line class="cls-5" x1="1365.8" y1="64.95" x2="1291.1" y2="84.31"/><line class="cls-5" x1="1044.21" y1="148.3" x2="953.32" y2="171.85"/><line class="cls-5" x1="289.8" y1="343.82" x2="416.99" y2="310.85"/><line class="cls-5" x1="953.32" y1="171.85" x2="857.55" y2="196.67"/><line class="cls-5" x1="1035.17" y1="104.61" x2="948.57" y2="125.91"/><line class="cls-5" x1="1412.09" y1="11.89" x2="1343.36" y2="28.8"/><line class="cls-5" x1="1196.38" y1="64.95" x2="1117.68" y2="84.31"/><line class="cls-5" x1="1477.91" y1="-4.3" x2="1412.09" y2="11.89"/><line class="cls-5" x1="1271.53" y1="46.47" x2="1196.38" y2="64.95"/><line class="cls-5" x1="441.95" y1="250.53" x2="322.9" y2="279.81"/><line class="cls-5" x1="-79.87" y1="378.89" x2="62.7" y2="343.82"/><line class="cls-5" x1="1117.68" y1="84.31" x2="1035.17" y2="104.61"/><line class="cls-5" x1="196.71" y1="310.85" x2="322.9" y2="279.81"/><line class="cls-5" x1="62.7" y1="343.82" x2="196.71" y2="310.85"/><line class="cls-5" x1="554.43" y1="222.86" x2="441.95" y2="250.53"/><line class="cls-5" x1="1343.36" y1="28.8" x2="1271.53" y2="46.47"/><line class="cls-5" x1="948.57" y1="125.91" x2="857.55" y2="148.3"/><line class="cls-5" x1="660.89" y1="196.67" x2="554.43" y2="222.86"/><line class="cls-5" x1="761.79" y1="171.85" x2="660.89" y2="196.67"/><line class="cls-5" x1="857.55" y1="148.3" x2="761.79" y2="171.85"/><line class="cls-5" x1="1253.65" y1="11.89" x2="1181.42" y2="28.8"/><line class="cls-5" x1="464.23" y1="196.67" x2="352.36" y2="222.86"/><line class="cls-5" x1="670.9" y1="148.3" x2="570.26" y2="171.85"/><line class="cls-5" x1="570.26" y1="171.85" x2="464.23" y2="196.67"/><line class="cls-5" x1="352.36" y1="222.86" x2="234.14" y2="250.53"/><line class="cls-5" x1="857.55" y1="104.61" x2="766.54" y2="125.91"/><line class="cls-5" x1="944.26" y1="84.31" x2="857.55" y2="104.61"/><line class="cls-5" x1="234.14" y1="250.53" x2="109.04" y2="279.81"/><line class="cls-5" x1="766.54" y1="125.91" x2="670.9" y2="148.3"/><line class="cls-5" x1="1105.94" y1="46.47" x2="1026.97" y2="64.95"/><line class="cls-5" x1="1181.42" y1="28.8" x2="1105.94" y2="46.47"/><line class="cls-5" x1="1322.82" y1="-4.3" x2="1253.65" y2="11.89"/><line class="cls-5" x1="-23.57" y1="310.85" x2="109.04" y2="279.81"/><line class="cls-5" x1="1026.97" y1="64.95" x2="944.26" y2="84.31"/><line class="cls-5" x1="484.24" y1="148.3" x2="378.73" y2="171.85"/><line class="cls-5" x1="857.55" y1="64.95" x2="770.84" y2="84.31"/><line class="cls-5" x1="770.84" y1="84.31" x2="679.94" y2="104.61"/><line class="cls-5" x1="584.52" y1="125.91" x2="484.24" y2="148.3"/><line class="cls-5" x1="679.94" y1="104.61" x2="584.52" y2="125.91"/><line class="cls-5" x1="940.35" y1="46.47" x2="857.55" y2="64.95"/><line class="cls-5" x1="1019.49" y1="28.8" x2="940.35" y2="46.47"/><line class="cls-5" x1="1095.21" y1="11.89" x2="1019.49" y2="28.8"/><line class="cls-5" x1="378.73" y1="171.85" x2="267.57" y2="196.67"/><line class="cls-5" x1="267.57" y1="196.67" x2="150.28" y2="222.86"/><line class="cls-5" x1="150.28" y1="222.86" x2="26.34" y2="250.53"/><line class="cls-5" x1="26.34" y1="250.53" x2="-104.82" y2="279.81"/><line class="cls-5" x1="1167.73" y1="-4.3" x2="1095.21" y2="11.89"/><line class="cls-5" x1="297.59" y1="148.3" x2="187.21" y2="171.85"/><line class="cls-5" x1="187.21" y1="171.85" x2="70.91" y2="196.67"/><line class="cls-5" x1="70.91" y1="196.67" x2="-51.8" y2="222.86"/><line class="cls-5" x1="402.49" y1="125.91" x2="297.59" y2="148.3"/><line class="cls-5" x1="597.43" y1="84.31" x2="502.32" y2="104.61"/><line class="cls-5" x1="1012.64" y1="-4.3" x2="936.77" y2="11.89"/><line class="cls-5" x1="774.76" y1="46.47" x2="688.14" y2="64.95"/><line class="cls-5" x1="857.55" y1="28.8" x2="774.76" y2="46.47"/><line class="cls-5" x1="936.77" y1="11.89" x2="857.55" y2="28.8"/><line class="cls-5" x1="502.32" y1="104.61" x2="402.49" y2="125.91"/><line class="cls-5" x1="688.14" y1="64.95" x2="597.43" y2="84.31"/><line class="cls-5" x1="424.01" y1="84.31" x2="324.7" y2="104.61"/><line class="cls-5" x1="518.73" y1="64.95" x2="424.01" y2="84.31"/><line class="cls-5" x1="324.7" y1="104.61" x2="220.47" y2="125.91"/><line class="cls-5" x1="110.93" y1="148.3" x2="-4.32" y2="171.85"/><line class="cls-5" x1="220.47" y1="125.91" x2="110.93" y2="148.3"/><line class="cls-5" x1="695.62" y1="28.8" x2="609.17" y2="46.47"/><line class="cls-5" x1="778.33" y1="11.89" x2="695.62" y2="28.8"/><line class="cls-5" x1="857.55" y1="-4.3" x2="778.33" y2="11.89"/><line class="cls-5" x1="609.17" y1="46.47" x2="518.73" y2="64.95"/><line class="cls-5" x1="349.31" y1="64.95" x2="250.59" y2="84.31"/><line class="cls-5" x1="250.59" y1="84.31" x2="147.08" y2="104.61"/><line class="cls-5" x1="38.44" y1="125.91" x2="-75.72" y2="148.3"/><line class="cls-5" x1="147.08" y1="104.61" x2="38.44" y2="125.91"/><line class="cls-5" x1="702.46" y1="-4.3" x2="619.9" y2="11.89"/><line class="cls-5" x1="443.58" y1="46.47" x2="349.31" y2="64.95"/><line class="cls-5" x1="533.68" y1="28.8" x2="443.58" y2="46.47"/><line class="cls-5" x1="619.9" y1="11.89" x2="533.68" y2="28.8"/><line class="cls-5" x1="179.9" y1="64.95" x2="77.17" y2="84.31"/><line class="cls-5" x1="461.46" y1="11.89" x2="371.75" y2="28.8"/><line class="cls-5" x1="77.17" y1="84.31" x2="-30.53" y2="104.61"/><line class="cls-5" x1="277.99" y1="46.47" x2="179.9" y2="64.95"/><line class="cls-5" x1="371.75" y1="28.8" x2="277.99" y2="46.47"/><line class="cls-5" x1="547.38" y1="-4.3" x2="461.46" y2="11.89"/><line class="cls-5" x1="209.81" y1="28.8" x2="112.4" y2="46.47"/><line class="cls-5" x1="303.02" y1="11.89" x2="209.81" y2="28.8"/><line class="cls-5" x1="392.29" y1="-4.3" x2="303.02" y2="11.89"/><line class="cls-5" x1="112.4" y1="46.47" x2="10.48" y2="64.95"/><line class="cls-5" x1="10.48" y1="64.95" x2="-96.25" y2="84.31"/><line class="cls-5" x1="237.2" y1="-4.3" x2="144.58" y2="11.89"/><line class="cls-5" x1="144.58" y1="11.89" x2="47.88" y2="28.8"/><line class="cls-5" x1="-53.19" y1="46.47" x2="47.88" y2="28.8"/><line class="cls-5" x1="1570.53" y1="11.89" x2="1667.23" y2="28.8"/><line class="cls-5" x1="1874.04" y1="64.95" x2="1984.77" y2="84.31"/><line class="cls-5" x1="1768.3" y1="46.47" x2="1667.23" y2="28.8"/><line class="cls-5" x1="1874.04" y1="64.95" x2="1768.3" y2="46.47"/><line class="cls-5" x1="1570.53" y1="11.89" x2="1477.91" y2="-4.3"/><line class="cls-5" x1="1602.71" y1="46.47" x2="1505.29" y2="28.8"/><line class="cls-5" x1="1704.62" y1="64.95" x2="1602.71" y2="46.47"/><line class="cls-5" x1="1505.29" y1="28.8" x2="1412.09" y2="11.89"/><line class="cls-5" x1="1412.09" y1="11.89" x2="1322.82" y2="-4.3"/><line class="cls-5" x1="1811.36" y1="84.31" x2="1704.62" y2="64.95"/><line class="cls-5" x1="1923.26" y1="104.61" x2="1811.36" y2="84.31"/><line class="cls-5" x1="1745.64" y1="104.61" x2="1637.94" y2="84.31"/><line class="cls-5" x1="1858.69" y1="125.91" x2="1745.64" y2="104.61"/><line class="cls-5" x1="1343.36" y1="28.8" x2="1253.65" y2="11.89"/><line class="cls-5" x1="1977.48" y1="148.3" x2="1858.69" y2="125.91"/><line class="cls-5" x1="1253.65" y1="11.89" x2="1167.73" y2="-4.3"/><line class="cls-5" x1="1535.21" y1="64.95" x2="1437.12" y2="46.47"/><line class="cls-5" x1="1437.12" y1="46.47" x2="1343.36" y2="28.8"/><line class="cls-5" x1="1637.94" y1="84.31" x2="1535.21" y2="64.95"/><line class="cls-5" x1="1676.66" y1="125.91" x2="1568.02" y2="104.61"/><line class="cls-5" x1="1790.83" y1="148.3" x2="1676.66" y2="125.91"/><line class="cls-5" x1="2037.53" y1="196.67" x2="1910.96" y2="171.85"/><line class="cls-5" x1="1910.96" y1="171.85" x2="1790.83" y2="148.3"/><line class="cls-5" x1="1271.53" y1="46.47" x2="1181.42" y2="28.8"/><line class="cls-5" x1="1181.42" y1="28.8" x2="1095.21" y2="11.89"/><line class="cls-5" x1="1365.8" y1="64.95" x2="1271.53" y2="46.47"/><line class="cls-5" x1="1095.21" y1="11.89" x2="1012.64" y2="-4.3"/><line class="cls-5" x1="1464.52" y1="84.31" x2="1365.8" y2="64.95"/><line class="cls-5" x1="1568.02" y1="104.61" x2="1464.52" y2="84.31"/><line class="cls-5" x1="1968.99" y1="222.86" x2="1840.86" y2="196.67"/><line class="cls-5" x1="1840.86" y1="196.67" x2="1719.43" y2="171.85"/><line class="cls-5" x1="1105.94" y1="46.47" x2="1019.49" y2="28.8"/><line class="cls-5" x1="936.77" y1="11.89" x2="857.55" y2="-4.3"/><line class="cls-5" x1="1494.64" y1="125.91" x2="1390.4" y2="104.61"/><line class="cls-5" x1="1196.38" y1="64.95" x2="1105.94" y2="46.47"/><line class="cls-5" x1="1390.4" y1="104.61" x2="1291.1" y2="84.31"/><line class="cls-5" x1="1291.1" y1="84.31" x2="1196.38" y2="64.95"/><line class="cls-5" x1="1019.49" y1="28.8" x2="936.77" y2="11.89"/><line class="cls-5" x1="1604.17" y1="148.3" x2="1494.64" y2="125.91"/><line class="cls-5" x1="1719.43" y1="171.85" x2="1604.17" y2="148.3"/><line class="cls-5" x1="1212.79" y1="104.61" x2="1117.68" y2="84.31"/><line class="cls-5" x1="940.35" y1="46.47" x2="857.55" y2="28.8"/><line class="cls-5" x1="1026.97" y1="64.95" x2="940.35" y2="46.47"/><line class="cls-5" x1="702.46" y1="-4.3" x2="778.33" y2="11.89"/><line class="cls-5" x1="778.33" y1="11.89" x2="857.55" y2="28.8"/><line class="cls-5" x1="1117.68" y1="84.31" x2="1026.97" y2="64.95"/><line class="cls-5" x1="2033.79" y1="279.81" x2="1896.57" y2="250.53"/><line class="cls-5" x1="1766.91" y1="222.86" x2="1644.2" y2="196.67"/><line class="cls-5" x1="1417.52" y1="148.3" x2="1312.61" y2="125.91"/><line class="cls-5" x1="1527.9" y1="171.85" x2="1417.52" y2="148.3"/><line class="cls-5" x1="1896.57" y1="250.53" x2="1766.91" y2="222.86"/><line class="cls-5" x1="1644.2" y1="196.67" x2="1527.9" y2="171.85"/><line class="cls-5" x1="1312.61" y1="125.91" x2="1212.79" y2="104.61"/><line class="cls-5" x1="1336.37" y1="171.85" x2="1230.86" y2="148.3"/><line class="cls-5" x1="1447.54" y1="196.67" x2="1336.37" y2="171.85"/><line class="cls-5" x1="1564.83" y1="222.86" x2="1447.54" y2="196.67"/><line class="cls-5" x1="1688.76" y1="250.53" x2="1564.83" y2="222.86"/><line class="cls-5" x1="1230.86" y1="148.3" x2="1130.59" y2="125.91"/><line class="cls-5" x1="547.38" y1="-4.3" x2="619.9" y2="11.89"/><line class="cls-5" x1="1819.93" y1="279.81" x2="1688.76" y2="250.53"/><line class="cls-5" x1="695.62" y1="28.8" x2="774.76" y2="46.47"/><line class="cls-5" x1="1958.96" y1="310.85" x2="1819.93" y2="279.81"/><line class="cls-5" x1="1035.17" y1="104.61" x2="944.26" y2="84.31"/><line class="cls-5" x1="944.26" y1="84.31" x2="857.55" y2="64.95"/><line class="cls-5" x1="774.76" y1="46.47" x2="857.55" y2="64.95"/><line class="cls-5" x1="619.9" y1="11.89" x2="695.62" y2="28.8"/><line class="cls-5" x1="1130.59" y1="125.91" x2="1035.17" y2="104.61"/><line class="cls-5" x1="609.17" y1="46.47" x2="688.14" y2="64.95"/><line class="cls-5" x1="688.14" y1="64.95" x2="770.84" y2="84.31"/><line class="cls-5" x1="461.46" y1="11.89" x2="533.68" y2="28.8"/><line class="cls-5" x1="392.29" y1="-4.3" x2="461.46" y2="11.89"/><line class="cls-5" x1="1879.51" y1="343.82" x2="1738.68" y2="310.85"/><line class="cls-5" x1="1144.85" y1="171.85" x2="1044.21" y2="148.3"/><line class="cls-5" x1="2029.33" y1="378.89" x2="1879.51" y2="343.82"/><line class="cls-5" x1="770.84" y1="84.31" x2="857.55" y2="104.61"/><line class="cls-5" x1="533.68" y1="28.8" x2="609.17" y2="46.47"/><line class="cls-5" x1="1362.75" y1="222.86" x2="1250.88" y2="196.67"/><line class="cls-5" x1="948.57" y1="125.91" x2="857.55" y2="104.61"/><line class="cls-5" x1="1250.88" y1="196.67" x2="1144.85" y2="171.85"/><line class="cls-5" x1="1044.21" y1="148.3" x2="948.57" y2="125.91"/><line class="cls-5" x1="1480.96" y1="250.53" x2="1362.75" y2="222.86"/><line class="cls-5" x1="1738.68" y1="310.85" x2="1606.06" y2="279.81"/><line class="cls-5" x1="1606.06" y1="279.81" x2="1480.96" y2="250.53"/><line class="cls-5" x1="1273.16" y1="250.53" x2="1160.67" y2="222.86"/><line class="cls-5" x1="1518.4" y1="310.85" x2="1392.2" y2="279.81"/><line class="cls-5" x1="1794.97" y1="378.89" x2="1652.4" y2="343.82"/><line class="cls-5" x1="303.02" y1="11.89" x2="371.75" y2="28.8"/><line class="cls-5" x1="237.2" y1="-4.3" x2="303.02" y2="11.89"/><line class="cls-5" x1="953.32" y1="171.85" x2="857.55" y2="148.3"/><line class="cls-5" x1="766.54" y1="125.91" x2="857.55" y2="148.3"/><line class="cls-5" x1="1160.67" y1="222.86" x2="1054.22" y2="196.67"/><line class="cls-5" x1="1392.2" y1="279.81" x2="1273.16" y2="250.53"/><line class="cls-5" x1="1054.22" y1="196.67" x2="953.32" y2="171.85"/><line class="cls-5" x1="679.94" y1="104.61" x2="766.54" y2="125.91"/><line class="cls-5" x1="1946.95" y1="416.27" x2="1794.97" y2="378.89"/><line class="cls-5" x1="1652.4" y1="343.82" x2="1518.4" y2="310.85"/><line class="cls-5" x1="443.58" y1="46.47" x2="518.73" y2="64.95"/><line class="cls-5" x1="597.43" y1="84.31" x2="679.94" y2="104.61"/><line class="cls-5" x1="518.73" y1="64.95" x2="597.43" y2="84.31"/><line class="cls-5" x1="371.75" y1="28.8" x2="443.58" y2="46.47"/><line class="cls-5" x1="82.11" y1="-4.3" x2="144.58" y2="11.89"/><line class="cls-5" x1="1704.86" y1="416.27" x2="1560.62" y2="378.89"/><line class="cls-5" x1="1425.3" y1="343.82" x2="1298.12" y2="310.85"/><line class="cls-5" x1="584.52" y1="125.91" x2="670.9" y2="148.3"/><line class="cls-5" x1="502.32" y1="104.61" x2="584.52" y2="125.91"/><line class="cls-5" x1="1560.62" y1="378.89" x2="1425.3" y2="343.82"/><line class="cls-5" x1="209.81" y1="28.8" x2="277.99" y2="46.47"/><line class="cls-5" x1="1298.12" y1="310.85" x2="1178.34" y2="279.81"/><line class="cls-5" x1="1178.34" y1="279.81" x2="1065.36" y2="250.53"/><line class="cls-5" x1="1858.95" y1="456.21" x2="1704.86" y2="416.27"/><line class="cls-5" x1="1065.36" y1="250.53" x2="958.59" y2="222.86"/><line class="cls-5" x1="958.59" y1="222.86" x2="857.55" y2="196.67"/><line class="cls-5" x1="424.01" y1="84.31" x2="502.32" y2="104.61"/><line class="cls-5" x1="277.99" y1="46.47" x2="349.31" y2="64.95"/><line class="cls-5" x1="144.58" y1="11.89" x2="209.81" y2="28.8"/><line class="cls-5" x1="349.31" y1="64.95" x2="424.01" y2="84.31"/><line class="cls-5" x1="670.9" y1="148.3" x2="761.79" y2="171.85"/><line class="cls-5" x1="2023.93" y1="498.96" x2="1858.95" y2="456.21"/><line class="cls-5" x1="761.79" y1="171.85" x2="857.55" y2="196.67"/><line class="cls-5" x1="47.88" y1="28.8" x2="112.4" y2="46.47"/><line class="cls-5" x1="660.89" y1="196.67" x2="756.51" y2="222.86"/><line class="cls-5" x1="112.4" y1="46.47" x2="179.9" y2="64.95"/><line class="cls-5" x1="1077.84" y1="310.85" x2="964.48" y2="279.81"/><line class="cls-5" x1="1608.6" y1="456.21" x2="1462.77" y2="416.27"/><line class="cls-5" x1="1198.2" y1="343.82" x2="1077.84" y2="310.85"/><line class="cls-5" x1="964.48" y1="279.81" x2="857.55" y2="250.53"/><line class="cls-5" x1="179.9" y1="64.95" x2="250.59" y2="84.31"/><line class="cls-5" x1="402.49" y1="125.91" x2="484.24" y2="148.3"/><line class="cls-5" x1="484.24" y1="148.3" x2="570.26" y2="171.85"/><line class="cls-5" x1="324.7" y1="104.61" x2="402.49" y2="125.91"/><line class="cls-5" x1="1462.77" y1="416.27" x2="1326.26" y2="378.89"/><line class="cls-5" x1="1326.26" y1="378.89" x2="1198.2" y2="343.82"/><line class="cls-5" x1="1932.3" y1="544.85" x2="1764.73" y2="498.96"/><line class="cls-5" x1="47.88" y1="28.8" x2="-13.86" y2="11.89"/><line class="cls-5" x1="570.26" y1="171.85" x2="660.89" y2="196.67"/><line class="cls-5" x1="1764.73" y1="498.96" x2="1608.6" y2="456.21"/><line class="cls-5" x1="756.51" y1="222.86" x2="857.55" y2="250.53"/><line class="cls-5" x1="250.59" y1="84.31" x2="324.7" y2="104.61"/><line class="cls-5" x1="220.47" y1="125.91" x2="297.59" y2="148.3"/><line class="cls-5" x1="2017.24" y1="647.51" x2="1833.71" y2="594.23"/><line class="cls-5" x1="464.23" y1="196.67" x2="554.43" y2="222.86"/><line class="cls-5" x1="378.73" y1="171.85" x2="464.23" y2="196.67"/><line class="cls-5" x1="77.17" y1="84.31" x2="147.08" y2="104.61"/><line class="cls-5" x1="147.08" y1="104.61" x2="220.47" y2="125.91"/><line class="cls-5" x1="1358.25" y1="456.21" x2="1220.69" y2="416.27"/><line class="cls-5" x1="1663.61" y1="544.85" x2="1505.54" y2="498.96"/><line class="cls-5" x1="750.62" y1="279.81" x2="857.55" y2="310.85"/><line class="cls-5" x1="554.43" y1="222.86" x2="649.75" y2="250.53"/><line class="cls-5" x1="971.1" y1="343.82" x2="857.55" y2="310.85"/><line class="cls-5" x1="1220.69" y1="416.27" x2="1091.91" y2="378.89"/><line class="cls-5" x1="1505.54" y1="498.96" x2="1358.25" y2="456.21"/><line class="cls-5" x1="649.75" y1="250.53" x2="750.62" y2="279.81"/><line class="cls-5" x1="297.59" y1="148.3" x2="378.73" y2="171.85"/><line class="cls-5" x1="1833.71" y1="594.23" x2="1663.61" y2="544.85"/><line class="cls-5" x1="10.48" y1="64.95" x2="77.17" y2="84.31"/><line class="cls-5" x1="1091.91" y1="378.89" x2="971.1" y2="343.82"/><line class="cls-5" x1="-53.19" y1="46.47" x2="10.48" y2="64.95"/><line class="cls-5" x1="978.6" y1="416.27" x2="857.55" y2="378.89"/><line class="cls-5" x1="1107.9" y1="456.21" x2="978.6" y2="416.27"/><line class="cls-5" x1="637.27" y1="310.85" x2="744" y2="343.82"/><line class="cls-5" x1="1394.93" y1="544.85" x2="1246.34" y2="498.96"/><line class="cls-5" x1="267.57" y1="196.67" x2="352.36" y2="222.86"/><line class="cls-5" x1="1246.34" y1="498.96" x2="1107.9" y2="456.21"/><line class="cls-5" x1="1554.8" y1="594.23" x2="1394.93" y2="544.85"/><line class="cls-5" x1="1914.03" y1="705.18" x2="1727.32" y2="647.51"/><line class="cls-5" x1="1727.32" y1="647.51" x2="1554.8" y2="594.23"/><line class="cls-5" x1="2116.76" y1="767.79" x2="1914.03" y2="705.18"/><line class="cls-5" x1="441.95" y1="250.53" x2="536.76" y2="279.81"/><line class="cls-5" x1="744" y1="343.82" x2="857.55" y2="378.89"/><line class="cls-5" x1="-30.53" y1="104.61" x2="38.44" y2="125.91"/><line class="cls-5" x1="187.21" y1="171.85" x2="267.57" y2="196.67"/><line class="cls-5" x1="38.44" y1="125.91" x2="110.93" y2="148.3"/><line class="cls-5" x1="110.93" y1="148.3" x2="187.21" y2="171.85"/><line class="cls-5" x1="352.36" y1="222.86" x2="441.95" y2="250.53"/><line class="cls-5" x1="536.76" y1="279.81" x2="637.27" y2="310.85"/><line class="cls-5" x1="322.9" y1="279.81" x2="416.99" y2="310.85"/><line class="cls-5" x1="150.28" y1="222.86" x2="234.14" y2="250.53"/><line class="cls-5" x1="1126.24" y1="544.85" x2="987.15" y2="498.96"/><line class="cls-5" x1="234.14" y1="250.53" x2="322.9" y2="279.81"/><line class="cls-5" x1="2008.76" y1="836.02" x2="1801.96" y2="767.79"/><line class="cls-5" x1="1275.9" y1="594.23" x2="1126.24" y2="544.85"/><line class="cls-5" x1="987.15" y1="498.96" x2="857.55" y2="456.21"/><line class="cls-5" x1="736.51" y1="416.27" x2="857.55" y2="456.21"/><line class="cls-5" x1="1437.4" y1="647.51" x2="1275.9" y2="594.23"/><line class="cls-5" x1="1801.96" y1="767.79" x2="1612.18" y2="705.18"/><line class="cls-5" x1="-4.32" y1="171.85" x2="70.91" y2="196.67"/><line class="cls-5" x1="70.91" y1="196.67" x2="150.28" y2="222.86"/><line class="cls-5" x1="1612.18" y1="705.18" x2="1437.4" y2="647.51"/><line class="cls-5" x1="416.99" y1="310.85" x2="516.9" y2="343.82"/><line class="cls-5" x1="516.9" y1="343.82" x2="623.2" y2="378.89"/><line class="cls-5" x1="623.2" y1="378.89" x2="736.51" y2="416.27"/><line class="cls-5" x1="109.04" y1="279.81" x2="196.71" y2="310.85"/><line class="cls-5" x1="26.34" y1="250.53" x2="109.04" y2="279.81"/><line class="cls-5" x1="1890.62" y1="910.65" x2="1679.84" y2="836.02"/><line class="cls-5" x1="1679.84" y1="836.02" x2="1487.16" y2="767.79"/><line class="cls-5" x1="-51.8" y1="222.86" x2="26.34" y2="250.53"/><line class="cls-5" x1="1487.16" y1="767.79" x2="1310.33" y2="705.18"/><line class="cls-5" x1="1147.48" y1="647.51" x2="997" y2="594.23"/><line class="cls-5" x1="494.42" y1="416.27" x2="607.2" y2="456.21"/><line class="cls-5" x1="388.84" y1="378.89" x2="494.42" y2="416.27"/><line class="cls-5" x1="1310.33" y1="705.18" x2="1147.48" y2="647.51"/><line class="cls-5" x1="196.71" y1="310.85" x2="289.8" y2="343.82"/><line class="cls-5" x1="289.8" y1="343.82" x2="388.84" y2="378.89"/><line class="cls-5" x1="727.96" y1="498.96" x2="857.55" y2="544.85"/><line class="cls-5" x1="997" y1="594.23" x2="857.55" y2="544.85"/><line class="cls-5" x1="607.2" y1="456.21" x2="727.96" y2="498.96"/><line class="cls-5" x1="1350.93" y1="836.02" x2="1172.36" y2="767.79"/><line class="cls-5" x1="1172.36" y1="767.79" x2="1008.48" y2="705.18"/><line class="cls-5" x1="154.49" y1="378.89" x2="252.33" y2="416.27"/><line class="cls-5" x1="356.85" y1="456.21" x2="468.76" y2="498.96"/><line class="cls-5" x1="468.76" y1="498.96" x2="588.87" y2="544.85"/><line class="cls-5" x1="252.33" y1="416.27" x2="356.85" y2="456.21"/><line class="cls-5" x1="588.87" y1="544.85" x2="718.1" y2="594.23"/><line class="cls-5" x1="1008.48" y1="705.18" x2="857.55" y2="647.51"/><line class="cls-5" x1="718.1" y1="594.23" x2="857.55" y2="647.51"/><line class="cls-5" x1="62.7" y1="343.82" x2="154.49" y2="378.89"/><line class="cls-5" x1="1760.84" y1="992.63" x2="1546.26" y2="910.65"/><line class="cls-5" x1="1546.26" y1="910.65" x2="1350.93" y2="836.02"/><line class="cls-5" x1="-23.57" y1="310.85" x2="62.7" y2="343.82"/><line class="cls-5" x1="1022.01" y1="836.02" x2="857.55" y2="767.79"/><line class="cls-5" x1="1617.61" y1="1083.11" x2="1399.52" y2="992.63"/><line class="cls-5" x1="567.63" y1="647.51" x2="706.63" y2="705.18"/><line class="cls-5" x1="706.63" y1="705.18" x2="857.55" y2="767.79"/><line class="cls-5" x1="1399.52" y1="992.63" x2="1201.91" y2="910.65"/><line class="cls-5" x1="1201.91" y1="910.65" x2="1022.01" y2="836.02"/><line class="cls-5" x1="-79.87" y1="378.89" x2="10.25" y2="416.27"/><line class="cls-5" x1="10.25" y1="416.27" x2="106.51" y2="456.21"/><line class="cls-5" x1="320.18" y1="544.85" x2="439.2" y2="594.23"/><line class="cls-5" x1="209.57" y1="498.96" x2="320.18" y2="544.85"/><line class="cls-5" x1="439.2" y1="594.23" x2="567.63" y2="647.51"/><line class="cls-5" x1="106.51" y1="456.21" x2="209.57" y2="498.96"/><line class="cls-5" x1="1237.58" y1="1083.11" x2="1038.21" y2="992.63"/><line class="cls-5" x1="1038.21" y1="992.63" x2="857.55" y2="910.65"/><line class="cls-5" x1="693.1" y1="836.02" x2="857.55" y2="910.65"/><line class="cls-5" x1="51.49" y1="544.85" x2="160.3" y2="594.23"/><line class="cls-5" x1="160.3" y1="594.23" x2="277.71" y2="647.51"/><line class="cls-5" x1="-49.62" y1="498.96" x2="51.49" y2="544.85"/><line class="cls-5" x1="277.71" y1="647.51" x2="404.78" y2="705.18"/><line class="cls-5" x1="404.78" y1="705.18" x2="542.75" y2="767.79"/><line class="cls-5" x1="542.75" y1="767.79" x2="693.1" y2="836.02"/><line class="cls-5" x1="676.9" y1="992.63" x2="857.55" y2="1083.11"/><line class="cls-5" x1="102.93" y1="705.18" x2="227.95" y2="767.79"/><line class="cls-5" x1="227.95" y1="767.79" x2="364.18" y2="836.02"/><line class="cls-5" x1="364.18" y1="836.02" x2="513.2" y2="910.65"/><line class="cls-5" x1="-12.21" y1="647.51" x2="102.93" y2="705.18"/><line class="cls-5" x1="513.2" y1="910.65" x2="676.9" y2="992.63"/><line class="cls-5" x1="315.58" y1="992.63" x2="477.52" y2="1083.11"/><line class="cls-5" x1="168.84" y1="910.65" x2="315.58" y2="992.63"/><line class="cls-5" x1="-86.85" y1="767.79" x2="35.26" y2="836.02"/><line class="cls-5" x1="35.26" y1="836.02" x2="168.84" y2="910.65"/></g></g><text class="cls-6" transform="translate(466.51 494.48)"><tspan class="cls-7">F</tspan><tspan class="cls-8" x="34.6" y="0">A</tspan><tspan x="86.31" y="0">CE T</tspan><tspan class="cls-9" x="268.49" y="0">H</tspan><tspan x="321.35" y="0">E </tspan><tspan class="cls-10" x="394.01" y="0">P</tspan><tspan class="cls-11" x="433.29" y="0">A</tspan><tspan class="cls-12" x="489.83" y="0">N</tspan><tspan class="cls-13" x="543.3" y="0">D</tspan><tspan x="593.47" y="0">EM</tspan><tspan class="cls-14" x="698.58" y="0">I</tspan><tspan x="714.7" y="0">C WITH</tspan><tspan x="-188.46" y="59">T</tspan><tspan class="cls-12" x="-134.44" y="59">H</tspan><tspan x="-81.58" y="59">E </tspan><tspan class="cls-11" x="-8.92" y="59">R</tspan><tspan class="cls-14" x="38.67" y="59">E</tspan><tspan class="cls-13" x="84.6" y="59">NA</tspan><tspan class="cls-14" x="192.19" y="59">IS</tspan><tspan class="cls-15" x="260.62" y="59">S</tspan><tspan class="cls-13" x="309.91" y="59">A</tspan><tspan class="cls-16" x="366.45" y="59">N</tspan><tspan x="418.21" y="59">CE </tspan><tspan class="cls-17" x="546.38" y="59">O</tspan><tspan x="601.5" y="59">F T</tspan><tspan class="cls-11" x="726.08" y="59">E</tspan><tspan class="cls-18" x="771.41" y="59">C</tspan><tspan class="cls-19" x="826.31" y="59">H</tspan><tspan class="cls-14" x="878.56" y="59">N</tspan><tspan class="cls-20" x="930.22" y="59">O</tspan><tspan class="cls-21" x="985.22" y="59">L</tspan><tspan x="1027.36" y="59">O</tspan><tspan class="cls-22" x="1082.8" y="59">G</tspan><tspan x="1132.42" y="59">Y</tspan><tspan class="cls-23" x="174.04" y="118">F</tspan><tspan class="cls-14" x="215.46" y="118">O</tspan><tspan x="270.3" y="118">R T</tspan><tspan class="cls-12" x="399.24" y="118">H</tspan><tspan x="452.1" y="118">E FUTU</tspan><tspan class="cls-11" x="728.95" y="118">R</tspan><tspan x="776.53" y="118">E</tspan></text><text class="cls-6" transform="translate(471.19 489.8)"><tspan class="cls-7">F</tspan><tspan class="cls-8" x="34.6" y="0">A</tspan><tspan x="86.31" y="0">CE T</tspan><tspan class="cls-9" x="268.49" y="0">H</tspan><tspan x="321.35" y="0">E </tspan><tspan class="cls-10" x="394.01" y="0">P</tspan><tspan class="cls-11" x="433.29" y="0">A</tspan><tspan class="cls-12" x="489.83" y="0">N</tspan><tspan class="cls-13" x="543.3" y="0">D</tspan><tspan x="593.47" y="0">EM</tspan><tspan class="cls-14" x="698.58" y="0">I</tspan><tspan x="714.7" y="0">C WITH</tspan><tspan x="-188.46" y="59">T</tspan><tspan class="cls-12" x="-134.44" y="59">H</tspan><tspan x="-81.58" y="59">E </tspan><tspan class="cls-11" x="-8.92" y="59">R</tspan><tspan class="cls-14" x="38.67" y="59">E</tspan><tspan class="cls-13" x="84.6" y="59">NA</tspan><tspan class="cls-14" x="192.19" y="59">IS</tspan><tspan class="cls-15" x="260.62" y="59">S</tspan><tspan class="cls-13" x="309.91" y="59">A</tspan><tspan class="cls-16" x="366.45" y="59">N</tspan><tspan x="418.21" y="59">CE </tspan><tspan class="cls-17" x="546.38" y="59">O</tspan><tspan x="601.5" y="59">F T</tspan><tspan class="cls-11" x="726.08" y="59">E</tspan><tspan class="cls-18" x="771.41" y="59">C</tspan><tspan class="cls-19" x="826.31" y="59">H</tspan><tspan class="cls-14" x="878.56" y="59">N</tspan><tspan class="cls-20" x="930.22" y="59">O</tspan><tspan class="cls-21" x="985.22" y="59">L</tspan><tspan x="1027.36" y="59">O</tspan><tspan class="cls-22" x="1082.8" y="59">G</tspan><tspan x="1132.42" y="59">Y</tspan><tspan class="cls-23" x="174.04" y="118">F</tspan><tspan class="cls-14" x="215.46" y="118">O</tspan><tspan x="270.3" y="118">R T</tspan><tspan class="cls-12" x="399.24" y="118">H</tspan><tspan x="452.1" y="118">E FUTU</tspan><tspan class="cls-11" x="728.95" y="118">R</tspan><tspan x="776.53" y="118">E</tspan></text><text class="cls-24" transform="translate(461.83 499.16)"><tspan class="cls-7">F</tspan><tspan class="cls-8" x="34.6" y="0">A</tspan><tspan x="86.31" y="0">CE T</tspan><tspan class="cls-9" x="268.49" y="0">H</tspan><tspan x="321.35" y="0">E </tspan><tspan class="cls-10" x="394.01" y="0">P</tspan><tspan class="cls-11" x="433.29" y="0">A</tspan><tspan class="cls-12" x="489.83" y="0">N</tspan><tspan class="cls-13" x="543.3" y="0">D</tspan><tspan x="593.47" y="0">EM</tspan><tspan class="cls-14" x="698.58" y="0">I</tspan><tspan x="714.7" y="0">C WITH</tspan><tspan x="-188.46" y="59">T</tspan><tspan class="cls-12" x="-134.44" y="59">H</tspan><tspan x="-81.58" y="59">E </tspan><tspan class="cls-11" x="-8.92" y="59">R</tspan><tspan class="cls-14" x="38.67" y="59">E</tspan><tspan class="cls-13" x="84.6" y="59">NA</tspan><tspan class="cls-14" x="192.19" y="59">IS</tspan><tspan class="cls-15" x="260.62" y="59">S</tspan><tspan class="cls-13" x="309.91" y="59">A</tspan><tspan class="cls-16" x="366.45" y="59">N</tspan><tspan x="418.21" y="59">CE </tspan><tspan class="cls-17" x="546.38" y="59">O</tspan><tspan x="601.5" y="59">F T</tspan><tspan class="cls-11" x="726.08" y="59">E</tspan><tspan class="cls-18" x="771.41" y="59">C</tspan><tspan class="cls-19" x="826.31" y="59">H</tspan><tspan class="cls-14" x="878.56" y="59">N</tspan><tspan class="cls-20" x="930.22" y="59">O</tspan><tspan class="cls-21" x="985.22" y="59">L</tspan><tspan x="1027.36" y="59">O</tspan><tspan class="cls-22" x="1082.8" y="59">G</tspan><tspan x="1132.42" y="59">Y</tspan><tspan class="cls-23" x="174.04" y="118">F</tspan><tspan class="cls-14" x="215.46" y="118">O</tspan><tspan x="270.3" y="118">R T</tspan><tspan class="cls-12" x="399.24" y="118">H</tspan><tspan x="452.1" y="118">E FUTU</tspan><tspan class="cls-11" x="728.95" y="118">R</tspan><tspan x="776.53" y="118">E</tspan></text><g id="Light_Logo_Under"><text class="cls-25" transform="translate(847.7 274.24)">Multimedia and Game <tspan class="cls-26" x="157.57" y="0">E</tspan><tspan class="cls-27" x="166.68" y="0">v</tspan><tspan x="174.96" y="0">e</tspan><tspan class="cls-28" x="183.57" y="0">n</tspan><tspan x="192.79" y="0">t 7</tspan></text><text class="cls-29" transform="translate(846.75 258.35)">M<tspan class="cls-30" x="48.8" y="0">A</tspan><tspan x="86.81" y="0">GE 7</tspan></text><path class="cls-31" d="M1030.25,91.55s12.23,17.17-5.91,71.83c0,0,7.17-56.23-5.06-74.36l6.11-1.25Z"/><path class="cls-32" d="M990.19,56.55s23.61,11-14.76,110.05c0,0,2.11-86.66-12.23-96l7.92-11.74,19.07-2.27h0"/><path class="cls-33" d="M921.88,58.66s23.62-2.11-3.79,91.08c0,0,2.11-70.42-11.39-74.21l9.94-12.15Z"/><path class="cls-34" d="M890.68,179.25s-24-50.17,5.48-101.62c0,0,12.23-13.49,25.72-19C921.88,58.66,887.73,91.13,890.68,179.25Z"/><path class="cls-35" d="M939.59,56.55S897,125.28,941.7,209.19c0,0,12.65-138.16,48.49-152.64C990.19,56.55,951.82,43.9,939.59,56.55Z"/><path class="cls-36" d="M1030.25,91.55s-13.07-24-23.19-20.66c0,0-38.8,24.15-9.7,125.29C997.36,196.18,1005.37,79.32,1030.25,91.55Z"/></g><g class="cls-37"><path class="cls-38" d="M172.05,297.41V81H172c-.07-18.34-21.92-27-43.05-35.4C109.33,37.85,90.78,30.48,89.7,16.89V-.5H83.91v16h0c0,.58,0,1.15,0,1.7v114h0c.12,14.49-19,22.09-39.3,30.14-21.09,8.37-42.84,17.22-43,35.49V414.67l-39.07,13.12L1.55,440.91l3,1L7.34,441l39.24-13.18L7.34,414.61V197c0-14.48,20-22.64,39.36-30.33C61.2,160.88,76,155,83.91,145.93v34.22L44.67,193.33l39.24,13.18,2.81.94,3-1,39.07-13.12L89.7,180.21V30.41c7.89,9,22.67,14.86,37.11,20.6,19.38,7.69,39.41,15.63,39.41,30.11h0V297.35L127,310.53l39.24,13.18,2.81.94,3-1,39.07-13.13ZM7.34,447.05v66.21L52.69,498V431.82ZM-43.8,431.82V498L1.55,513.26V447.05ZM120.91,314.56v66.22L166.27,396V329.79Zm51.14,15.23V396l45.35-15.23V314.56ZM89.7,212.59v66.22l45.35-15.23V197.36ZM38.56,197.36v66.22l45.35,15.23V212.59Z"/><path class="cls-38" d="M211.12,841.63l-39.07,13.13-3,1-2.81-.94L127,841.63l39.24-13.17V710.58h0c0-14.48-20-22.42-39.41-30.11-14.44-5.74-29.22-11.6-37.11-20.6v51.44l39.07,13.12L89.7,737.56l-3,1-2.81-.94L44.67,724.43l39.24-13.17V677l0-14.79h0V646.62c0-.55-.06-1.12,0-1.7h0V609.25c.12-14.49-19-22.09-39.3-30.13-20.54-8.15-41.74-16.57-43-33.87H1.55V516.32l2.9.81,2.89-.81v27.3c0,14.48,20,22.43,39.4,30.12,14.48,5.74,29.29,11.62,37.17,20.65V281.86l2.89,1.29,2.9-1.29v196.9c7.88-9,22.69-14.91,37.16-20.66,9.69-3.84,19.54-7.75,27-12.51s12.44-10.36,12.44-17.6V399.06l2.89.81,2.89-.81V428c0,18.4-21.89,27.09-43.05,35.49-20.26,8-39.4,15.64-39.3,30.11V646.35c1.08,13.59,19.63,21,39.25,28.74,21.13,8.39,43,17.06,43.05,35.4h.05v118Z"/><path class="cls-38" d="M120.91,845.66v66.22l45.36,15.23V860.89Zm51.14,15.23v66.22l45.35-15.23V845.66ZM169.16,931l-2.89-.81v28.93c0,7.24-5,12.85-12.44,17.61s-17.28,8.67-27,12.51c-14.47,5.74-29.28,11.62-37.16,20.65V813l-2.9,1.29L83.91,813v267H89.7v-55.3c-.1-14.48,19-22.07,39.3-30.11,21.16-8.4,43.05-17.09,43.05-35.5V930.16ZM89.7,743.69v66.22l45.35-15.23V728.46ZM38.56,728.46v66.22l45.35,15.23V743.69Z"/><path class="cls-38" d="M1753.73,866.54v66.22l45.35-15.23V851.32Zm-51.13-15.22v66.21L1748,932.76V866.54Zm164.71-267V650.5l45.35,15.24V599.52Zm51.13,15.24v66.22l45.35-15.24V584.28Zm-2.89,70.08-2.89-.81V847.48c0,7.25-5,12.85-12.44,17.6s-17.28,8.68-27,12.52c-14.48,5.74-29.29,11.62-37.18,20.65V803.36l-2.89,1.29-2.89-1.29v210.52c-7.88-9-22.69-14.9-37.17-20.64-19.37-7.7-39.4-15.64-39.4-30.12V935.81l-2.89.81-2.89-.81v28.93h0c1.25,17.3,22.47,25.72,43,33.87,20.28,8,39.41,15.65,39.3,30.14V1080h5.78V913.08c-.09-14.46,19.05-22.07,39.31-30.1,21.16-8.4,43-17.1,43-35.5V668.79Zm-79.47,64.49V800.3l45.35-15.23V718.85Zm-51.14-15.24v66.22l45.36,15.23V734.09Z"/><path class="cls-38" d="M1836.08,50.25V16l.05-14.8h-.05V-14.38a16.2,16.2,0,0,0,.05-1.71h-.05V-32h-5.78v17.39c-1.08,13.59-19.63,21-39.25,28.74-21.12,8.39-43,17.06-43,35.4h0v118l-39.08,13.12L1748,193.76l3,1,2.8-.94L1793,180.62l-39.25-13.17V49.58h.06c0-14.48,20-22.43,39.39-30.11,14.45-5.74,29.23-11.61,37.12-20.6V50.3l-39.07,13.12,39.07,13.14,3,1,2.8-.94,39.25-13.19Zm-82.35,149.64V266.1l45.35-15.23V184.65Zm-51.13-15.24v66.22L1748,266.1V199.89Zm82.34-117.2v66.22l45.36,15.24V82.69Zm51.14,15.24v66.22l45.35-15.24V67.45Z"/><path class="cls-38" d="M1957.51,580.25l-39.07,13.14-3,1-2.8-.94-39.25-13.19,39.25-13.17V500.62h-.05c0-14.48-20-22.43-39.4-30.12-14.45-5.73-29.23-11.59-37.13-20.59V701.7l39.08,13.12-39.08,13.12-3,1-2.81-.94-39.23-13.19,39.23-13.18V565.43c-7.87,9.05-22.72,15-37.22,20.71-19.37,7.69-39.35,15.85-39.35,30.32V834.1L1793,847.29l-39.23,13.18-2.81.93-3-1-39.08-13.12L1748,834.17V616.26c.17-18.28,21.91-27.13,43-35.5,20.26-8,39.41-15.64,39.3-30.13h0v-114c0-.56,0-1.13,0-1.71h0V363.68c.1-14.46-19-22.07-39.3-30.1-10.59-4.19-21.34-8.47-29.47-14S1748,307.29,1748,298.08V269.16l2.89.81,2.89-.81v28.92c0,14.48,20,22.43,39.4,30.12,14.48,5.74,29.29,11.63,37.17,20.66V152l2.89,1.29,2.89-1.29V399.29h0v37.1c1.09,13.58,19.64,20.95,39.26,28.73,21.12,8.39,43,17.07,43.05,35.41h0v66.6Z"/><path class="cls-38" d="M251.17,943.56l2.8.94,3.76,1.26m-6.56-2.2-3,1-5.37,1.81m172.3-119.65,3,1,5.77,1.94M333.05,709.92l3,1,13.67,4.59m-36.17,1,16.74-5.62,2.78-.94m90.82,119.73-5.77-1.94-3-1-2.8.94-8.13,2.73-31,10.4,39.1,13.14,2.8.93,3-1L457,840.78ZM349.7,715.51,336,710.92l-3-1-2.78.94-16.74,5.62L291.17,724l39.1,13.14,2.8.94,3-1L375,724Zm-92,230.25L254,944.5l-2.8-.94-3,1-5.37,1.81-33.56,11.27,38.93,13.08,3,1,2.8-.94,39.1-13.13ZM254,976.82v66l45.19-15.18v-66Zm-51-15.18v66l45.19,15.18v-66ZM367.14,844.8v66L412.33,926V860Zm51,15.17v66l45.19-15.18v-66Zm-2.88,69.83-2.89-.8v28.83c0,7.21-5,12.79-12.39,17.54s-17.22,8.63-26.87,12.47c-14.42,5.72-29.18,11.58-37,20.57V812.21l-2.88,1.29-2.88-1.29v311.44c-7.86-9-22.61-14.86-37-20.59-19.3-7.66-39.26-15.58-39.26-30v-27.21l-2.88.81-2.89-.81v28.83h.06c1.25,17.24,22.38,25.63,42.84,33.75,20.2,8,39.29,15.59,39.17,30v19.65H336V1023.2c-.09-14.42,19-22,39.17-30,21.09-8.37,42.9-17,42.9-35.36V929ZM336,743.19v66L381.23,794V728ZM285.08,728v66l45.19,15.18v-66ZM404.2,830.38l8.13-2.73,2.8-.94"/><path class="cls-38" d="M583.2,863V929.2L628.55,914V847.75Zm-51.14-15.23V914l45.35,15.23V863Zm-37,201.7v28.93c0,18.41,21.88,27.09,43.05,35.49,20.26,8,39.4,15.64,39.3,30.11v135.37h5.79V932.25l-2.9,1.29-2.89-1.29v196.9c-7.89-9-22.69-14.91-37.16-20.65-9.69-3.84-19.54-7.76-27-12.51s-12.44-10.37-12.44-17.61v-28.93l-2.89.81ZM449.71,965v66.22l45.35,15.23V980.18Zm51.13,15.23v66.22l45.35-15.23V965Zm37.5-136.46,39.07,13.12,3,1,2.81-.94,39.24-13.18-32.11-10.78-7.13-2.4-2.81-.94-3,1L566,834.43ZM456,960.92l39.07,13.13,3,1,2.81-.94,39.24-13.18-39.24-13.18L498,946.8l-3,1-6,2ZM580.39,829.6l2.81.94,7.13,2.4M498,946.8l2.81.94,7.6,2.56M489,949.83l6-2,3-1m68-112.37,11.4-3.83,3-1"/><path class="cls-38" d="M613,965v66.22l45.35,15.23V980.26Zm51.14,15.23v66.22l45.35-15.23V965Zm0,69.27-2.89,1.29-2.9-1.29v211.8l5.79-.07Zm11.4-97.82-11.4-3.83-3-1-2.81.94-7.13,2.4L619.14,961l39.24,13.18,2.81.94,3-1L703.24,961Zm-24.32-1.49,7.13-2.4,2.81-.94m0,0,3,1,11.4,3.83"/><path class="cls-38" d="M1674.67,699.23l3,1,5.93,2m-19.88.7,8.17-2.75,2.8-.94M1592.33,833.8l3,1,8,2.68m-20.9-.35,7.12-2.39,2.81-.94m-82.19,115.07,2.8.94,11.49,3.86m-31,.82,13.76-4.62,3-1m173.44-246.65-5.93-2-3-1-2.8.94-8.17,2.75-31.08,10.43,39.25,13.19,2.8.94,3-1,39.08-13.13ZM1603.3,837.48l-8-2.68-3-1-2.81.94-7.12,2.39-32.13,10.79,39.25,13.18,2.8.94,3-1,39.08-13.12Zm-78.87,116.19-11.49-3.86-2.8-.94-3,1-13.76,4.62-25.32,8.5,39.08,13.12,3,1,2.8-.94L1552.18,963Zm-11.49,28.58v66.21l45.35-15.23V967ZM1461.81,967v66.21l45.35,15.23V982.25Zm164.71-249.64V783.6l45.35,15.23V732.61Zm51.13,15.23v66.22L1723,783.6V717.38Zm-2.89,70.08-2.89-.81v178.7c0,7.24-5,12.84-12.44,17.6s-17.27,8.66-27,12.51c-14.48,5.75-29.28,11.63-37.17,20.66v-94.9l-2.89,1.29-2.89-1.29v109.8h0V1147c-7.89-9-22.7-14.91-37.17-20.65-19.38-7.69-39.41-15.64-39.41-30.12v-44.7l-2.89.81-2.89-.81v46.33h.06c1.25,17.3,22.46,25.72,43,33.86,20.27,8,39.42,15.65,39.3,30.14h0v19.71h5.78V1046.18c-.1-14.47,19-22.07,39.3-30.11,21.17-8.4,43.05-17.09,43.05-35.49V801.88Zm-79.46,64.49v66.21l45.35-15.23V852ZM1544.16,852v66.21l45.36,15.23V867.18Z"/><g id="_2040802283968" data-name=" 2040802283968"><polygon class="cls-39" points="140.57 572.99 148.93 587.52 157.29 601.98 140.57 601.98 123.84 601.98 132.21 587.52 140.57 572.99"/><polygon class="cls-39" points="140.57 540.27 148.93 554.8 157.29 569.26 140.57 569.26 123.84 569.26 132.21 554.72 140.57 540.27"/><polygon class="cls-39" points="140.57 506.17 148.93 520.62 157.29 535.07 140.57 535.07 123.84 535.07 132.21 520.62 140.57 506.17"/></g><g id="_2040802283968-2" data-name=" 2040802283968"><polygon class="cls-39" points="386.74 1048.32 395.11 1062.86 403.47 1077.31 386.74 1077.31 370.02 1077.31 378.38 1062.78 386.74 1048.32"/><polygon class="cls-39" points="386.74 1014.22 395.11 1028.68 403.47 1043.13 386.74 1043.13 370.02 1043.13 378.38 1028.68 386.74 1014.22"/></g><g id="_2040802283968-3" data-name=" 2040802283968"><polygon class="cls-39" points="40.06 94.47 48.42 109 56.78 123.45 40.06 123.45 23.33 123.45 31.7 109 40.06 94.47"/><polygon class="cls-39" points="40.06 61.75 48.42 76.28 56.78 90.73 40.06 90.73 23.33 90.73 31.7 76.2 40.06 61.75"/><polygon class="cls-39" points="40.06 27.65 48.42 42.1 56.78 56.55 40.06 56.55 23.33 56.55 31.7 42.1 40.06 27.65"/></g><g id="_2040802283968-4" data-name=" 2040802283968"><polygon class="cls-39" points="1880.17 264.73 1888.53 279.26 1896.89 293.72 1880.17 293.72 1863.44 293.72 1871.8 279.26 1880.17 264.73"/><polygon class="cls-39" points="1880.17 232.01 1888.53 246.54 1896.89 261 1880.17 261 1863.44 261 1871.8 246.46 1880.17 232.01"/><polygon class="cls-39" points="1880.17 197.91 1888.53 212.36 1896.89 226.81 1880.17 226.81 1863.44 226.81 1871.8 212.36 1880.17 197.91"/></g><g id="_2040802283968-5" data-name=" 2040802283968"><polygon class="cls-39" points="1880.17 985.19 1888.53 999.72 1896.89 1014.18 1880.17 1014.18 1863.44 1014.18 1871.8 999.72 1880.17 985.19"/><polygon class="cls-39" points="1880.17 952.47 1888.53 967 1896.89 981.46 1880.17 981.46 1863.44 981.46 1871.8 966.92 1880.17 952.47"/><polygon class="cls-39" points="1880.17 918.37 1888.53 932.82 1896.89 947.27 1880.17 947.27 1863.44 947.27 1871.8 932.82 1880.17 918.37"/></g><polygon class="cls-39" points="1735.39 495.57 1768.84 495.57 1768.82 409.3 1735.59 409.16 1735.39 495.57"/><polygon class="cls-39" points="1863.46 418.46 1896.91 418.46 1896.88 332.19 1863.65 332.05 1863.46 418.46"/><polygon class="cls-39" points="1863.46 1126.21 1896.91 1126.21 1896.88 1039.94 1863.65 1039.8 1863.46 1126.21"/><rect class="cls-38" x="1749.22" y="525.36" width="5.79" height="50"/><rect class="cls-38" x="1749.22" y="332.05" width="5.79" height="50"/><rect class="cls-38" x="1749.22" y="1031.62" width="5.79" height="50"/><rect class="cls-38" x="1671.6" y="1043.47" width="5.79" height="38.16"/><rect class="cls-38" x="1507.3" y="829.68" width="5.79" height="104.34"/><rect class="cls-38" x="164.82" y="1012.24" width="5.79" height="50"/><rect class="cls-38" x="248.22" y="662.19" width="5.79" height="247.88"/><text class="cls-40" transform="translate(54.75 1033.71) rotate(-90)"><tspan class="cls-41">M</tspan><tspan class="cls-42" x="37.34" y="0">A</tspan><tspan x="70.46" y="0">GE 7</tspan></text><path class="cls-38" d="M1429.06,833.23l3,1,5.93,2m-19.88.7,8.17-2.75,2.8-.94m-82.34,115.52,3,1,8,2.68m-20.9-.35,7.12-2.39,2.81-.94m-82.19,151.51,2.8.94,11.49,3.86m-31,.82,13.76-4.62,3-1m173.44-264-5.93-2-3-1-2.8.94-8.17,2.75L1387,847.35l39.25,13.19,2.8.94,3-1,39.08-13.13Zm-80.28,116.21-8-2.68-3-1-2.81.94-7.12,2.39-32.13,10.79,39.25,13.18,2.8.94,3-1,39.08-13.12Zm-78.87,152.63-11.49-3.86-2.8-.94-3,1-13.76,4.62-25.32,8.5,39.08,13.12,3,1,2.8-.94,39.24-13.18Zm-11.49,28.58v66.21l45.35-15.23v-66.21Zm-51.13-15.23v66.21l45.35,15.23v-66.21Zm164.71-267V917.6l45.35,15.23V866.61ZM1432,866.61v66.22l45.36-15.23V851.38Zm-2.89,70.08-2.89-.81v178.7c0,7.24-5,12.84-12.44,17.6s-17.27,8.66-27,12.51c-14.48,5.75-29.28,11.63-37.17,20.66V1051.4l-2.89,1.29-2.89-1.29v128.85h0V1281c-7.89-9-22.7-14.91-37.17-20.65-19.38-7.69-39.41-15.64-39.41-30.12V1202.9l-2.89.81-2.89-.81v28.94h.06c1.25,17.3,22.46,25.72,43,33.86,20.27,8,39.42,15.65,39.3,30.14h0v19.71h5.78V1180.18c-.1-14.47,19-22.07,39.3-30.11,21.17-8.4,43-17.09,43-35.49V935.88Zm-79.46,45.44v66.21l45.35-15.23V966.9Zm-51.14-15.23v66.21l45.36,15.23V982.13Z"/></g></svg>