<svg id="Layer_1" data-name="Layer 1" xmlns="http://www.w3.org/2000/svg" xmlns:xlink="http://www.w3.org/1999/xlink" viewBox="0 0 1920 1080"><defs><style>.cls-1,.cls-6,.cls-7,.cls-8,.cls-9{fill:none;}.cls-2{fill:#1a1a1a;}.cls-3{opacity:0.6;}.cls-4{clip-path:url(#clip-path);}.cls-5{opacity:0.5;}.cls-6{stroke:#ece8e1;stroke-width:0.3px;}.cls-6,.cls-7,.cls-8,.cls-9{stroke-miterlimit:10;}.cls-7,.cls-8,.cls-9{stroke:#ff4655;}.cls-7{fill-rule:evenodd;}.cls-9{font-size:35.8px;font-family:HansonBold, Hanson;}.cls-10{letter-spacing:-0.02em;}.cls-11{letter-spacing:-0.12em;}</style><clipPath id="clip-path"><rect class="cls-1" y="-0.85" width="1920" height="1081.35"/></clipPath></defs><rect class="cls-2" y="-1" width="1920" height="1081.5"/><g class="cls-3"><g class="cls-4"><g class="cls-5"><line class="cls-6" x1="114.36" y1="705.15" x2="195.96" y2="767.86"/><line class="cls-6" x1="195.96" y1="767.86" x2="284.87" y2="836.18"/><line class="cls-6" x1="39.21" y1="647.41" x2="114.36" y2="705.15"/><line class="cls-6" x1="-30.22" y1="594.06" x2="39.21" y2="647.41"/><line class="cls-6" x1="2032.47" y1="27.84" x2="1870.98" y2="-5.31"/><line class="cls-6" x1="1858.31" y1="1083.62" x2="1976.22" y2="993.01"/><line class="cls-6" x1="284.87" y1="836.18" x2="382.13" y2="910.91"/><line class="cls-6" x1="382.13" y1="910.91" x2="488.97" y2="993.01"/><line class="cls-6" x1="488.97" y1="993.01" x2="606.88" y2="1083.62"/><line class="cls-6" x1="346.51" y1="45.53" x2="432.72" y2="27.84"/><line class="cls-6" x1="594.21" y1="-5.31" x2="432.72" y2="27.84"/><line class="cls-6" x1="346.51" y1="45.53" x2="161.85" y2="83.43"/><line class="cls-6" x1="62.81" y1="103.75" x2="-150.37" y2="147.5"/><line class="cls-6" x1="62.81" y1="103.75" x2="161.85" y2="83.43"/><line class="cls-6" x1="1678.77" y1="993.01" x2="1799.57" y2="910.91"/><line class="cls-6" x1="1799.57" y1="910.91" x2="1909.54" y2="836.18"/><line class="cls-6" x1="1909.54" y1="836.18" x2="2010.08" y2="767.86"/><line class="cls-6" x1="1545.45" y1="1083.62" x2="1678.77" y2="993.01"/><line class="cls-6" x1="1638.76" y1="836.18" x2="1750.92" y2="767.86"/><line class="cls-6" x1="1853.84" y1="705.15" x2="1948.63" y2="647.41"/><line class="cls-6" x1="1516.08" y1="910.91" x2="1638.76" y2="836.18"/><line class="cls-6" x1="1232.6" y1="1083.62" x2="1381.32" y2="993.01"/><line class="cls-6" x1="1381.32" y1="993.01" x2="1516.08" y2="910.91"/><line class="cls-6" x1="1750.92" y1="767.86" x2="1853.84" y2="705.15"/><line class="cls-6" x1="1605.34" y1="705.15" x2="1709.95" y2="647.41"/><line class="cls-6" x1="1491.76" y1="767.86" x2="1605.34" y2="705.15"/><line class="cls-6" x1="1232.6" y1="910.91" x2="1367.99" y2="836.18"/><line class="cls-6" x1="1896.18" y1="544.61" x2="1979.43" y2="498.66"/><line class="cls-6" x1="1083.87" y1="993.01" x2="1232.6" y2="910.91"/><line class="cls-6" x1="919.74" y1="1083.62" x2="1083.87" y2="993.01"/><line class="cls-6" x1="1367.99" y1="836.18" x2="1491.76" y2="767.86"/><line class="cls-6" x1="1709.95" y1="647.41" x2="1806.61" y2="594.06"/><line class="cls-6" x1="1806.61" y1="594.06" x2="1896.18" y2="544.61"/><line class="cls-6" x1="1097.21" y1="836.18" x2="1232.6" y2="767.86"/><line class="cls-6" x1="606.88" y1="1083.62" x2="786.42" y2="993.01"/><line class="cls-6" x1="1232.6" y1="767.86" x2="1356.84" y2="705.15"/><line class="cls-6" x1="786.42" y1="993.01" x2="949.11" y2="910.91"/><line class="cls-6" x1="949.11" y1="910.91" x2="1097.21" y2="836.18"/><line class="cls-6" x1="1356.84" y1="705.15" x2="1471.27" y2="647.41"/><line class="cls-6" x1="1577" y1="594.06" x2="1674.99" y2="544.61"/><line class="cls-6" x1="1471.27" y1="647.41" x2="1577" y2="594.06"/><line class="cls-6" x1="1850.89" y1="455.84" x2="1930.14" y2="415.85"/><line class="cls-6" x1="1766.05" y1="498.66" x2="1850.89" y2="455.84"/><line class="cls-6" x1="1674.99" y1="544.61" x2="1766.05" y2="498.66"/><line class="cls-6" x1="973.44" y1="767.86" x2="1108.35" y2="705.15"/><line class="cls-6" x1="1347.4" y1="594.06" x2="1453.79" y2="544.61"/><line class="cls-6" x1="1644.79" y1="455.84" x2="1730.84" y2="415.85"/><line class="cls-6" x1="1108.35" y1="705.15" x2="1232.6" y2="647.41"/><line class="cls-6" x1="1453.79" y1="544.61" x2="1552.67" y2="498.66"/><line class="cls-6" x1="1552.67" y1="498.66" x2="1644.79" y2="455.84"/><line class="cls-6" x1="1232.6" y1="647.41" x2="1347.4" y2="594.06"/><line class="cls-6" x1="665.62" y1="910.91" x2="826.43" y2="836.18"/><line class="cls-6" x1="826.43" y1="836.18" x2="973.44" y2="767.86"/><line class="cls-6" x1="488.97" y1="993.01" x2="665.62" y2="910.91"/><line class="cls-6" x1="1886.95" y1="343.3" x2="1957.98" y2="310.29"/><line class="cls-6" x1="1811.39" y1="378.41" x2="1886.95" y2="343.3"/><line class="cls-6" x1="1730.84" y1="415.85" x2="1811.39" y2="378.41"/><line class="cls-6" x1="1699.99" y1="343.3" x2="1776.63" y2="310.29"/><line class="cls-6" x1="1531.54" y1="415.85" x2="1618.46" y2="378.41"/><line class="cls-6" x1="1916.89" y1="249.88" x2="1848.8" y2="279.2"/><line class="cls-6" x1="1618.46" y1="378.41" x2="1699.99" y2="343.3"/><line class="cls-6" x1="1776.63" y1="310.29" x2="1848.8" y2="279.2"/><line class="cls-6" x1="714.28" y1="767.86" x2="859.85" y2="705.15"/><line class="cls-6" x1="993.92" y1="647.41" x2="1117.79" y2="594.06"/><line class="cls-6" x1="1916.89" y1="249.88" x2="1981.22" y2="222.17"/><line class="cls-6" x1="555.65" y1="836.18" x2="714.28" y2="767.86"/><line class="cls-6" x1="382.13" y1="910.91" x2="555.65" y2="836.18"/><line class="cls-6" x1="1339.29" y1="498.66" x2="1438.69" y2="455.84"/><line class="cls-6" x1="1232.6" y1="544.61" x2="1339.29" y2="498.66"/><line class="cls-6" x1="1117.79" y1="594.06" x2="1232.6" y2="544.61"/><line class="cls-6" x1="1438.69" y1="455.84" x2="1531.54" y2="415.85"/><line class="cls-6" x1="859.85" y1="705.15" x2="993.92" y2="647.41"/><line class="cls-6" x1="284.87" y1="836.18" x2="455.12" y2="767.86"/><line class="cls-6" x1="455.12" y1="767.86" x2="611.35" y2="705.15"/><line class="cls-6" x1="611.35" y1="705.15" x2="755.24" y2="647.41"/><line class="cls-6" x1="1745.81" y1="249.88" x2="1814.86" y2="222.17"/><line class="cls-6" x1="1011.4" y1="544.61" x2="1125.91" y2="498.66"/><line class="cls-6" x1="1880.2" y1="195.95" x2="1814.86" y2="222.17"/><line class="cls-6" x1="1425.53" y1="378.41" x2="1513.04" y2="343.3"/><line class="cls-6" x1="1513.04" y1="343.3" x2="1595.29" y2="310.29"/><line class="cls-6" x1="1595.29" y1="310.29" x2="1672.74" y2="279.2"/><line class="cls-6" x1="1232.6" y1="455.84" x2="1332.24" y2="415.85"/><line class="cls-6" x1="1332.24" y1="415.85" x2="1425.53" y2="378.41"/><line class="cls-6" x1="888.19" y1="594.06" x2="1011.4" y2="544.61"/><line class="cls-6" x1="1942.13" y1="171.09" x2="1880.2" y2="195.95"/><line class="cls-6" x1="1745.81" y1="249.88" x2="1672.74" y2="279.2"/><line class="cls-6" x1="1125.91" y1="498.66" x2="1232.6" y2="455.84"/><line class="cls-6" x1="755.24" y1="647.41" x2="888.19" y2="594.06"/><line class="cls-6" x1="658.59" y1="594.06" x2="790.21" y2="544.61"/><line class="cls-6" x1="1132.95" y1="415.85" x2="1232.6" y2="378.41"/><line class="cls-6" x1="790.21" y1="544.61" x2="912.53" y2="498.66"/><line class="cls-6" x1="1026.5" y1="455.84" x2="1132.95" y2="415.85"/><line class="cls-6" x1="1574.74" y1="249.88" x2="1648.5" y2="222.17"/><line class="cls-6" x1="912.53" y1="498.66" x2="1026.5" y2="455.84"/><line class="cls-6" x1="516.56" y1="647.41" x2="658.59" y2="594.06"/><line class="cls-6" x1="1413.94" y1="310.29" x2="1496.69" y2="279.2"/><line class="cls-6" x1="1847.25" y1="147.5" x2="1784.46" y2="171.09"/><line class="cls-6" x1="1326.08" y1="343.3" x2="1413.94" y2="310.29"/><line class="cls-6" x1="1232.6" y1="378.41" x2="1326.08" y2="343.3"/><line class="cls-6" x1="362.86" y1="705.15" x2="516.56" y2="647.41"/><line class="cls-6" x1="195.96" y1="767.86" x2="362.86" y2="705.15"/><line class="cls-6" x1="1963.71" y1="103.75" x2="1906.92" y2="125.08"/><line class="cls-6" x1="1574.74" y1="249.88" x2="1496.69" y2="279.2"/><line class="cls-6" x1="1906.92" y1="125.08" x2="1847.25" y2="147.5"/><line class="cls-6" x1="1718.3" y1="195.95" x2="1648.5" y2="222.17"/><line class="cls-6" x1="1784.46" y1="171.09" x2="1718.3" y2="195.95"/><line class="cls-6" x1="1875.04" y1="83.43" x2="1817.49" y2="103.75"/><line class="cls-6" x1="1757.07" y1="125.08" x2="1693.58" y2="147.5"/><line class="cls-6" x1="114.36" y1="705.15" x2="277.89" y2="647.41"/><line class="cls-6" x1="1232.6" y1="310.29" x2="1320.63" y2="279.2"/><line class="cls-6" x1="1403.67" y1="249.88" x2="1320.63" y2="279.2"/><line class="cls-6" x1="1929.94" y1="64.04" x2="1875.04" y2="83.43"/><line class="cls-6" x1="699.15" y1="498.66" x2="820.4" y2="455.84"/><line class="cls-6" x1="277.89" y1="647.41" x2="428.98" y2="594.06"/><line class="cls-6" x1="1039.66" y1="378.41" x2="1139.12" y2="343.3"/><line class="cls-6" x1="1556.4" y1="195.95" x2="1482.14" y2="222.17"/><line class="cls-6" x1="1403.67" y1="249.88" x2="1482.14" y2="222.17"/><line class="cls-6" x1="428.98" y1="594.06" x2="569.01" y2="544.61"/><line class="cls-6" x1="1139.12" y1="343.3" x2="1232.6" y2="310.29"/><line class="cls-6" x1="820.4" y1="455.84" x2="933.65" y2="415.85"/><line class="cls-6" x1="1817.49" y1="103.75" x2="1757.07" y2="125.08"/><line class="cls-6" x1="569.01" y1="544.61" x2="699.15" y2="498.66"/><line class="cls-6" x1="1626.78" y1="171.09" x2="1556.4" y2="195.95"/><line class="cls-6" x1="1693.58" y1="147.5" x2="1626.78" y2="171.09"/><line class="cls-6" x1="933.65" y1="415.85" x2="1039.66" y2="378.41"/><line class="cls-6" x1="39.21" y1="647.41" x2="199.38" y2="594.06"/><line class="cls-6" x1="1394.5" y1="195.95" x2="1315.78" y2="222.17"/><line class="cls-6" x1="1232.6" y1="249.88" x2="1315.78" y2="222.17"/><line class="cls-6" x1="734.35" y1="415.85" x2="846.73" y2="378.41"/><line class="cls-6" x1="614.3" y1="455.84" x2="734.35" y2="415.85"/><line class="cls-6" x1="1790.47" y1="64.04" x2="1732.28" y2="83.43"/><line class="cls-6" x1="1469.11" y1="171.09" x2="1394.5" y2="195.95"/><line class="cls-6" x1="199.38" y1="594.06" x2="347.82" y2="544.61"/><line class="cls-6" x1="1607.22" y1="125.08" x2="1539.92" y2="147.5"/><line class="cls-6" x1="485.77" y1="498.66" x2="614.3" y2="455.84"/><line class="cls-6" x1="1732.28" y1="83.43" x2="1671.26" y2="103.75"/><line class="cls-6" x1="347.82" y1="544.61" x2="485.77" y2="498.66"/><line class="cls-6" x1="1846.04" y1="45.53" x2="1790.47" y2="64.04"/><line class="cls-6" x1="1671.26" y1="103.75" x2="1607.22" y2="125.08"/><line class="cls-6" x1="1899.16" y1="27.84" x2="1846.04" y2="45.53"/><line class="cls-6" x1="1051.25" y1="310.29" x2="1144.57" y2="279.2"/><line class="cls-6" x1="846.73" y1="378.41" x2="952.16" y2="343.3"/><line class="cls-6" x1="952.16" y1="343.3" x2="1051.25" y2="310.29"/><line class="cls-6" x1="1232.6" y1="249.88" x2="1144.57" y2="279.2"/><line class="cls-6" x1="1539.92" y1="147.5" x2="1469.11" y2="171.09"/><line class="cls-6" x1="1949.98" y1="10.91" x2="1899.16" y2="27.84"/><line class="cls-6" x1="869.9" y1="310.29" x2="968.51" y2="279.2"/><line class="cls-6" x1="408.2" y1="455.84" x2="535.05" y2="415.85"/><line class="cls-6" x1="1149.42" y1="222.17" x2="1061.52" y2="249.88"/><line class="cls-6" x1="1589.51" y1="83.43" x2="1525.04" y2="103.75"/><line class="cls-6" x1="1819.55" y1="10.91" x2="1765.85" y2="27.84"/><line class="cls-6" x1="126.62" y1="544.61" x2="272.38" y2="498.66"/><line class="cls-6" x1="1457.37" y1="125.08" x2="1386.26" y2="147.5"/><line class="cls-6" x1="1061.52" y1="249.88" x2="968.51" y2="279.2"/><line class="cls-6" x1="-30.22" y1="594.06" x2="126.62" y2="544.61"/><line class="cls-6" x1="653.8" y1="378.41" x2="765.2" y2="343.3"/><line class="cls-6" x1="1709.72" y1="45.53" x2="1651" y2="64.04"/><line class="cls-6" x1="1870.98" y1="-5.31" x2="1819.55" y2="10.91"/><line class="cls-6" x1="1525.04" y1="103.75" x2="1457.37" y2="125.08"/><line class="cls-6" x1="535.05" y1="415.85" x2="653.8" y2="378.41"/><line class="cls-6" x1="1765.85" y1="27.84" x2="1709.72" y2="45.53"/><line class="cls-6" x1="272.38" y1="498.66" x2="408.2" y2="455.84"/><line class="cls-6" x1="1232.6" y1="195.95" x2="1149.42" y2="222.17"/><line class="cls-6" x1="1651" y1="64.04" x2="1589.51" y2="83.43"/><line class="cls-6" x1="1386.26" y1="147.5" x2="1311.43" y2="171.09"/><line class="cls-6" x1="765.2" y1="343.3" x2="869.9" y2="310.29"/><line class="cls-6" x1="1311.43" y1="171.09" x2="1232.6" y2="195.95"/><line class="cls-6" x1="1378.82" y1="103.75" x2="1307.52" y2="125.08"/><line class="cls-6" x1="1689.11" y1="10.91" x2="1632.53" y2="27.84"/><line class="cls-6" x1="1511.53" y1="64.04" x2="1446.75" y2="83.43"/><line class="cls-6" x1="59.01" y1="498.66" x2="202.1" y2="455.84"/><line class="cls-6" x1="1743.3" y1="-5.31" x2="1689.11" y2="10.91"/><line class="cls-6" x1="1573.4" y1="45.53" x2="1511.53" y2="64.04"/><line class="cls-6" x1="202.1" y1="455.84" x2="335.75" y2="415.85"/><line class="cls-6" x1="890.45" y1="249.88" x2="792.45" y2="279.2"/><line class="cls-6" x1="460.87" y1="378.41" x2="578.24" y2="343.3"/><line class="cls-6" x1="1446.75" y1="83.43" x2="1378.82" y2="103.75"/><line class="cls-6" x1="335.75" y1="415.85" x2="460.87" y2="378.41"/><line class="cls-6" x1="688.56" y1="310.29" x2="792.45" y2="279.2"/><line class="cls-6" x1="578.24" y1="343.3" x2="688.56" y2="310.29"/><line class="cls-6" x1="983.05" y1="222.17" x2="890.45" y2="249.88"/><line class="cls-6" x1="-94.57" y1="544.61" x2="59.01" y2="498.66"/><line class="cls-6" x1="1632.53" y1="27.84" x2="1573.4" y2="45.53"/><line class="cls-6" x1="1307.52" y1="125.08" x2="1232.6" y2="147.5"/><line class="cls-6" x1="1070.69" y1="195.95" x2="983.05" y2="222.17"/><line class="cls-6" x1="1153.76" y1="171.09" x2="1070.69" y2="195.95"/><line class="cls-6" x1="1232.6" y1="147.5" x2="1153.76" y2="171.09"/><line class="cls-6" x1="1558.68" y1="10.91" x2="1499.22" y2="27.84"/><line class="cls-6" x1="908.79" y1="195.95" x2="816.69" y2="222.17"/><line class="cls-6" x1="1078.93" y1="147.5" x2="996.08" y2="171.09"/><line class="cls-6" x1="996.08" y1="171.09" x2="908.79" y2="195.95"/><line class="cls-6" x1="816.69" y1="222.17" x2="719.38" y2="249.88"/><line class="cls-6" x1="1232.6" y1="103.75" x2="1157.67" y2="125.08"/><line class="cls-6" x1="1303.98" y1="83.43" x2="1232.6" y2="103.75"/><line class="cls-6" x1="719.38" y1="249.88" x2="616.39" y2="279.2"/><line class="cls-6" x1="1157.67" y1="125.08" x2="1078.93" y2="147.5"/><line class="cls-6" x1="1437.08" y1="45.53" x2="1372.07" y2="64.04"/><line class="cls-6" x1="136.46" y1="415.85" x2="267.94" y2="378.41"/><line class="cls-6" x1="1499.22" y1="27.84" x2="1437.08" y2="45.53"/><line class="cls-6" x1="1615.62" y1="-5.31" x2="1558.68" y2="10.91"/><line class="cls-6" x1="267.94" y1="378.41" x2="391.28" y2="343.3"/><line class="cls-6" x1="391.28" y1="343.3" x2="507.21" y2="310.29"/><line class="cls-6" x1="507.21" y1="310.29" x2="616.39" y2="279.2"/><line class="cls-6" x1="-4" y1="455.84" x2="136.46" y2="415.85"/><line class="cls-6" x1="1372.07" y1="64.04" x2="1303.98" y2="83.43"/><line class="cls-6" x1="925.27" y1="147.5" x2="838.41" y2="171.09"/><line class="cls-6" x1="1232.6" y1="64.04" x2="1161.21" y2="83.43"/><line class="cls-6" x1="1161.21" y1="83.43" x2="1086.37" y2="103.75"/><line class="cls-6" x1="1007.82" y1="125.08" x2="925.27" y2="147.5"/><line class="cls-6" x1="1086.37" y1="103.75" x2="1007.82" y2="125.08"/><line class="cls-6" x1="75.01" y1="378.41" x2="204.32" y2="343.3"/><line class="cls-6" x1="1300.76" y1="45.53" x2="1232.6" y2="64.04"/><line class="cls-6" x1="1365.91" y1="27.84" x2="1300.76" y2="45.53"/><line class="cls-6" x1="-62.84" y1="415.85" x2="75.01" y2="378.41"/><line class="cls-6" x1="1428.25" y1="10.91" x2="1365.91" y2="27.84"/><line class="cls-6" x1="204.32" y1="343.3" x2="325.87" y2="310.29"/><line class="cls-6" x1="838.41" y1="171.09" x2="746.89" y2="195.95"/><line class="cls-6" x1="325.87" y1="310.29" x2="440.33" y2="279.2"/><line class="cls-6" x1="746.89" y1="195.95" x2="650.33" y2="222.17"/><line class="cls-6" x1="650.33" y1="222.17" x2="548.3" y2="249.88"/><line class="cls-6" x1="548.3" y1="249.88" x2="440.33" y2="279.2"/><line class="cls-6" x1="1487.95" y1="-5.31" x2="1428.25" y2="10.91"/><line class="cls-6" x1="-117.93" y1="378.41" x2="17.36" y2="343.3"/><line class="cls-6" x1="17.36" y1="343.3" x2="144.52" y2="310.29"/><line class="cls-6" x1="771.61" y1="147.5" x2="680.73" y2="171.09"/><line class="cls-6" x1="680.73" y1="171.09" x2="584.99" y2="195.95"/><line class="cls-6" x1="584.99" y1="195.95" x2="483.97" y2="222.17"/><line class="cls-6" x1="857.97" y1="125.08" x2="771.61" y2="147.5"/><line class="cls-6" x1="377.23" y1="249.88" x2="264.27" y2="279.2"/><line class="cls-6" x1="144.52" y1="310.29" x2="264.27" y2="279.2"/><line class="cls-6" x1="483.97" y1="222.17" x2="377.23" y2="249.88"/><line class="cls-6" x1="1018.45" y1="83.43" x2="940.15" y2="103.75"/><line class="cls-6" x1="1360.27" y1="-5.31" x2="1297.81" y2="10.91"/><line class="cls-6" x1="1164.44" y1="45.53" x2="1093.13" y2="64.04"/><line class="cls-6" x1="1232.6" y1="27.84" x2="1164.44" y2="45.53"/><line class="cls-6" x1="1297.81" y1="10.91" x2="1232.6" y2="27.84"/><line class="cls-6" x1="940.15" y1="103.75" x2="857.97" y2="125.08"/><line class="cls-6" x1="1093.13" y1="64.04" x2="1018.45" y2="83.43"/><line class="cls-6" x1="206.16" y1="249.88" x2="88.21" y2="279.2"/><line class="cls-6" x1="317.61" y1="222.17" x2="206.16" y2="249.88"/><line class="cls-6" x1="-36.83" y1="310.29" x2="88.21" y2="279.2"/><line class="cls-6" x1="523.06" y1="171.09" x2="423.09" y2="195.95"/><line class="cls-6" x1="875.68" y1="83.43" x2="793.93" y2="103.75"/><line class="cls-6" x1="953.66" y1="64.04" x2="875.68" y2="83.43"/><line class="cls-6" x1="793.93" y1="103.75" x2="708.12" y2="125.08"/><line class="cls-6" x1="617.94" y1="147.5" x2="523.06" y2="171.09"/><line class="cls-6" x1="708.12" y1="125.08" x2="617.94" y2="147.5"/><line class="cls-6" x1="1099.28" y1="27.84" x2="1028.11" y2="45.53"/><line class="cls-6" x1="1167.38" y1="10.91" x2="1099.28" y2="27.84"/><line class="cls-6" x1="1232.6" y1="-5.31" x2="1167.38" y2="10.91"/><line class="cls-6" x1="423.09" y1="195.95" x2="317.61" y2="222.17"/><line class="cls-6" x1="1028.11" y1="45.53" x2="953.66" y2="64.04"/><line class="cls-6" x1="814.19" y1="64.04" x2="732.91" y2="83.43"/><line class="cls-6" x1="732.91" y1="83.43" x2="647.71" y2="103.75"/><line class="cls-6" x1="261.19" y1="195.95" x2="151.25" y2="222.17"/><line class="cls-6" x1="558.27" y1="125.08" x2="464.28" y2="147.5"/><line class="cls-6" x1="464.28" y1="147.5" x2="365.39" y2="171.09"/><line class="cls-6" x1="365.39" y1="171.09" x2="261.19" y2="195.95"/><line class="cls-6" x1="151.25" y1="222.17" x2="35.09" y2="249.88"/><line class="cls-6" x1="647.71" y1="103.75" x2="558.27" y2="125.08"/><line class="cls-6" x1="35.09" y1="249.88" x2="-87.85" y2="279.2"/><line class="cls-6" x1="1104.92" y1="-5.31" x2="1036.95" y2="10.91"/><line class="cls-6" x1="891.79" y1="45.53" x2="814.19" y2="64.04"/><line class="cls-6" x1="965.97" y1="27.84" x2="891.79" y2="45.53"/><line class="cls-6" x1="1036.95" y1="10.91" x2="965.97" y2="27.84"/><line class="cls-6" x1="99.29" y1="195.95" x2="-15.11" y2="222.17"/><line class="cls-6" x1="310.62" y1="147.5" x2="207.71" y2="171.09"/><line class="cls-6" x1="674.72" y1="64.04" x2="590.15" y2="83.43"/><line class="cls-6" x1="207.71" y1="171.09" x2="99.29" y2="195.95"/><line class="cls-6" x1="906.51" y1="10.91" x2="832.66" y2="27.84"/><line class="cls-6" x1="590.15" y1="83.43" x2="501.48" y2="103.75"/><line class="cls-6" x1="755.47" y1="45.53" x2="674.72" y2="64.04"/><line class="cls-6" x1="501.48" y1="103.75" x2="408.42" y2="125.08"/><line class="cls-6" x1="832.66" y1="27.84" x2="755.47" y2="45.53"/><line class="cls-6" x1="408.42" y1="125.08" x2="310.62" y2="147.5"/><line class="cls-6" x1="977.24" y1="-5.31" x2="906.51" y2="10.91"/><line class="cls-6" x1="355.26" y1="103.75" x2="258.57" y2="125.08"/><line class="cls-6" x1="699.35" y1="27.84" x2="619.15" y2="45.53"/><line class="cls-6" x1="776.08" y1="10.91" x2="699.35" y2="27.84"/><line class="cls-6" x1="849.57" y1="-5.31" x2="776.08" y2="10.91"/><line class="cls-6" x1="447.38" y1="83.43" x2="355.26" y2="103.75"/><line class="cls-6" x1="619.15" y1="45.53" x2="535.25" y2="64.04"/><line class="cls-6" x1="50.04" y1="171.09" x2="-62.61" y2="195.95"/><line class="cls-6" x1="258.57" y1="125.08" x2="156.95" y2="147.5"/><line class="cls-6" x1="535.25" y1="64.04" x2="447.38" y2="83.43"/><line class="cls-6" x1="156.95" y1="147.5" x2="50.04" y2="171.09"/><line class="cls-6" x1="395.78" y1="64.04" x2="304.62" y2="83.43"/><line class="cls-6" x1="482.83" y1="45.53" x2="395.78" y2="64.04"/><line class="cls-6" x1="108.72" y1="125.08" x2="3.29" y2="147.5"/><line class="cls-6" x1="209.04" y1="103.75" x2="108.72" y2="125.08"/><line class="cls-6" x1="721.89" y1="-5.31" x2="645.64" y2="10.91"/><line class="cls-6" x1="645.64" y1="10.91" x2="566.03" y2="27.84"/><line class="cls-6" x1="-107.64" y1="171.09" x2="3.29" y2="147.5"/><line class="cls-6" x1="482.83" y1="45.53" x2="566.03" y2="27.84"/><line class="cls-6" x1="209.04" y1="103.75" x2="304.62" y2="83.43"/><line class="cls-6" x1="1819.55" y1="10.91" x2="1899.16" y2="27.84"/><line class="cls-6" x1="1982.36" y1="45.53" x2="1899.16" y2="27.84"/><line class="cls-6" x1="1819.55" y1="10.91" x2="1743.3" y2="-5.31"/><line class="cls-6" x1="1846.04" y1="45.53" x2="1765.85" y2="27.84"/><line class="cls-6" x1="1929.94" y1="64.04" x2="1846.04" y2="45.53"/><line class="cls-6" x1="1765.85" y1="27.84" x2="1689.11" y2="10.91"/><line class="cls-6" x1="1689.11" y1="10.91" x2="1615.62" y2="-5.31"/><line class="cls-6" x1="1963.71" y1="103.75" x2="1875.04" y2="83.43"/><line class="cls-6" x1="1632.53" y1="27.84" x2="1558.68" y2="10.91"/><line class="cls-6" x1="1558.68" y1="10.91" x2="1487.95" y2="-5.31"/><line class="cls-6" x1="1790.47" y1="64.04" x2="1709.72" y2="45.53"/><line class="cls-6" x1="1709.72" y1="45.53" x2="1632.53" y2="27.84"/><line class="cls-6" x1="1875.04" y1="83.43" x2="1790.47" y2="64.04"/><line class="cls-6" x1="1906.92" y1="125.08" x2="1817.49" y2="103.75"/><line class="cls-6" x1="2000.91" y1="147.5" x2="1906.92" y2="125.08"/><line class="cls-6" x1="1573.4" y1="45.53" x2="1499.22" y2="27.84"/><line class="cls-6" x1="1499.22" y1="27.84" x2="1428.25" y2="10.91"/><line class="cls-6" x1="1651" y1="64.04" x2="1573.4" y2="45.53"/><line class="cls-6" x1="1428.25" y1="10.91" x2="1360.27" y2="-5.31"/><line class="cls-6" x1="1732.28" y1="83.43" x2="1651" y2="64.04"/><line class="cls-6" x1="1817.49" y1="103.75" x2="1732.28" y2="83.43"/><line class="cls-6" x1="1437.08" y1="45.53" x2="1365.91" y2="27.84"/><line class="cls-6" x1="1297.81" y1="10.91" x2="1232.6" y2="-5.31"/><line class="cls-6" x1="1757.07" y1="125.08" x2="1671.26" y2="103.75"/><line class="cls-6" x1="1511.53" y1="64.04" x2="1437.08" y2="45.53"/><line class="cls-6" x1="1671.26" y1="103.75" x2="1589.51" y2="83.43"/><line class="cls-6" x1="1589.51" y1="83.43" x2="1511.53" y2="64.04"/><line class="cls-6" x1="1365.91" y1="27.84" x2="1297.81" y2="10.91"/><line class="cls-6" x1="1847.25" y1="147.5" x2="1757.07" y2="125.08"/><line class="cls-6" x1="1942.13" y1="171.09" x2="1847.25" y2="147.5"/><line class="cls-6" x1="1525.04" y1="103.75" x2="1446.75" y2="83.43"/><line class="cls-6" x1="1300.76" y1="45.53" x2="1232.6" y2="27.84"/><line class="cls-6" x1="1372.07" y1="64.04" x2="1300.76" y2="45.53"/><line class="cls-6" x1="1104.92" y1="-5.31" x2="1167.38" y2="10.91"/><line class="cls-6" x1="1167.38" y1="10.91" x2="1232.6" y2="27.84"/><line class="cls-6" x1="1446.75" y1="83.43" x2="1372.07" y2="64.04"/><line class="cls-6" x1="1981.22" y1="222.17" x2="1880.2" y2="195.95"/><line class="cls-6" x1="1693.58" y1="147.5" x2="1607.22" y2="125.08"/><line class="cls-6" x1="1784.46" y1="171.09" x2="1693.58" y2="147.5"/><line class="cls-6" x1="1880.2" y1="195.95" x2="1784.46" y2="171.09"/><line class="cls-6" x1="1607.22" y1="125.08" x2="1525.04" y2="103.75"/><line class="cls-6" x1="1626.78" y1="171.09" x2="1539.92" y2="147.5"/><line class="cls-6" x1="1718.3" y1="195.95" x2="1626.78" y2="171.09"/><line class="cls-6" x1="1814.86" y1="222.17" x2="1718.3" y2="195.95"/><line class="cls-6" x1="1916.89" y1="249.88" x2="1814.86" y2="222.17"/><line class="cls-6" x1="1539.92" y1="147.5" x2="1457.37" y2="125.08"/><line class="cls-6" x1="977.24" y1="-5.31" x2="1036.95" y2="10.91"/><line class="cls-6" x1="2024.86" y1="279.2" x2="1916.89" y2="249.88"/><line class="cls-6" x1="1099.28" y1="27.84" x2="1164.44" y2="45.53"/><line class="cls-6" x1="1378.82" y1="103.75" x2="1303.98" y2="83.43"/><line class="cls-6" x1="1303.98" y1="83.43" x2="1232.6" y2="64.04"/><line class="cls-6" x1="1164.44" y1="45.53" x2="1232.6" y2="64.04"/><line class="cls-6" x1="1036.95" y1="10.91" x2="1099.28" y2="27.84"/><line class="cls-6" x1="1457.37" y1="125.08" x2="1378.82" y2="103.75"/><line class="cls-6" x1="1028.11" y1="45.53" x2="1093.13" y2="64.04"/><line class="cls-6" x1="1093.13" y1="64.04" x2="1161.21" y2="83.43"/><line class="cls-6" x1="906.51" y1="10.91" x2="965.97" y2="27.84"/><line class="cls-6" x1="849.57" y1="-5.31" x2="906.51" y2="10.91"/><line class="cls-6" x1="1469.11" y1="171.09" x2="1386.26" y2="147.5"/><line class="cls-6" x1="1161.21" y1="83.43" x2="1232.6" y2="103.75"/><line class="cls-6" x1="965.97" y1="27.84" x2="1028.11" y2="45.53"/><line class="cls-6" x1="1648.5" y1="222.17" x2="1556.4" y2="195.95"/><line class="cls-6" x1="1307.52" y1="125.08" x2="1232.6" y2="103.75"/><line class="cls-6" x1="1556.4" y1="195.95" x2="1469.11" y2="171.09"/><line class="cls-6" x1="1386.26" y1="147.5" x2="1307.52" y2="125.08"/><line class="cls-6" x1="1745.81" y1="249.88" x2="1648.5" y2="222.17"/><line class="cls-6" x1="1957.98" y1="310.29" x2="1848.8" y2="279.2"/><line class="cls-6" x1="1848.8" y1="279.2" x2="1745.81" y2="249.88"/><line class="cls-6" x1="1574.74" y1="249.88" x2="1482.14" y2="222.17"/><line class="cls-6" x1="1776.63" y1="310.29" x2="1672.74" y2="279.2"/><line class="cls-6" x1="2004.32" y1="378.41" x2="1886.95" y2="343.3"/><line class="cls-6" x1="776.08" y1="10.91" x2="832.66" y2="27.84"/><line class="cls-6" x1="721.89" y1="-5.31" x2="776.08" y2="10.91"/><line class="cls-6" x1="1311.43" y1="171.09" x2="1232.6" y2="147.5"/><line class="cls-6" x1="1157.67" y1="125.08" x2="1232.6" y2="147.5"/><line class="cls-6" x1="1482.14" y1="222.17" x2="1394.5" y2="195.95"/><line class="cls-6" x1="1672.74" y1="279.2" x2="1574.74" y2="249.88"/><line class="cls-6" x1="1394.5" y1="195.95" x2="1311.43" y2="171.09"/><line class="cls-6" x1="1086.37" y1="103.75" x2="1157.67" y2="125.08"/><line class="cls-6" x1="1886.95" y1="343.3" x2="1776.63" y2="310.29"/><line class="cls-6" x1="891.79" y1="45.53" x2="953.66" y2="64.04"/><line class="cls-6" x1="1018.45" y1="83.43" x2="1086.37" y2="103.75"/><line class="cls-6" x1="953.66" y1="64.04" x2="1018.45" y2="83.43"/><line class="cls-6" x1="832.66" y1="27.84" x2="891.79" y2="45.53"/><line class="cls-6" x1="594.21" y1="-5.31" x2="645.64" y2="10.91"/><line class="cls-6" x1="1930.14" y1="415.85" x2="1811.39" y2="378.41"/><line class="cls-6" x1="1699.99" y1="343.3" x2="1595.29" y2="310.29"/><line class="cls-6" x1="1007.82" y1="125.08" x2="1078.93" y2="147.5"/><line class="cls-6" x1="940.15" y1="103.75" x2="1007.82" y2="125.08"/><line class="cls-6" x1="1811.39" y1="378.41" x2="1699.99" y2="343.3"/><line class="cls-6" x1="699.35" y1="27.84" x2="755.47" y2="45.53"/><line class="cls-6" x1="1595.29" y1="310.29" x2="1496.69" y2="279.2"/><line class="cls-6" x1="1496.69" y1="279.2" x2="1403.67" y2="249.88"/><line class="cls-6" x1="1403.67" y1="249.88" x2="1315.78" y2="222.17"/><line class="cls-6" x1="1315.78" y1="222.17" x2="1232.6" y2="195.95"/><line class="cls-6" x1="875.68" y1="83.43" x2="940.15" y2="103.75"/><line class="cls-6" x1="755.47" y1="45.53" x2="814.19" y2="64.04"/><line class="cls-6" x1="645.64" y1="10.91" x2="699.35" y2="27.84"/><line class="cls-6" x1="814.19" y1="64.04" x2="875.68" y2="83.43"/><line class="cls-6" x1="1078.93" y1="147.5" x2="1153.76" y2="171.09"/><line class="cls-6" x1="1153.76" y1="171.09" x2="1232.6" y2="195.95"/><line class="cls-6" x1="566.03" y1="27.84" x2="619.15" y2="45.53"/><line class="cls-6" x1="1070.69" y1="195.95" x2="1149.42" y2="222.17"/><line class="cls-6" x1="619.15" y1="45.53" x2="674.72" y2="64.04"/><line class="cls-6" x1="1413.94" y1="310.29" x2="1320.63" y2="279.2"/><line class="cls-6" x1="1850.89" y1="455.84" x2="1730.84" y2="415.85"/><line class="cls-6" x1="1513.04" y1="343.3" x2="1413.94" y2="310.29"/><line class="cls-6" x1="1320.63" y1="279.2" x2="1232.6" y2="249.88"/><line class="cls-6" x1="674.72" y1="64.04" x2="732.91" y2="83.43"/><line class="cls-6" x1="857.97" y1="125.08" x2="925.27" y2="147.5"/><line class="cls-6" x1="925.27" y1="147.5" x2="996.08" y2="171.09"/><line class="cls-6" x1="793.93" y1="103.75" x2="857.97" y2="125.08"/><line class="cls-6" x1="1730.84" y1="415.85" x2="1618.46" y2="378.41"/><line class="cls-6" x1="1618.46" y1="378.41" x2="1513.04" y2="343.3"/><line class="cls-6" x1="566.03" y1="27.84" x2="515.21" y2="10.91"/><line class="cls-6" x1="996.08" y1="171.09" x2="1070.69" y2="195.95"/><line class="cls-6" x1="1979.43" y1="498.66" x2="1850.89" y2="455.84"/><line class="cls-6" x1="1149.42" y1="222.17" x2="1232.6" y2="249.88"/><line class="cls-6" x1="732.91" y1="83.43" x2="793.93" y2="103.75"/><line class="cls-6" x1="708.12" y1="125.08" x2="771.61" y2="147.5"/><line class="cls-6" x1="908.79" y1="195.95" x2="983.05" y2="222.17"/><line class="cls-6" x1="838.41" y1="171.09" x2="908.79" y2="195.95"/><line class="cls-6" x1="590.15" y1="83.43" x2="647.71" y2="103.75"/><line class="cls-6" x1="647.71" y1="103.75" x2="708.12" y2="125.08"/><line class="cls-6" x1="1644.79" y1="455.84" x2="1531.54" y2="415.85"/><line class="cls-6" x1="1896.18" y1="544.61" x2="1766.05" y2="498.66"/><line class="cls-6" x1="1144.57" y1="279.2" x2="1232.6" y2="310.29"/><line class="cls-6" x1="983.05" y1="222.17" x2="1061.52" y2="249.88"/><line class="cls-6" x1="1326.08" y1="343.3" x2="1232.6" y2="310.29"/><line class="cls-6" x1="1531.54" y1="415.85" x2="1425.53" y2="378.41"/><line class="cls-6" x1="432.72" y1="27.84" x2="482.83" y2="45.53"/><line class="cls-6" x1="1766.05" y1="498.66" x2="1644.79" y2="455.84"/><line class="cls-6" x1="1061.52" y1="249.88" x2="1144.57" y2="279.2"/><line class="cls-6" x1="771.61" y1="147.5" x2="838.41" y2="171.09"/><line class="cls-6" x1="2036.21" y1="594.06" x2="1896.18" y2="544.61"/><line class="cls-6" x1="535.25" y1="64.04" x2="590.15" y2="83.43"/><line class="cls-6" x1="1425.53" y1="378.41" x2="1326.08" y2="343.3"/><line class="cls-6" x1="482.83" y1="45.53" x2="535.25" y2="64.04"/><line class="cls-6" x1="1332.24" y1="415.85" x2="1232.6" y2="378.41"/><line class="cls-6" x1="1438.69" y1="455.84" x2="1332.24" y2="415.85"/><line class="cls-6" x1="1051.25" y1="310.29" x2="1139.12" y2="343.3"/><line class="cls-6" x1="395.78" y1="64.04" x2="447.38" y2="83.43"/><line class="cls-6" x1="1674.99" y1="544.61" x2="1552.67" y2="498.66"/><line class="cls-6" x1="746.89" y1="195.95" x2="816.69" y2="222.17"/><line class="cls-6" x1="1552.67" y1="498.66" x2="1438.69" y2="455.84"/><line class="cls-6" x1="1806.61" y1="594.06" x2="1674.99" y2="544.61"/><line class="cls-6" x1="447.38" y1="83.43" x2="501.48" y2="103.75"/><line class="cls-6" x1="1948.63" y1="647.41" x2="1806.61" y2="594.06"/><line class="cls-6" x1="346.51" y1="45.53" x2="395.78" y2="64.04"/><line class="cls-6" x1="890.45" y1="249.88" x2="968.51" y2="279.2"/><line class="cls-6" x1="1139.12" y1="343.3" x2="1232.6" y2="378.41"/><line class="cls-6" x1="501.48" y1="103.75" x2="558.27" y2="125.08"/><line class="cls-6" x1="680.73" y1="171.09" x2="746.89" y2="195.95"/><line class="cls-6" x1="558.27" y1="125.08" x2="617.94" y2="147.5"/><line class="cls-6" x1="617.94" y1="147.5" x2="680.73" y2="171.09"/><line class="cls-6" x1="816.69" y1="222.17" x2="890.45" y2="249.88"/><line class="cls-6" x1="968.51" y1="279.2" x2="1051.25" y2="310.29"/><line class="cls-6" x1="792.45" y1="279.2" x2="869.9" y2="310.29"/><line class="cls-6" x1="650.33" y1="222.17" x2="719.38" y2="249.88"/><line class="cls-6" x1="1453.79" y1="544.61" x2="1339.29" y2="498.66"/><line class="cls-6" x1="719.38" y1="249.88" x2="792.45" y2="279.2"/><line class="cls-6" x1="355.26" y1="103.75" x2="408.42" y2="125.08"/><line class="cls-6" x1="1577" y1="594.06" x2="1453.79" y2="544.61"/><line class="cls-6" x1="464.28" y1="147.5" x2="523.06" y2="171.09"/><line class="cls-6" x1="1339.29" y1="498.66" x2="1232.6" y2="455.84"/><line class="cls-6" x1="1132.95" y1="415.85" x2="1232.6" y2="455.84"/><line class="cls-6" x1="1709.95" y1="647.41" x2="1577" y2="594.06"/><line class="cls-6" x1="2010.08" y1="767.86" x2="1853.84" y2="705.15"/><line class="cls-6" x1="523.06" y1="171.09" x2="584.99" y2="195.95"/><line class="cls-6" x1="584.99" y1="195.95" x2="650.33" y2="222.17"/><line class="cls-6" x1="1853.84" y1="705.15" x2="1709.95" y2="647.41"/><line class="cls-6" x1="304.62" y1="83.43" x2="256.31" y2="64.04"/><line class="cls-6" x1="304.62" y1="83.43" x2="355.26" y2="103.75"/><line class="cls-6" x1="869.9" y1="310.29" x2="952.16" y2="343.3"/><line class="cls-6" x1="408.42" y1="125.08" x2="464.28" y2="147.5"/><line class="cls-6" x1="952.16" y1="343.3" x2="1039.66" y2="378.41"/><line class="cls-6" x1="1039.66" y1="378.41" x2="1132.95" y2="415.85"/><line class="cls-6" x1="616.39" y1="279.2" x2="688.56" y2="310.29"/><line class="cls-6" x1="161.85" y1="83.43" x2="209.04" y2="103.75"/><line class="cls-6" x1="548.3" y1="249.88" x2="616.39" y2="279.2"/><line class="cls-6" x1="2083.06" y1="910.91" x2="1909.54" y2="836.18"/><line class="cls-6" x1="1909.54" y1="836.18" x2="1750.92" y2="767.86"/><line class="cls-6" x1="483.97" y1="222.17" x2="548.3" y2="249.88"/><line class="cls-6" x1="423.09" y1="195.95" x2="483.97" y2="222.17"/><line class="cls-6" x1="310.62" y1="147.5" x2="365.39" y2="171.09"/><line class="cls-6" x1="1750.92" y1="767.86" x2="1605.34" y2="705.15"/><line class="cls-6" x1="365.39" y1="171.09" x2="423.09" y2="195.95"/><line class="cls-6" x1="1471.27" y1="647.41" x2="1347.4" y2="594.06"/><line class="cls-6" x1="258.57" y1="125.08" x2="310.62" y2="147.5"/><line class="cls-6" x1="933.65" y1="415.85" x2="1026.5" y2="455.84"/><line class="cls-6" x1="846.73" y1="378.41" x2="933.65" y2="415.85"/><line class="cls-6" x1="1605.34" y1="705.15" x2="1471.27" y2="647.41"/><line class="cls-6" x1="209.04" y1="103.75" x2="258.57" y2="125.08"/><line class="cls-6" x1="688.56" y1="310.29" x2="765.2" y2="343.3"/><line class="cls-6" x1="765.2" y1="343.3" x2="846.73" y2="378.41"/><line class="cls-6" x1="1125.91" y1="498.66" x2="1232.6" y2="544.61"/><line class="cls-6" x1="1347.4" y1="594.06" x2="1232.6" y2="544.61"/><line class="cls-6" x1="1026.5" y1="455.84" x2="1125.91" y2="498.66"/><line class="cls-6" x1="1638.76" y1="836.18" x2="1491.76" y2="767.86"/><line class="cls-6" x1="261.19" y1="195.95" x2="317.61" y2="222.17"/><line class="cls-6" x1="108.72" y1="125.08" x2="156.95" y2="147.5"/><line class="cls-6" x1="1491.76" y1="767.86" x2="1356.84" y2="705.15"/><line class="cls-6" x1="653.8" y1="378.41" x2="734.35" y2="415.85"/><line class="cls-6" x1="820.4" y1="455.84" x2="912.53" y2="498.66"/><line class="cls-6" x1="912.53" y1="498.66" x2="1011.4" y2="544.61"/><line class="cls-6" x1="734.35" y1="415.85" x2="820.4" y2="455.84"/><line class="cls-6" x1="1011.4" y1="544.61" x2="1117.79" y2="594.06"/><line class="cls-6" x1="1356.84" y1="705.15" x2="1232.6" y2="647.41"/><line class="cls-6" x1="156.95" y1="147.5" x2="207.71" y2="171.09"/><line class="cls-6" x1="62.81" y1="103.75" x2="108.72" y2="125.08"/><line class="cls-6" x1="1117.79" y1="594.06" x2="1232.6" y2="647.41"/><line class="cls-6" x1="578.24" y1="343.3" x2="653.8" y2="378.41"/><line class="cls-6" x1="207.71" y1="171.09" x2="261.19" y2="195.95"/><line class="cls-6" x1="1976.22" y1="993.01" x2="1799.57" y2="910.91"/><line class="cls-6" x1="1799.57" y1="910.91" x2="1638.76" y2="836.18"/><line class="cls-6" x1="317.61" y1="222.17" x2="377.23" y2="249.88"/><line class="cls-6" x1="507.21" y1="310.29" x2="578.24" y2="343.3"/><line class="cls-6" x1="377.23" y1="249.88" x2="440.33" y2="279.2"/><line class="cls-6" x1="440.33" y1="279.2" x2="507.21" y2="310.29"/><line class="cls-6" x1="1367.99" y1="836.18" x2="1232.6" y2="767.86"/><line class="cls-6" x1="3.29" y1="147.5" x2="-41.13" y2="125.08"/><line class="cls-6" x1="1858.31" y1="1083.62" x2="1678.77" y2="993.01"/><line class="cls-6" x1="3.29" y1="147.5" x2="50.04" y2="171.09"/><line class="cls-6" x1="151.25" y1="222.17" x2="206.16" y2="249.88"/><line class="cls-6" x1="993.92" y1="647.41" x2="1108.35" y2="705.15"/><line class="cls-6" x1="1108.35" y1="705.15" x2="1232.6" y2="767.86"/><line class="cls-6" x1="206.16" y1="249.88" x2="264.27" y2="279.2"/><line class="cls-6" x1="50.04" y1="171.09" x2="99.29" y2="195.95"/><line class="cls-6" x1="99.29" y1="195.95" x2="151.25" y2="222.17"/><line class="cls-6" x1="1678.77" y1="993.01" x2="1516.08" y2="910.91"/><line class="cls-6" x1="1516.08" y1="910.91" x2="1367.99" y2="836.18"/><line class="cls-6" x1="460.87" y1="378.41" x2="535.05" y2="415.85"/><line class="cls-6" x1="391.28" y1="343.3" x2="460.87" y2="378.41"/><line class="cls-6" x1="264.27" y1="279.2" x2="325.87" y2="310.29"/><line class="cls-6" x1="535.05" y1="415.85" x2="614.3" y2="455.84"/><line class="cls-6" x1="325.87" y1="310.29" x2="391.28" y2="343.3"/><line class="cls-6" x1="790.21" y1="544.61" x2="888.19" y2="594.06"/><line class="cls-6" x1="699.15" y1="498.66" x2="790.21" y2="544.61"/><line class="cls-6" x1="888.19" y1="594.06" x2="993.92" y2="647.41"/><line class="cls-6" x1="614.3" y1="455.84" x2="699.15" y2="498.66"/><line class="cls-6" x1="1545.45" y1="1083.62" x2="1381.32" y2="993.01"/><line class="cls-6" x1="1381.32" y1="993.01" x2="1232.6" y2="910.91"/><line class="cls-6" x1="-15.11" y1="222.17" x2="35.09" y2="249.88"/><line class="cls-6" x1="35.09" y1="249.88" x2="88.21" y2="279.2"/><line class="cls-6" x1="1097.21" y1="836.18" x2="1232.6" y2="910.91"/><line class="cls-6" x1="408.2" y1="455.84" x2="485.77" y2="498.66"/><line class="cls-6" x1="569.01" y1="544.61" x2="658.59" y2="594.06"/><line class="cls-6" x1="658.59" y1="594.06" x2="755.24" y2="647.41"/><line class="cls-6" x1="485.77" y1="498.66" x2="569.01" y2="544.61"/><line class="cls-6" x1="335.75" y1="415.85" x2="408.2" y2="455.84"/><line class="cls-6" x1="88.21" y1="279.2" x2="144.52" y2="310.29"/><line class="cls-6" x1="267.94" y1="378.41" x2="335.75" y2="415.85"/><line class="cls-6" x1="204.32" y1="343.3" x2="267.94" y2="378.41"/><line class="cls-6" x1="144.52" y1="310.29" x2="204.32" y2="343.3"/><line class="cls-6" x1="755.24" y1="647.41" x2="859.85" y2="705.15"/><line class="cls-6" x1="859.85" y1="705.15" x2="973.44" y2="767.86"/><line class="cls-6" x1="973.44" y1="767.86" x2="1097.21" y2="836.18"/><line class="cls-6" x1="75.01" y1="378.41" x2="136.46" y2="415.85"/><line class="cls-6" x1="17.36" y1="343.3" x2="75.01" y2="378.41"/><line class="cls-6" x1="-36.83" y1="310.29" x2="17.36" y2="343.3"/><line class="cls-6" x1="1083.87" y1="993.01" x2="1232.6" y2="1083.62"/><line class="cls-6" x1="611.35" y1="705.15" x2="714.28" y2="767.86"/><line class="cls-6" x1="714.28" y1="767.86" x2="826.43" y2="836.18"/><line class="cls-6" x1="826.43" y1="836.18" x2="949.11" y2="910.91"/><line class="cls-6" x1="136.46" y1="415.85" x2="202.1" y2="455.84"/><line class="cls-6" x1="428.98" y1="594.06" x2="516.56" y2="647.41"/><line class="cls-6" x1="516.56" y1="647.41" x2="611.35" y2="705.15"/><line class="cls-6" x1="949.11" y1="910.91" x2="1083.87" y2="993.01"/><line class="cls-6" x1="202.1" y1="455.84" x2="272.38" y2="498.66"/><line class="cls-6" x1="272.38" y1="498.66" x2="347.82" y2="544.61"/><line class="cls-6" x1="347.82" y1="544.61" x2="428.98" y2="594.06"/><line class="cls-6" x1="786.42" y1="993.01" x2="919.74" y2="1083.62"/><line class="cls-6" x1="-4" y1="455.84" x2="59.01" y2="498.66"/><line class="cls-6" x1="59.01" y1="498.66" x2="126.62" y2="544.61"/><line class="cls-6" x1="362.86" y1="705.15" x2="455.12" y2="767.86"/><line class="cls-6" x1="665.62" y1="910.91" x2="786.42" y2="993.01"/><line class="cls-6" x1="455.12" y1="767.86" x2="555.65" y2="836.18"/><line class="cls-6" x1="555.65" y1="836.18" x2="665.62" y2="910.91"/><line class="cls-6" x1="199.38" y1="594.06" x2="277.89" y2="647.41"/><line class="cls-6" x1="126.62" y1="544.61" x2="199.38" y2="594.06"/><line class="cls-6" x1="277.89" y1="647.41" x2="362.86" y2="705.15"/></g></g></g><g id="_2040802283968" data-name=" 2040802283968"><polygon class="cls-7" points="142.02 577.67 150.38 592.2 158.75 606.65 142.02 606.65 125.3 606.65 133.66 592.2 142.02 577.67"/><polygon class="cls-7" points="142.02 544.95 150.38 559.48 158.75 573.93 142.02 573.93 125.3 573.93 133.66 559.4 142.02 544.95"/><polygon class="cls-7" points="142.02 510.85 150.38 525.3 158.75 539.75 142.02 539.75 125.3 539.75 133.66 525.3 142.02 510.85"/></g><g id="_2040802283968-2" data-name=" 2040802283968"><polygon class="cls-7" points="1881.62 301.45 1889.98 315.99 1898.35 330.44 1881.62 330.44 1864.89 330.44 1873.26 315.99 1881.62 301.45"/><polygon class="cls-7" points="1881.62 268.73 1889.98 283.27 1898.35 297.72 1881.62 297.72 1864.89 297.72 1873.26 283.19 1881.62 268.73"/><polygon class="cls-7" points="1881.62 234.63 1889.98 249.09 1898.35 263.54 1881.62 263.54 1864.89 263.54 1873.26 249.09 1881.62 234.63"/></g><path class="cls-8" d="M172.05,297.41V81H172c-.07-18.34-21.92-27-43.05-35.4C109.33,37.85,90.78,30.48,89.7,16.89V-.5H83.91v16h0c0,.58,0,1.15,0,1.7v114h0c.12,14.49-19,22.09-39.3,30.14-21.09,8.37-42.84,17.22-43,35.49V414.67l-39.07,13.12L1.55,440.91l3,1L7.34,441l39.24-13.18L7.34,414.61V197c0-14.48,20-22.64,39.36-30.33C61.2,160.88,76,155,83.91,145.93v34.22L44.67,193.33l39.24,13.18,2.81.94,3-1,39.07-13.12L89.7,180.21V30.41c7.89,9,22.67,14.86,37.11,20.6,19.38,7.69,39.41,15.63,39.41,30.11h0V297.35L127,310.53l39.24,13.18,2.81.94,3-1,39.07-13.13ZM7.34,447.05v66.21L52.69,498V431.82ZM-43.8,431.82V498L1.55,513.26V447.05ZM120.91,314.56v66.22L166.27,396V329.79Zm51.14,15.23V396l45.35-15.23V314.56ZM89.7,212.59v66.22l45.35-15.23V197.36ZM38.56,197.36v66.22l45.35,15.23V212.59Z"/><path class="cls-8" d="M211.12,841.63l-39.07,13.13-3,1-2.81-.94L127,841.63l39.24-13.17V710.58h0c0-14.48-20-22.42-39.41-30.11-14.44-5.74-29.22-11.6-37.11-20.6v51.44l39.07,13.12L89.7,737.56l-3,1-2.81-.94L44.67,724.43l39.24-13.17V677l0-14.79h0V646.62c0-.55-.06-1.12,0-1.7h0V609.25c.12-14.49-19-22.09-39.3-30.13-20.54-8.15-41.74-16.57-43-33.87H1.55V516.32l2.9.81,2.89-.81v27.3c0,14.48,20,22.43,39.4,30.12,14.48,5.74,29.29,11.62,37.17,20.65V281.86l2.89,1.29,2.9-1.29v196.9c7.88-9,22.69-14.91,37.16-20.66,9.69-3.84,19.54-7.75,27-12.51s12.44-10.36,12.44-17.6V399.06l2.89.81,2.89-.81V428c0,18.4-21.89,27.09-43.05,35.49-20.26,8-39.4,15.64-39.3,30.11V646.35c1.08,13.59,19.63,21,39.25,28.74,21.13,8.39,43,17.06,43.05,35.4h.05v118Z"/><path class="cls-8" d="M120.91,845.66v66.22l45.36,15.23V860.89Zm51.14,15.23v66.22l45.35-15.23V845.66ZM169.16,931l-2.89-.81v28.93c0,7.24-5,12.85-12.44,17.61s-17.28,8.67-27,12.51c-14.47,5.74-29.28,11.62-37.16,20.65V813l-2.9,1.29L83.91,813v267H89.7v-55.3c-.1-14.48,19-22.07,39.3-30.11,21.16-8.4,43.05-17.09,43.05-35.5V930.16ZM89.7,743.69v66.22l45.35-15.23V728.46ZM38.56,728.46v66.22l45.35,15.23V743.69Z"/><path class="cls-8" d="M1753.73,898.59v66.22l45.35-15.24V883.36Zm-51.13-15.23v66.21L1748,964.81V898.59Zm164.71-267v66.22l45.35,15.24V631.57Zm51.13,15.24v66.22l45.35-15.24V616.33Zm-2.89,70.08-2.89-.82v178.7c0,7.24-5,12.85-12.44,17.6s-17.28,8.68-27,12.51c-14.48,5.75-29.29,11.63-37.18,20.65V835.4l-2.89,1.3-2.89-1.3v210.53c-7.88-9-22.69-14.9-37.17-20.65-19.37-7.69-39.4-15.64-39.4-30.11V967.86l-2.89.81-2.89-.81v28.92h0c1.25,17.31,22.47,25.73,43,33.87,20.28,8,39.41,15.66,39.3,30.14v19.71h5.78V945.13c-.09-14.46,19.05-22.07,39.31-30.1,21.16-8.41,43-17.1,43-35.5V700.83Zm-79.47,64.49v66.2l45.35-15.22V750.9Zm-51.14-15.24v66.22l45.36,15.22v-66.2Z"/><path class="cls-8" d="M1836.08,82.3V48.08l.05-14.8h-.05V17.67a16.2,16.2,0,0,0,.05-1.71h-.05V0h-5.78V17.38c-1.08,13.6-19.63,21-39.25,28.75-21.12,8.39-43,17.06-43,35.39h0v118l-39.08,13.12L1748,225.8l3,1,2.8-1L1793,212.67l-39.25-13.17V81.63h.06c0-14.48,20-22.44,39.39-30.12,14.45-5.73,29.23-11.61,37.12-20.6V82.35l-39.07,13.12,39.07,13.13,3,1,2.8-.95,39.25-13.18Zm-82.35,149.64v66.2l45.35-15.22V216.7ZM1702.6,216.7v66.22L1748,298.14v-66.2Zm82.34-117.2v66.22L1830.3,181V114.74Zm51.14,15.24V181l45.35-15.23V99.5Z"/><path class="cls-8" d="M1957.51,612.3l-39.07,13.13-3,1-2.8-.95-39.25-13.18,39.25-13.17V532.66h-.05c0-14.47-20-22.43-39.4-30.11-14.45-5.73-29.23-11.6-37.13-20.6v251.8l39.08,13.12L1836.08,760l-3,1-2.81-1-39.23-13.18,39.23-13.18V597.48c-7.87,9-22.72,14.95-37.22,20.71-19.37,7.68-39.35,15.84-39.35,30.32V866.15L1793,879.34l-39.23,13.18-2.81.93-3-1-39.08-13.12L1748,866.22V648.3c.17-18.27,21.91-27.13,43-35.5,20.26-8,39.41-15.63,39.3-30.12h0v-114c0-.55,0-1.12,0-1.7h0V395.73c.1-14.46-19-22.07-39.3-30.1-10.59-4.2-21.34-8.47-29.47-14S1748,339.34,1748,330.13V301.2l2.89.82,2.89-.82v28.93c0,14.48,20,22.43,39.4,30.11,14.48,5.75,29.29,11.64,37.17,20.67V184l2.89,1.29,2.89-1.29V431.33h0v37.1c1.09,13.59,19.64,21,39.26,28.73,21.12,8.4,43,17.08,43.05,35.41h0v66.61Z"/><polygon class="cls-7" points="1734.12 532.29 1767.57 532.29 1767.54 446.02 1734.31 445.88 1734.12 532.29"/><polygon class="cls-7" points="1864.91 455.19 1898.36 455.19 1898.34 368.91 1865.11 368.77 1864.91 455.19"/><rect class="cls-8" x="1747.95" y="562.09" width="5.79" height="50"/><rect class="cls-8" x="1747.95" y="368.77" width="5.79" height="50"/><rect class="cls-8" x="166.27" y="1016.92" width="5.79" height="50"/><text class="cls-9" transform="translate(56.2 1038.39) rotate(-90)"><tspan class="cls-10">M</tspan><tspan class="cls-11" x="37.34" y="0">A</tspan><tspan x="70.46" y="0">GE 7</tspan></text></svg>