<svg xmlns="http://www.w3.org/2000/svg" viewBox="0 0 111.09 72.26"><defs><style>.cls-1,.cls-2{fill:#ff4655;}.cls-1,.cls-4{fill-rule:evenodd;}.cls-3,.cls-4{fill:#1a1a1a;}</style></defs><g id="Layer_2" data-name="Layer 2"><g id="Layer_1-2" data-name="Layer 1"><path class="cls-1" d="M21.69,43.34h7.22v7.23h7.23V57.8h7.23V65H50.6V57.8h7.23V50.57H43.37V43.34H59.9V36.4H71.32V28.89H86.74V21.66H57.83V14.43H50.6v7.23H43.37V14.43H36.14V7.23H21.69v7.2H14.46v7.23H7.23v7.23h7.23v7.22h7.23ZM31.61,28.4l-2,6.61H27.18a8.75,8.75,0,0,1-1.92-.2,4.3,4.3,0,0,1-1.7-.79,3.89,3.89,0,0,1-1.22-1.48,5.7,5.7,0,0,1-.46-2.38,6.73,6.73,0,0,1,.34-2,6.46,6.46,0,0,1,.91-1.84,5.2,5.2,0,0,1,1.33-1.39,2.89,2.89,0,0,1,1.59-.54h6.66q-.47.77-.93,1.44a11.92,11.92,0,0,1-1.05,1.28h-4.2a.78.78,0,0,0-.48.17,2.06,2.06,0,0,0-.42.45,3.59,3.59,0,0,0-.37.63,3.2,3.2,0,0,0-.26.71,2.46,2.46,0,0,0-.11.45,1.5,1.5,0,0,0,0,.37,2.16,2.16,0,0,0,.17.79,2.45,2.45,0,0,0,.4.79,1.76,1.76,0,0,0,.54.6.87.87,0,0,0,.56.25h1l.36-1.3H26.05v0a3.62,3.62,0,0,0,.2-.39c.14-.2.28-.46.45-.74s.34-.54.54-.82a7.48,7.48,0,0,1,.51-.63ZM42,35l-1.07-8.59c0-.17-.09-.37-.12-.6l-.17-.68c-.08-.2-.14-.39-.22-.54a.4.4,0,0,0-.32-.22H37.39a.44.44,0,0,0-.31.17,1.56,1.56,0,0,0-.34.34,2.64,2.64,0,0,0-.31.4.81.81,0,0,0-.17.31l-5.79,9.21v.08a1.1,1.1,0,0,1,0,.12h6.78a1.09,1.09,0,0,0,.37-.37l.48-.71a5.47,5.47,0,0,0,.42-.71,3.47,3.47,0,0,0,.26-.45L39.09,35Zm-6.46-2.87,2.69-4.53.57,4.73H35.49ZM55.19,35l3.12-10.63H54.4l-3.91,5.36-.83-5.36H45.78L42.66,35h3.09l1.73-5.95L48.36,35h1.13l4.37-5.95L52.13,35Zm4-10.63L56.1,35h8.08a1.17,1.17,0,0,0,.19-.2,6,6,0,0,0,.43-.48c.17-.2.31-.4.48-.63a4.32,4.32,0,0,0,.4-.53s0-.06.08-.15.09-.17.12-.25.11-.2.14-.28a.81.81,0,0,1,.08-.18H60l.34-1.21H63.5l2.29-2.7H62.08l-1.5,1.85.88-3.15h5c.08,0,.22-.11.39-.31a8.61,8.61,0,0,0,.6-.77c.2-.31.39-.59.56-.91a5,5,0,0,0,.37-.73ZM46.6,39A7.82,7.82,0,0,1,45.92,40a2.56,2.56,0,0,1-.74.73,2.53,2.53,0,0,1-.87.43,4.48,4.48,0,0,1-1.11.14h-2l1.53-5.22h3.41a.77.77,0,0,1,.68.34,1.46,1.46,0,0,1,.22.83,2.82,2.82,0,0,1-.14.82A2.75,2.75,0,0,1,46.6,39Zm-2.69-1.5L43.17,40h.2a.94.94,0,0,0,.43-.12,2,2,0,0,0,.51-.25,3.47,3.47,0,0,0,.45-.4,1.28,1.28,0,0,0,.34-.42.38.38,0,0,0,.08-.17.63.63,0,0,0,.12-.23c0-.09.05-.2.08-.28a.56.56,0,0,0,.06-.29.77.77,0,0,0-.06-.28.2.2,0,0,0-.2-.11Zm4-1.34L46.4,41.33h3.94s.06-.06.12-.11a1.8,1.8,0,0,1,.2-.23,2,2,0,0,0,.22-.31,1.26,1.26,0,0,0,.2-.29l.06,0a.6.6,0,0,1,0-.14s0-.09.06-.12a.18.18,0,0,0,0-.08h-3l.2-.6H50l1.11-1.3H49.32l-.73.88L49,37.45h2.41a.53.53,0,0,0,.2-.15c.08-.11.17-.25.28-.39s.2-.29.28-.43a1,1,0,0,0,.17-.37Zm6.55,3.52-.37-3.52H52.75l.48,4.23a1.59,1.59,0,0,0,.06.28,1,1,0,0,0,.06.31c0,.12.08.2.11.29s.09.11.14.11h1.31a.26.26,0,0,0,.14-.09l.17-.17.14-.19c.06-.09.09-.15.11-.17l2.78-4.6H56.64Z"/><polygon class="cls-1" points="60.86 11.93 61.12 11.93 61.37 11.93 61.63 11.93 61.88 11.93 62.11 11.93 62.36 11.93 62.59 11.93 62.82 11.93 63.04 11.93 63.27 11.93 63.47 11.93 63.67 11.93 63.89 11.93 64.06 11.93 64.26 11.93 64.43 11.93 64.6 11.93 64.77 11.93 64.91 11.93 65.06 11.93 65.2 11.93 65.31 11.93 65.42 11.93 65.54 11.93 65.62 11.93 65.71 11.93 65.79 11.93 65.85 11.93 65.88 11.93 65.93 11.93 65.93 11.93 65.96 11.93 65.96 7.85 59.64 7.85 53.32 7.85 47.03 7.85 47.03 11.93 60.86 11.93"/><rect class="cls-2" x="70.21" y="7.85" width="11.23" height="4.08"/><rect class="cls-2" x="52.55" y="67.35" width="33.53" height="4.08"/><rect class="cls-2" x="60.12" y="52.24" width="13.18" height="4.08"/><rect class="cls-2" x="74.44" y="30.95" width="26.16" height="4.08"/><rect class="cls-2" x="59.95" y="44.93" width="26.5" height="4.08"/><rect class="cls-2" x="89.57" y="44.93" width="21.51" height="4.08"/><rect class="cls-2" x="61" y="15.28" width="37.28" height="4.08"/><rect class="cls-3" y="21.66" width="7.23" height="7.23"/><rect class="cls-3" x="7.23" y="14.43" width="7.23" height="7.23"/><rect class="cls-3" x="14.46" y="7.23" width="7.23" height="7.23"/><polygon class="cls-4" points="21.68 0 28.91 0 36.14 0 36.14 7.23 28.91 7.23 21.68 7.23 21.68 0"/><rect class="cls-3" x="36.14" y="7.23" width="7.23" height="7.23"/><rect class="cls-3" x="90.57" y="21.66" width="6.32" height="7.23"/><rect class="cls-3" x="43.37" y="65.03" width="7.23" height="7.23"/><rect class="cls-3" x="59.64" y="58.99" width="18.94" height="6.04"/><rect class="cls-3" x="21.69" y="43.34" width="7.23" height="7.23"/><rect class="cls-3" x="14.46" y="36.11" width="7.23" height="7.23"/><rect class="cls-3" x="7.23" y="28.89" width="7.23" height="7.23"/><rect class="cls-3" x="36.14" y="57.8" width="7.23" height="7.23"/><rect class="cls-3" x="28.91" y="50.57" width="7.23" height="7.23"/><rect class="cls-3" x="64.23" y="37.7" width="12.61" height="4.08"/><rect class="cls-3" x="43.37" y="14.43" width="14.46" height="7.23"/><rect class="cls-3" x="80.05" y="37.7" width="26.5" height="4.08"/><rect class="cls-3" x="76.37" y="52.24" width="15.99" height="4.08"/><rect class="cls-3" x="45.64" y="44.93" width="11.96" height="4.08"/><rect class="cls-3" x="102.44" y="15.28" width="3.46" height="4.08"/><rect class="cls-3" x="53.23" y="60.94" width="3.46" height="4.08"/></g></g></svg>