<svg xmlns="http://www.w3.org/2000/svg" viewBox="0 0 111.09 72.26" xmlns:v="https://vecta.io/nano"><g fill="#ff4655"><path d="M21.69 43.34h7.22v7.23h7.23v7.23h7.23V65h7.23v-7.2h7.23v-7.23H43.37v-7.23H59.9V36.4h11.42v-7.51h15.42v-7.23H57.83v-7.23H50.6v7.23h-7.23v-7.23h-7.23v-7.2H21.69v7.2h-7.23v7.23H7.23v7.23h7.23v7.22h7.23zm9.92-14.94l-2 6.61h-2.43a8.75 8.75 0 0 1-1.92-.2 4.3 4.3 0 0 1-1.7-.79 3.89 3.89 0 0 1-1.22-1.48 5.7 5.7 0 0 1-.46-2.38 6.73 6.73 0 0 1 .34-2 6.46 6.46 0 0 1 .91-1.84 5.2 5.2 0 0 1 1.33-1.39 2.89 2.89 0 0 1 1.59-.54h6.66q-.47.77-.93 1.44a11.92 11.92 0 0 1-1.05 1.28h-4.2a.78.78 0 0 0-.48.17 2.06 2.06 0 0 0-.42.45 3.59 3.59 0 0 0-.37.63 3.2 3.2 0 0 0-.26.71 2.46 2.46 0 0 0-.11.45 1.5 1.5 0 0 0 0 .37 2.16 2.16 0 0 0 .17.79 2.45 2.45 0 0 0 .4.79 1.76 1.76 0 0 0 .54.6.87.87 0 0 0 .56.25h1l.36-1.3h-1.87 0a3.62 3.62 0 0 0 .2-.39c.14-.2.28-.46.45-.74l.54-.82a7.48 7.48 0 0 1 .51-.63zM42 35l-1.07-8.59c0-.17-.09-.37-.12-.6l-.17-.68-.22-.54a.4.4 0 0 0-.32-.22h-2.71a.44.44 0 0 0-.31.17 1.56 1.56 0 0 0-.34.34 2.64 2.64 0 0 0-.31.4.81.81 0 0 0-.17.31l-5.79 9.21v.08a1.1 1.1 0 0 1 0 .12h6.78a1.09 1.09 0 0 0 .37-.37l.48-.71a5.47 5.47 0 0 0 .42-.71 3.47 3.47 0 0 0 .26-.45l.31 2.24zm-6.46-2.87l2.69-4.53.57 4.73h-3.31zM55.19 35l3.12-10.63H54.4l-3.91 5.36-.83-5.36h-3.88L42.66 35h3.09l1.73-5.95.88 5.95h1.13l4.37-5.95L52.13 35zm4-10.63L56.1 35h8.08a1.17 1.17 0 0 0 .19-.2 6 6 0 0 0 .43-.48c.17-.2.31-.4.48-.63a4.32 4.32 0 0 0 .4-.53s0-.06.08-.15.09-.17.12-.25.11-.2.14-.28a.81.81 0 0 1 .08-.18H60l.34-1.21h3.16l2.29-2.7h-3.71l-1.5 1.85.88-3.15h5c.08 0 .22-.11.39-.31a8.61 8.61 0 0 0 .6-.77l.56-.91a5 5 0 0 0 .37-.73zM46.6 39a7.82 7.82 0 0 1-.68 1 2.56 2.56 0 0 1-.74.73 2.53 2.53 0 0 1-.87.43 4.48 4.48 0 0 1-1.11.14h-2l1.53-5.22h3.41a.77.77 0 0 1 .68.34 1.46 1.46 0 0 1 .22.83 2.82 2.82 0 0 1-.14.82 2.75 2.75 0 0 1-.3.93zm-2.69-1.5l-.74 2.5h.2a.94.94 0 0 0 .43-.12 2 2 0 0 0 .51-.25 3.47 3.47 0 0 0 .45-.4 1.28 1.28 0 0 0 .34-.42.38.38 0 0 0 .08-.17.63.63 0 0 0 .12-.23c0-.09.05-.2.08-.28a.56.56 0 0 0 .06-.29.77.77 0 0 0-.06-.28.2.2 0 0 0-.2-.11zm4-1.34l-1.51 5.17h3.94l.12-.11a1.8 1.8 0 0 1 .2-.23 2 2 0 0 0 .22-.31 1.26 1.26 0 0 0 .2-.29h.06a.6.6 0 0 1 0-.14s0-.09.06-.12a.18.18 0 0 0 0-.08h-3l.2-.6H50l1.11-1.3h-1.79l-.73.88.41-1.58h2.41a.53.53 0 0 0 .2-.15l.28-.39c.11-.14.2-.29.28-.43a1 1 0 0 0 .17-.37zm6.55 3.52l-.37-3.52h-1.34l.48 4.23a1.59 1.59 0 0 0 .06.28 1 1 0 0 0 .06.31c0 .12.08.2.11.29s.09.11.14.11h1.31a.26.26 0 0 0 .14-.09l.17-.17.14-.19.11-.17 2.78-4.6h-1.61zm6.4-27.75h.26.25.26.25.23.25.23.23.22.23.2.2.22.17.2.17.17.17.14.15.14.11.11.12.08.09.08.06.03.05 0 .03V7.85h-6.32-6.32-6.29v4.08h13.83z" fill-rule="evenodd"/><path d="M70.21 7.85h11.23v4.08H70.21zm-17.66 59.5h33.53v4.08H52.55zm7.57-15.11H73.3v4.08H60.12zm14.32-21.29h26.16v4.08H74.44zM59.95 44.93h26.5v4.08h-26.5zm29.62 0h21.51v4.08H89.57zM61 15.28h37.28v4.08H61z"/></g><g fill="#1a1a1a"><path d="M0 21.66h7.23v7.23H0z"/><path d="M7.23 14.43h7.23v7.23H7.23z"/><path d="M14.46 7.23h7.23v7.23h-7.23z"/><path d="M21.68 0h7.23 7.23v7.23h-7.23-7.23V0z" fill-rule="evenodd"/><path d="M36.14 7.23h7.23v7.23h-7.23zm54.43 14.43h6.32v7.23h-6.32zm-47.2 43.37h7.23v7.23h-7.23zm16.27-6.04h18.94v6.04H59.64zM21.69 43.34h7.23v7.23h-7.23z"/><path d="M14.46 36.11h7.23v7.23h-7.23z"/><path d="M7.23 28.89h7.23v7.23H7.23zM36.14 57.8h7.23v7.23h-7.23z"/><path d="M28.91 50.57h7.23v7.23h-7.23zM64.23 37.7h12.61v4.08H64.23zM43.37 14.43h14.46v7.23H43.37zM80.05 37.7h26.5v4.08h-26.5zm-3.68 14.54h15.99v4.08H76.37zm-30.73-7.31H57.6v4.08H45.64zm56.8-29.65h3.46v4.08h-3.46zM53.23 60.94h3.46v4.08h-3.46z"/></g></svg>