<svg xmlns="http://www.w3.org/2000/svg" viewBox="0 0 111.09 72.26" xmlns:v="https://vecta.io/nano"><path d="M21.69 43.37h7.22v7.23h7.23v7.2h7.23V65h7.23v-7.2h7.23v-7.2H43.37v-7.23H59.9v-7h11.42v-7.46h15.42v-7.22H57.83v-7.23H50.6v7.23h-7.23v-7.23h-7.23V7.23H21.69v7.23h-7.23v7.23H7.23v7.22h7.23v7.23h7.23zm9.92-15l-2 6.64h-2.43a8.77 8.77 0 0 1-1.92-.23 4.14 4.14 0 0 1-1.7-.77 3.89 3.89 0 0 1-1.22-1.5 5.63 5.63 0 0 1-.46-2.38 6.39 6.39 0 0 1 .34-2 7.06 7.06 0 0 1 .91-1.87 5.2 5.2 0 0 1 1.33-1.39 2.85 2.85 0 0 1 1.59-.51h6.66l-.93 1.41a11.92 11.92 0 0 1-1.05 1.28h-4.2a.78.78 0 0 0-.48.17 3.08 3.08 0 0 0-.42.45 3.59 3.59 0 0 0-.37.63 3.86 3.86 0 0 0-.26.71 3.24 3.24 0 0 0-.11.45 1.63 1.63 0 0 0 0 .37 2.45 2.45 0 0 0 .17.82 2.31 2.31 0 0 0 .4.76 2.22 2.22 0 0 0 .54.63 1 1 0 0 0 .56.22h1l.36-1.3h-1.87c0-.06.09-.2.2-.4s.28-.48.45-.73a6.84 6.84 0 0 1 .54-.82 5.15 5.15 0 0 1 .51-.66zM42 35l-1.07-8.62c0-.17-.09-.34-.12-.6s-.11-.45-.17-.65a5.74 5.74 0 0 0-.22-.57.36.36 0 0 0-.32-.19h-2.71a.39.39 0 0 0-.31.14l-.34.34a2.64 2.64 0 0 0-.31.4 1.09 1.09 0 0 0-.17.31l-5.79 9.24h0v.15h6.78a1.88 1.88 0 0 0 .37-.4l.48-.68a6.45 6.45 0 0 0 .42-.74 2.48 2.48 0 0 0 .26-.45l.31 2.32zm-6.46-2.9l2.69-4.5.57 4.7h-3.31zM55.19 35l3.12-10.63H54.4l-3.91 5.33-.83-5.33h-3.88L42.66 35h3.09l1.73-6 .88 6h1.13l4.37-6-1.73 6zm4-10.63L56.1 35h8.08l.19-.2.43-.51.48-.6a4.35 4.35 0 0 0 .4-.56s0-.06.08-.15.09-.17.12-.25.11-.2.14-.28a.81.81 0 0 1 .08-.18H60l.34-1.19h3.16l2.29-2.72h-3.71l-1.5 1.85.88-3.15h5c.08 0 .22-.11.39-.31a8.61 8.61 0 0 0 .6-.77c.2-.28.39-.59.56-.88s.29-.56.37-.73zM46.6 39a12.47 12.47 0 0 1-.68 1.07 2.76 2.76 0 0 1-.74.71 2.53 2.53 0 0 1-.87.43 4.48 4.48 0 0 1-1.11.14h-2l1.53-5.19h3.41a.75.75 0 0 1 .68.31 1.53 1.53 0 0 1 .22.83 2.82 2.82 0 0 1-.14.82 3.27 3.27 0 0 1-.3.88zm-2.69-1.53L43.17 40h.2a1.37 1.37 0 0 0 .43-.09 4.29 4.29 0 0 0 .51-.28 3.28 3.28 0 0 0 .45-.37 2.21 2.21 0 0 0 .34-.43.68.68 0 0 0 .08-.19.51.51 0 0 0 .12-.2c0-.12.05-.23.08-.31a.56.56 0 0 0 .06-.29.77.77 0 0 0-.06-.28.26.26 0 0 0-.2-.11zm4-1.31l-1.51 5.17h3.94s.06 0 .12-.11a1.8 1.8 0 0 1 .2-.23 1.34 1.34 0 0 0 .22-.31 1.21 1.21 0 0 0 .2-.26l.06-.08a.31.31 0 0 1 0-.12s0-.08.06-.14a.09.09 0 0 0 0-.08h-3l.2-.6H50l1.11-1.3h-1.79l-.73.9.41-1.55h2.41a.53.53 0 0 0 .2-.15l.28-.36.28-.46a1.18 1.18 0 0 0 .17-.34zm6.55 3.49l-.37-3.49h-1.34l.48 4.2a1.18 1.18 0 0 0 .06.28 1.35 1.35 0 0 0 .06.34 1.45 1.45 0 0 1 .11.26c.06.08.09.11.14.11h1.31a.26.26 0 0 0 .14-.09l.17-.17a.77.77 0 0 0 .14-.19.48.48 0 0 0 .11-.17l2.78-4.57h-1.61zm6.4-27.69h.26.25.26.25.23.25.23.23.22.23.2.2.22.17.2.17.17.17.14.15.14.11.11.12.08.09.08.06.03.05 0 .03V7.85h-6.32-6.32-6.29v4.11h13.83z" fill-rule="evenodd"/><path d="M70.21 7.85h11.23v4.08H70.21zm-17.66 59.5h33.53v4.08H52.55zm7.57-15.08H73.3v4.08H60.12zm14.32-21.29h26.16v4.08H74.44zM59.95 44.93h26.5v4.08h-26.5zm29.62 0h21.51v4.08H89.57zM61 15.28h37.28v4.08H61z"/><g fill="#fff"><path d="M0 21.69h7.23v7.23H0z"/><path d="M7.23 14.46h7.23v7.23H7.23z"/><path d="M14.46 7.23h7.23v7.23h-7.23z"/><path d="M21.68 0h7.23 7.23v7.23h-7.23-7.23V0z" fill-rule="evenodd"/><path d="M36.14 7.23h7.23v7.23h-7.23zm54.43 14.46h6.32v7.23h-6.32zm-47.2 43.34h7.23v7.23h-7.23zm16.27-6.01h18.94v6.04H59.64zM21.69 43.37h7.23v7.23h-7.23z"/><path d="M14.46 36.14h7.23v7.23h-7.23z"/><path d="M7.23 28.91h7.23v7.23H7.23zM36.14 57.8h7.23v7.23h-7.23z"/><path d="M28.91 50.6h7.23v7.23h-7.23zm35.32-12.9h12.61v4.08H64.23zM43.37 14.46h14.46v7.23H43.37zM80.05 37.7h26.5v4.08h-26.5zm-3.68 14.57h15.99v4.08H76.37zm-30.73-7.34H57.6v4.08H45.64zm56.8-29.65h3.46v4.08h-3.46zM53.23 60.94h3.46v4.08h-3.46z"/></g></svg>