<svg xmlns="http://www.w3.org/2000/svg" viewBox="0 0 111.09 72.28"><defs><style>.cls-1,.cls-2{fill:#fff;}.cls-1,.cls-4{fill-rule:evenodd;}.cls-3,.cls-4{fill:#ff4655;}</style></defs><g id="Layer_2" data-name="Layer 2"><g id="Layer_1-2" data-name="Layer 1"><path class="cls-1" d="M21.69,43.37h7.22V50.6h7.23v7.23h7.23v7.23H50.6V57.83h7.23V50.6H43.37V43.37H59.9V36.43H71.32V28.91H86.74V21.69H57.83V14.46H50.6v7.23H43.37V14.46H36.14V7.23H21.69v7.23H14.46v7.23H7.23v7.22h7.23v7.23h7.23Zm9.92-14.94-2,6.61H27.18a7.26,7.26,0,0,1-1.92-.23,4.14,4.14,0,0,1-1.7-.77,3.74,3.74,0,0,1-1.22-1.5,5.63,5.63,0,0,1-.46-2.38,6.54,6.54,0,0,1,.34-2,7.06,7.06,0,0,1,.91-1.87,4.84,4.84,0,0,1,1.33-1.37,2.73,2.73,0,0,1,1.59-.53h6.66q-.47.77-.93,1.44c-.32.43-.68.85-1.05,1.28h-4.2a.72.72,0,0,0-.48.17,2.06,2.06,0,0,0-.42.45,2.91,2.91,0,0,0-.37.62,5,5,0,0,0-.37,1.14,1.63,1.63,0,0,0,0,.37,2.31,2.31,0,0,0,.17.82,2.8,2.8,0,0,0,.4.79,2.58,2.58,0,0,0,.54.6.87.87,0,0,0,.56.25h1l.36-1.3H26.05v0l.2-.4.45-.73c.17-.29.34-.54.54-.82a4.5,4.5,0,0,1,.51-.63ZM42,35l-1.07-8.59c0-.17-.09-.37-.12-.6s-.11-.48-.17-.68a3.31,3.31,0,0,0-.22-.54.4.4,0,0,0-.32-.22H37.39a.53.53,0,0,0-.31.14l-.34.34c-.12.14-.2.25-.31.4a1.18,1.18,0,0,0-.17.34l-5.79,9.21v0a.84.84,0,0,1,0,.15h6.78a1.51,1.51,0,0,0,.37-.37c.14-.23.31-.46.48-.71a6.45,6.45,0,0,0,.42-.74,2.48,2.48,0,0,0,.26-.45L39.09,35Zm-6.46-2.9,2.69-4.5.57,4.7H35.49ZM55.19,35l3.12-10.63H54.4l-3.91,5.33-.83-5.33H45.78L42.66,35h3.09l1.73-6,.88,6h1.13l4.37-6-1.73,6Zm4-10.63L56.1,35h8.08a1.17,1.17,0,0,0,.19-.2l.43-.48c.17-.2.31-.4.48-.63a3.3,3.3,0,0,0,.4-.56s0-.06.08-.15a2,2,0,0,0,.12-.25,1.65,1.65,0,0,0,.14-.26.93.93,0,0,1,.08-.17H60l.34-1.22H63.5l2.29-2.69H62.08l-1.5,1.84.88-3.14h5c.08,0,.22-.12.39-.34a4.69,4.69,0,0,0,.6-.77c.2-.28.39-.59.56-.88s.29-.54.37-.73ZM46.6,39a7.11,7.11,0,0,1-.68,1.07,2.89,2.89,0,0,1-.74.74,3.14,3.14,0,0,1-.87.4,3.4,3.4,0,0,1-1.11.14h-2l1.53-5.19h3.41a.82.82,0,0,1,.68.31,1.58,1.58,0,0,1,.22.83,3.19,3.19,0,0,1-.14.85A3.51,3.51,0,0,1,46.6,39Zm-2.69-1.51L43.17,40h.2a1.58,1.58,0,0,0,.43-.12,4.29,4.29,0,0,0,.51-.28,3.28,3.28,0,0,0,.45-.37,2.21,2.21,0,0,0,.34-.43l.08-.17a.52.52,0,0,0,.12-.22l.08-.31a.42.42,0,0,0,.06-.26.65.65,0,0,0-.06-.28.2.2,0,0,0-.2-.12Zm4-1.33L46.4,41.33h3.94s.06,0,.12-.09a2.7,2.7,0,0,1,.2-.25,2.42,2.42,0,0,0,.22-.28,1.26,1.26,0,0,0,.2-.29l.06-.05c0-.06,0-.09,0-.15s0-.08.06-.14,0,0,0,0h-3l.2-.6H50l1.11-1.33H49.32l-.73.9L49,37.47h2.41s.11,0,.2-.17l.28-.36c.09-.15.2-.29.28-.43a1.77,1.77,0,0,0,.17-.37Zm6.55,3.49-.37-3.49H52.75l.48,4.2a1.18,1.18,0,0,0,.06.28,1.35,1.35,0,0,0,.06.34c0,.11.08.2.11.26s.09.11.14.11h1.31a.48.48,0,0,0,.14-.06.88.88,0,0,0,.17-.2.45.45,0,0,0,.14-.19.77.77,0,0,0,.11-.15l2.78-4.59H56.64Z"/><polygon class="cls-1" points="60.86 11.96 61.12 11.96 61.37 11.96 61.63 11.96 61.88 11.96 62.11 11.96 62.36 11.96 62.59 11.96 62.82 11.96 63.04 11.96 63.27 11.96 63.47 11.96 63.67 11.96 63.89 11.96 64.06 11.96 64.26 11.96 64.43 11.96 64.6 11.96 64.77 11.96 64.91 11.96 65.06 11.96 65.2 11.96 65.31 11.96 65.42 11.96 65.54 11.96 65.62 11.96 65.71 11.96 65.79 11.96 65.85 11.96 65.88 11.96 65.93 11.96 65.93 11.96 65.96 11.96 65.96 7.88 59.64 7.88 53.32 7.88 47.03 7.88 47.03 11.96 60.86 11.96"/><rect class="cls-2" x="70.21" y="7.88" width="11.23" height="4.08"/><rect class="cls-2" x="52.55" y="67.35" width="33.53" height="4.08"/><rect class="cls-2" x="60.12" y="52.27" width="13.18" height="4.08"/><rect class="cls-2" x="74.44" y="30.98" width="26.16" height="4.08"/><rect class="cls-2" x="59.95" y="44.93" width="26.5" height="4.08"/><rect class="cls-2" x="89.57" y="44.93" width="21.51" height="4.08"/><rect class="cls-2" x="61" y="15.31" width="37.28" height="4.08"/><rect class="cls-3" y="21.69" width="7.23" height="7.23"/><rect class="cls-3" x="7.23" y="14.46" width="7.23" height="7.23"/><rect class="cls-3" x="14.46" y="7.23" width="7.23" height="7.23"/><polygon class="cls-4" points="21.68 0 28.91 0 36.14 0 36.14 7.23 28.91 7.23 21.68 7.23 21.68 0"/><rect class="cls-3" x="36.14" y="7.23" width="7.23" height="7.23"/><rect class="cls-3" x="90.57" y="21.69" width="6.32" height="7.23"/><rect class="cls-3" x="43.37" y="65.06" width="7.23" height="7.23"/><rect class="cls-3" x="59.64" y="59.02" width="18.94" height="6.04"/><rect class="cls-3" x="21.69" y="43.37" width="7.23" height="7.23"/><rect class="cls-3" x="14.46" y="36.14" width="7.23" height="7.23"/><rect class="cls-3" x="7.23" y="28.91" width="7.23" height="7.23"/><rect class="cls-3" x="36.14" y="57.83" width="7.23" height="7.23"/><rect class="cls-3" x="28.91" y="50.6" width="7.23" height="7.23"/><rect class="cls-3" x="64.23" y="37.7" width="12.61" height="4.08"/><rect class="cls-3" x="43.37" y="14.46" width="14.46" height="7.23"/><rect class="cls-3" x="80.05" y="37.7" width="26.5" height="4.08"/><rect class="cls-3" x="76.37" y="52.27" width="15.99" height="4.08"/><rect class="cls-3" x="45.64" y="44.93" width="11.96" height="4.08"/><rect class="cls-3" x="102.44" y="15.31" width="3.46" height="4.08"/><rect class="cls-3" x="53.23" y="60.97" width="3.46" height="4.08"/></g></g></svg>