<svg xmlns="http://www.w3.org/2000/svg" viewBox="0 0 111.09 72.26"><defs><style>.cls-1,.cls-3{fill-rule:evenodd;}.cls-2,.cls-3{fill:#fff;}</style></defs><g id="Layer_2" data-name="Layer 2"><g id="Layer_1-2" data-name="Layer 1"><path class="cls-1" d="M21.69,43.37h7.22V50.6h7.23v7.2h7.23V65H50.6V57.8h7.23V50.6H43.37V43.37H59.9v-7H71.32V28.91H86.74V21.69H57.83V14.46H50.6v7.23H43.37V14.46H36.14V7.23H21.69v7.23H14.46v7.23H7.23v7.22h7.23v7.23h7.23Zm9.92-15-2,6.64H27.18a8.77,8.77,0,0,1-1.92-.23,4.14,4.14,0,0,1-1.7-.77,3.89,3.89,0,0,1-1.22-1.5,5.63,5.63,0,0,1-.46-2.38,6.39,6.39,0,0,1,.34-2,7.06,7.06,0,0,1,.91-1.87,5.2,5.2,0,0,1,1.33-1.39,2.85,2.85,0,0,1,1.59-.51h6.66c-.31.51-.62,1-.93,1.41a11.92,11.92,0,0,1-1.05,1.28h-4.2a.78.78,0,0,0-.48.17,3.08,3.08,0,0,0-.42.45,3.59,3.59,0,0,0-.37.63,3.86,3.86,0,0,0-.26.71,3.24,3.24,0,0,0-.11.45,1.63,1.63,0,0,0,0,.37,2.45,2.45,0,0,0,.17.82,2.31,2.31,0,0,0,.4.76,2.22,2.22,0,0,0,.54.63,1,1,0,0,0,.56.22h1l.36-1.3H26.05c0-.06.09-.2.2-.4s.28-.48.45-.73a6.84,6.84,0,0,1,.54-.82,5.15,5.15,0,0,1,.51-.66ZM42,35l-1.07-8.62c0-.17-.09-.34-.12-.6s-.11-.45-.17-.65a5.74,5.74,0,0,0-.22-.57.36.36,0,0,0-.32-.19H37.39a.39.39,0,0,0-.31.14l-.34.34a2.64,2.64,0,0,0-.31.4,1.09,1.09,0,0,0-.17.31l-5.79,9.24v0s0,0,0,.15h6.78a1.88,1.88,0,0,0,.37-.4c.14-.2.31-.45.48-.68a6.45,6.45,0,0,0,.42-.74,2.48,2.48,0,0,0,.26-.45L39.09,35Zm-6.46-2.9,2.69-4.5.57,4.7H35.49ZM55.19,35l3.12-10.63H54.4l-3.91,5.33-.83-5.33H45.78L42.66,35h3.09l1.73-6,.88,6h1.13l4.37-6-1.73,6Zm4-10.63L56.1,35h8.08l.19-.2.43-.51c.17-.2.31-.4.48-.6a4.35,4.35,0,0,0,.4-.56s0-.06.08-.15.09-.17.12-.25.11-.2.14-.28a.81.81,0,0,1,.08-.18H60l.34-1.19H63.5l2.29-2.72H62.08l-1.5,1.85.88-3.15h5c.08,0,.22-.11.39-.31a8.61,8.61,0,0,0,.6-.77c.2-.28.39-.59.56-.88s.29-.56.37-.73ZM46.6,39a12.47,12.47,0,0,1-.68,1.07,2.76,2.76,0,0,1-.74.71,2.53,2.53,0,0,1-.87.43,4.48,4.48,0,0,1-1.11.14h-2l1.53-5.19h3.41a.75.75,0,0,1,.68.31,1.53,1.53,0,0,1,.22.83,2.82,2.82,0,0,1-.14.82A3.27,3.27,0,0,1,46.6,39Zm-2.69-1.53L43.17,40h.2a1.37,1.37,0,0,0,.43-.09,4.29,4.29,0,0,0,.51-.28,3.28,3.28,0,0,0,.45-.37,2.21,2.21,0,0,0,.34-.43.68.68,0,0,0,.08-.19.51.51,0,0,0,.12-.2c0-.12.05-.23.08-.31a.56.56,0,0,0,.06-.29.77.77,0,0,0-.06-.28.26.26,0,0,0-.2-.11Zm4-1.31L46.4,41.33h3.94s.06,0,.12-.11a1.8,1.8,0,0,1,.2-.23,1.34,1.34,0,0,0,.22-.31,1.21,1.21,0,0,0,.2-.26s0,0,.06-.08a.31.31,0,0,1,0-.12s0-.08.06-.14a.09.09,0,0,0,0-.08h-3l.2-.6H50l1.11-1.3H49.32l-.73.9L49,37.45h2.41a.53.53,0,0,0,.2-.15l.28-.36.28-.46a1.18,1.18,0,0,0,.17-.34Zm6.55,3.49-.37-3.49H52.75l.48,4.2a1.18,1.18,0,0,0,.06.28,1.35,1.35,0,0,0,.06.34,1.45,1.45,0,0,1,.11.26c.06.08.09.11.14.11h1.31a.26.26,0,0,0,.14-.09l.17-.17a.77.77,0,0,0,.14-.19.48.48,0,0,0,.11-.17l2.78-4.57H56.64Z"/><polygon class="cls-1" points="60.86 11.96 61.12 11.96 61.37 11.96 61.63 11.96 61.88 11.96 62.11 11.96 62.36 11.96 62.59 11.96 62.82 11.96 63.04 11.96 63.27 11.96 63.47 11.96 63.67 11.96 63.89 11.96 64.06 11.96 64.26 11.96 64.43 11.96 64.6 11.96 64.77 11.96 64.91 11.96 65.06 11.96 65.2 11.96 65.31 11.96 65.42 11.96 65.54 11.96 65.62 11.96 65.71 11.96 65.79 11.96 65.85 11.96 65.88 11.96 65.93 11.96 65.93 11.96 65.96 11.96 65.96 7.85 59.64 7.85 53.32 7.85 47.03 7.85 47.03 11.96 60.86 11.96"/><rect x="70.21" y="7.85" width="11.23" height="4.08"/><rect x="52.55" y="67.35" width="33.53" height="4.08"/><rect x="60.12" y="52.27" width="13.18" height="4.08"/><rect x="74.44" y="30.98" width="26.16" height="4.08"/><rect x="59.95" y="44.93" width="26.5" height="4.08"/><rect x="89.57" y="44.93" width="21.51" height="4.08"/><rect x="61" y="15.28" width="37.28" height="4.08"/><rect class="cls-2" y="21.69" width="7.23" height="7.23"/><rect class="cls-2" x="7.23" y="14.46" width="7.23" height="7.23"/><rect class="cls-2" x="14.46" y="7.23" width="7.23" height="7.23"/><polygon class="cls-3" points="21.68 0 28.91 0 36.14 0 36.14 7.23 28.91 7.23 21.68 7.23 21.68 0"/><rect class="cls-2" x="36.14" y="7.23" width="7.23" height="7.23"/><rect class="cls-2" x="90.57" y="21.69" width="6.32" height="7.23"/><rect class="cls-2" x="43.37" y="65.03" width="7.23" height="7.23"/><rect class="cls-2" x="59.64" y="59.02" width="18.94" height="6.04"/><rect class="cls-2" x="21.69" y="43.37" width="7.23" height="7.23"/><rect class="cls-2" x="14.46" y="36.14" width="7.23" height="7.23"/><rect class="cls-2" x="7.23" y="28.91" width="7.23" height="7.23"/><rect class="cls-2" x="36.14" y="57.8" width="7.23" height="7.23"/><rect class="cls-2" x="28.91" y="50.6" width="7.23" height="7.23"/><rect class="cls-2" x="64.23" y="37.7" width="12.61" height="4.08"/><rect class="cls-2" x="43.37" y="14.46" width="14.46" height="7.23"/><rect class="cls-2" x="80.05" y="37.7" width="26.5" height="4.08"/><rect class="cls-2" x="76.37" y="52.27" width="15.99" height="4.08"/><rect class="cls-2" x="45.64" y="44.93" width="11.96" height="4.08"/><rect class="cls-2" x="102.44" y="15.28" width="3.46" height="4.08"/><rect class="cls-2" x="53.23" y="60.94" width="3.46" height="4.08"/></g></g></svg>