<svg xmlns="http://www.w3.org/2000/svg" viewBox="0 0 150.37 82.51" xmlns:v="https://vecta.io/nano"><g fill-rule="evenodd"><path d="M29.23 32.08A26.77 26.77 0 0 0 24 33.3a54.5 54.5 0 0 1 14.3 10.35 54.61 54.61 0 0 1 15.87 34.27h3.6A58.15 58.15 0 0 0 40.85 41.1a59.91 59.91 0 0 0-11.62-9.02zm-12.79 5.53a27 27 0 0 0-3 2.75 43.85 43.85 0 0 1 17.4 10.74A44.31 44.31 0 0 1 43.6 77.86h3.6a47.73 47.73 0 0 0-13.84-29.31 47.84 47.84 0 0 0-16.92-10.94zm-6.72 7.48l-1.58 3a35.14 35.14 0 0 1 16.41 9.29 35.31 35.31 0 0 1 10.06 20.45h3.32a38.61 38.61 0 0 0-11.06-22.76 38.88 38.88 0 0 0-17.15-9.98zM66.3 78l75.8-.63c7.06-3.43 16.7-32.37-5.56-46.23-6.51-4.08-11-3.8-19.7-3.57-5.47-10.35-7-12.73-14.93-19.22C82.26-7.77 49.32-.09 38.21 27.8a66.22 66.22 0 0 1 8.65 7.29A66.82 66.82 0 0 1 66.3 78zM6.58 52.32a32.7 32.7 0 0 0-.74 3.49 27.29 27.29 0 0 1 13 7.25 27.22 27.22 0 0 1 7.64 14.74h3.6a30.73 30.73 0 0 0-8.71-17.23 30.85 30.85 0 0 0-14.79-8.25zm-1 7v2.73a3 3 0 0 0 0 .42 20.7 20.7 0 0 1 8.71 5.22 20.77 20.77 0 0 1 5.58 10.09h3.06a23.74 23.74 0 0 0-6.52-12.25 23.94 23.94 0 0 0-10.88-6.24zm.37 6a28.59 28.59 0 0 0 .73 3.2 15 15 0 0 1 3.91 2.84 15.57 15.57 0 0 1 3.86 6.35h2.75a18.28 18.28 0 0 0-4.73-8.19 18.94 18.94 0 0 0-6.57-4.19z" fill="#1a1a1a"/><path d="M41.7 68.82h3.74a47.59 47.59 0 0 0-5.16-11.54l2.49-8.59a55.23 55.23 0 0 1 6.41 10.43l-2.81 9.7L52 49.63l-1.3 4.48a57.14 57.14 0 0 0-6.7-9.58l-7.06 24.29 2-6.72a45.32 45.32 0 0 1 2.76 6.72zm12.1-25.57l2-6.92h-7.75a67.84 67.84 0 0 1 5.75 6.92zm33.14 8l.2-2c.06-.63 0-1.27 0-1.9 0-3.91-1-6.71-3.06-8.42s-5-2.55-9-2.55h-6.4a10.07 10.07 0 0 0-5.13 1.48 18.64 18.64 0 0 0-4.62 3.88 22.1 22.1 0 0 0-3 4.62 66.79 66.79 0 0 1 9.16 22.48 8.14 8.14 0 0 0 .87 0h4.91a12.13 12.13 0 0 0 5.64-1.42 17.63 17.63 0 0 0 4.85-3.8A21.37 21.37 0 0 0 85 58a23.06 23.06 0 0 0 1.94-6.78zm-31.3-4.43l-.22.51-.26.6.26-.6.22-.54zm-.48 1.11a3.7 3.7 0 0 1-.17.4 3.7 3.7 0 0 0 .17-.43zm-.25.62a4.44 4.44 0 0 0-.17.48 4.44 4.44 0 0 1 .17-.51zm-1.48 6.92v.14.11-.11zm-.08 1.61v.06h0zm0 .12v.82c.03-.29 0-.57 0-.85zm0 1.22a8.29 8.29 0 0 0 .06.85 8.29 8.29 0 0 1-.01-.88zm.09 1.07a12.09 12.09 0 0 0 .82 3.35 9.63 9.63 0 0 0 1.16 2.1c-.11-.2-.25-.37-.36-.57l-1.51-4.11c0-.26-.03-.54-.06-.8zm2 5.45a11.86 11.86 0 0 0 1 1.1 11.86 11.86 0 0 1-.97-1.13zM56.52 66l.43.37.59.42-.54-.38c-.19-.11-.34-.26-.48-.41zm6.27-13a13.71 13.71 0 0 1 .25-1.14c.11-.43.26-.87.43-1.36a9.85 9.85 0 0 1 1.19-2.12 14.3 14.3 0 0 1 1.67-1.93 10.85 10.85 0 0 1 1.79-1.39 3.59 3.59 0 0 1 1.67-.51h4a3.86 3.86 0 0 1 2 .45A3.31 3.31 0 0 1 77 46.28a5.13 5.13 0 0 1 .53 1.72 11.7 11.7 0 0 1 .17 2v1.07 1a2 2 0 0 0-.14.54l-.17.63a5.55 5.55 0 0 1-.57 1.33 7.68 7.68 0 0 1-1.3 2.12 17.18 17.18 0 0 1-1.87 1.93A12.86 12.86 0 0 1 71.69 60a3.34 3.34 0 0 1-1.42.51H67.1a2.59 2.59 0 0 1-1.7-.62 6 6 0 0 1-1.4-1.56 7.84 7.84 0 0 1-1-2.18 8.27 8.27 0 0 1-.34-2.3v-.37a1 1 0 0 1 .13-.42zm28 15.76h9.39l7-24.21H113c.25 0 .65-.34 1.24-1a20.16 20.16 0 0 0 1.76-2.33l1.73-2.72a19.75 19.75 0 0 0 1.16-2.24H94.37a9.75 9.75 0 0 0-1.62 1.82l-1.87 2.61-1.59 2.43a7.29 7.29 0 0 0-.68 1.36v.06h9.24z" fill="#fff"/></g><path d="M13.44 40.36a43.85 43.85 0 0 1 17.4 10.74 43.71 43.71 0 0 1 8.05 11h0l-2 6.72h4.81a45.65 45.65 0 0 1 1.9 9h-5.67a38.61 38.61 0 0 0-11.06-22.75 38.88 38.88 0 0 0-17.15-10 28.28 28.28 0 0 1 3.72-4.71zM24 33.3a54.5 54.5 0 0 1 14.3 10.35 56.27 56.27 0 0 1 4.47 5l-2.49 8.59a48.14 48.14 0 0 0-6.92-8.73 47.84 47.84 0 0 0-16.92-10.9A37.42 37.42 0 0 1 20 35.14a20.68 20.68 0 0 1 4-1.84zm25.18 25.82a54.55 54.55 0 0 1 5 18.8h-7a50.18 50.18 0 0 0-1.76-9.07h.93zM38.21 27.8a66.22 66.22 0 0 1 8.65 7.29l1.19 1.24h-1.68L44 44.53l-3.14-3.43a59.91 59.91 0 0 0-11.62-9 62.22 62.22 0 0 1 7.14-.4 21.88 21.88 0 0 1 1.53-3.09 7.61 7.61 0 0 0 .3-.81zm11 9.78l.82.94c-.25-.32-.54-.63-.82-.94zm1.93 2.21a5.48 5.48 0 0 0 .34.46zm.45.57l.34.42zm2.21 2.89a63.74 63.74 0 0 1 4.93 8l-2.83-4.91-.48 1a21.79 21.79 0 0 0-1.82 6.64l-.17 1.64-.08 1.53a17.61 17.61 0 0 0 .25 3.12c-.88-2.1-1.87-4.14-2.94-6.12zm5.1 8.28a18 18 0 0 1 .85 1.7 18 18 0 0 0-.85-1.7zm2 4.11l.42 1c-.15-.29-.32-.64-.43-1zm1.59 4a2.86 2.86 0 0 1 .19.54 2.86 2.86 0 0 0-.2-.49zM65 68.59A67.61 67.61 0 0 1 66.3 78h-8.53a57.14 57.14 0 0 0-2.66-13.58A8.16 8.16 0 0 0 57 66.41a10.27 10.27 0 0 0 4 1.87 21.51 21.51 0 0 0 4.14.51zM8.14 48.1a35.14 35.14 0 0 1 16.41 9.29 35.31 35.31 0 0 1 10.06 20.44h-4.53a30.73 30.73 0 0 0-8.71-17.23 30.85 30.85 0 0 0-14.79-8.28 27.53 27.53 0 0 1 1.56-4.22zm-2.3 7.71a27.29 27.29 0 0 1 13 7.25 27.22 27.22 0 0 1 7.64 14.74h-3.55a23.74 23.74 0 0 0-6.52-12.25 23.94 23.94 0 0 0-10.88-6.26 32.61 32.61 0 0 1 .31-3.48zm-.26 6.63a20.7 20.7 0 0 1 8.71 5.22 20.77 20.77 0 0 1 5.58 10.09h-2.72a18.28 18.28 0 0 0-4.73-8.19 18.94 18.94 0 0 0-6.52-4.2 27.75 27.75 0 0 1-.32-2.92zm1.05 6.09a15 15 0 0 1 3.91 2.84 15.57 15.57 0 0 1 3.86 6.35h-2.1a13.22 13.22 0 0 0-3.14-4.9 11.35 11.35 0 0 0-1.39-1.22 28.61 28.61 0 0 1-1.14-3.07z" fill="#fff"/><circle cx="4.22" cy="78.29" r="4.22" fill="#fff"/></svg>