<svg xmlns="http://www.w3.org/2000/svg" viewBox="0 0 150.37 82.51"><defs><style>.cls-1{fill:#1a1a1a;}.cls-1,.cls-2{fill-rule:evenodd;}.cls-2,.cls-3{fill:#fff;}</style></defs><g id="Layer_2" data-name="Layer 2"><g id="Layer_1-2" data-name="Layer 1"><path class="cls-1" d="M29.23,32.08A26.77,26.77,0,0,0,24,33.3,54.5,54.5,0,0,1,38.3,43.65,54.61,54.61,0,0,1,54.17,77.92h3.6A58.15,58.15,0,0,0,40.85,41.1,59.91,59.91,0,0,0,29.23,32.08ZM16.44,37.61a27,27,0,0,0-3,2.75A43.85,43.85,0,0,1,30.84,51.1,44.31,44.31,0,0,1,43.6,77.86l3.6,0A47.73,47.73,0,0,0,33.36,48.55,47.84,47.84,0,0,0,16.44,37.61ZM9.72,45.09c-.56,1-1.1,2-1.58,3a35.14,35.14,0,0,1,16.41,9.29A35.31,35.31,0,0,1,34.61,77.83l3.32,0A38.61,38.61,0,0,0,26.87,55.07,38.88,38.88,0,0,0,9.72,45.09ZM66.3,78c35.41.08,74.53,0,75.8-.63,7.06-3.43,16.7-32.37-5.56-46.23-6.51-4.08-11-3.8-19.7-3.57-5.47-10.35-7-12.73-14.93-19.22C82.26-7.77,49.32-.09,38.21,27.8a66.22,66.22,0,0,1,8.65,7.29A66.82,66.82,0,0,1,66.3,78ZM6.58,52.32a32.7,32.7,0,0,0-.74,3.49,27.29,27.29,0,0,1,13,7.25A27.22,27.22,0,0,1,26.48,77.8h3.6a30.73,30.73,0,0,0-8.71-17.23A30.85,30.85,0,0,0,6.58,52.32Zm-1,7c0,.91,0,1.82,0,2.73a3,3,0,0,0,0,.42,20.7,20.7,0,0,1,8.71,5.22,20.77,20.77,0,0,1,5.58,10.09l3.06,0a23.74,23.74,0,0,0-6.52-12.25A23.94,23.94,0,0,0,5.53,59.29Zm.37,6a28.59,28.59,0,0,0,.73,3.2,15,15,0,0,1,3.91,2.84,15.57,15.57,0,0,1,3.86,6.35h2.75a18.28,18.28,0,0,0-4.73-8.19A18.94,18.94,0,0,0,5.9,65.33Z"/><path class="cls-2" d="M41.7,68.82h3.74a47.59,47.59,0,0,0-5.16-11.54l2.49-8.59a55.23,55.23,0,0,1,6.41,10.43l-2.81,9.7L52,49.63l-1.3,4.48A57.14,57.14,0,0,0,44,44.53L36.94,68.82l2-6.72A45.32,45.32,0,0,1,41.7,68.82ZM53.8,43.25l2-6.92H48.05A67.84,67.84,0,0,1,53.8,43.25Zm33.14,8c.08-.69.14-1.37.2-2s0-1.27,0-1.9c0-3.91-1-6.71-3.06-8.42s-5-2.55-9-2.55H68.68a10.07,10.07,0,0,0-5.13,1.48,18.64,18.64,0,0,0-4.62,3.88,22.1,22.1,0,0,0-3,4.62,66.79,66.79,0,0,1,9.16,22.48,8.14,8.14,0,0,0,.87,0h4.91a12.13,12.13,0,0,0,5.64-1.42,17.63,17.63,0,0,0,4.85-3.8A21.37,21.37,0,0,0,85,58,23.06,23.06,0,0,0,86.94,51.22Zm-31.3-4.43c-.08.17-.14.34-.22.51l-.26.6.26-.6C55.5,47.13,55.56,47,55.64,46.79Zm-.48,1.11a3.7,3.7,0,0,1-.17.4A3.7,3.7,0,0,0,55.16,47.9Zm-.25.62a4.44,4.44,0,0,0-.17.48A4.44,4.44,0,0,1,54.91,48.52Zm-1.48,6.92v.14l0,.11,0-.11Zm-.08,1.61v.06h0Zm0,.12c0,.28,0,.56,0,.82C53.38,57.73,53.35,57.45,53.35,57.17Zm0,1.22a8.29,8.29,0,0,0,.06.85A8.29,8.29,0,0,1,53.4,58.39Zm.09,1.07a12.09,12.09,0,0,0,.82,3.35,9.63,9.63,0,0,0,1.16,2.1c-.11-.2-.25-.37-.36-.57-.46-1.39-1-2.75-1.51-4.11C53.55,60,53.52,59.72,53.49,59.46Zm2,5.45a11.86,11.86,0,0,0,1,1.1A11.86,11.86,0,0,1,55.47,64.91ZM56.52,66c.14.11.29.26.43.37l.59.42L57,66.41C56.81,66.3,56.66,66.15,56.52,66Zm6.27-13c.05-.31.14-.71.25-1.14s.26-.87.43-1.36a9.85,9.85,0,0,1,1.19-2.12,14.3,14.3,0,0,1,1.67-1.93,10.85,10.85,0,0,1,1.79-1.39,3.59,3.59,0,0,1,1.67-.51h4a3.86,3.86,0,0,1,2,.45A3.31,3.31,0,0,1,77,46.28,5.13,5.13,0,0,1,77.53,48a11.7,11.7,0,0,1,.17,2c0,.36,0,.73,0,1.07s0,.68,0,1a2,2,0,0,0-.14.54l-.17.63a5.55,5.55,0,0,1-.57,1.33,7.68,7.68,0,0,1-1.3,2.12,17.18,17.18,0,0,1-1.87,1.93A12.86,12.86,0,0,1,71.69,60a3.34,3.34,0,0,1-1.42.51H67.1a2.59,2.59,0,0,1-1.7-.62A6,6,0,0,1,64,58.33a7.84,7.84,0,0,1-1-2.18,8.27,8.27,0,0,1-.34-2.3v-.37A1,1,0,0,1,62.79,53.06Zm28,15.76h9.39l7-24.21h5.82c.25,0,.65-.34,1.24-1a20.16,20.16,0,0,0,1.76-2.33c.62-.9,1.19-1.81,1.73-2.72a19.75,19.75,0,0,0,1.16-2.24H94.37a9.75,9.75,0,0,0-1.62,1.82c-.65.82-1.28,1.7-1.87,2.61s-1.14,1.7-1.59,2.43a7.29,7.29,0,0,0-.68,1.36v.06h9.24Z"/><path class="cls-3" d="M13.44,40.36A43.85,43.85,0,0,1,30.84,51.1a43.71,43.71,0,0,1,8.05,11h0l-2,6.72H41.7a45.65,45.65,0,0,1,1.9,9H37.93A38.61,38.61,0,0,0,26.87,55.07a38.88,38.88,0,0,0-17.15-10A28.28,28.28,0,0,1,13.44,40.36Z"/><path class="cls-3" d="M24,33.3A54.5,54.5,0,0,1,38.3,43.65a56.27,56.27,0,0,1,4.47,5l-2.49,8.59a48.14,48.14,0,0,0-6.92-8.73A47.84,47.84,0,0,0,16.44,37.61,37.42,37.42,0,0,1,20,35.14,20.68,20.68,0,0,1,24,33.3ZM49.18,59.12a54.55,54.55,0,0,1,5,18.8l-7,0a50.18,50.18,0,0,0-1.76-9.07h.93Z"/><path class="cls-3" d="M38.21,27.8a66.22,66.22,0,0,1,8.65,7.29c.39.42.79.82,1.19,1.24H46.37L44,44.53c-1-1.2-2.07-2.33-3.14-3.43a59.91,59.91,0,0,0-11.62-9,62.22,62.22,0,0,1,7.14-.4,21.88,21.88,0,0,1,1.53-3.09A7.61,7.61,0,0,0,38.21,27.8Zm11,9.78c.28.31.57.62.82.94C49.78,38.2,49.49,37.89,49.21,37.58Zm1.93,2.21a5.48,5.48,0,0,0,.34.46Zm.45.57.34.42Zm2.21,2.89a63.74,63.74,0,0,1,4.93,8c-.87-1.68-1.84-3.32-2.83-4.91-.17.34-.34.65-.48,1a21.79,21.79,0,0,0-1.82,6.64c-.08.56-.14,1.1-.17,1.64s-.08,1.05-.08,1.53a17.61,17.61,0,0,0,.25,3.12c-.88-2.1-1.87-4.14-2.94-6.12Zm5.1,8.28a18,18,0,0,1,.85,1.7A18,18,0,0,0,58.9,51.53Zm2,4.11c.14.34.28.71.42,1C61.17,56.35,61,56,60.89,55.64Zm1.59,4a2.86,2.86,0,0,1,.19.54A2.86,2.86,0,0,0,62.48,59.69ZM65,68.59A67.61,67.61,0,0,1,66.3,78c-2.86,0-5.72,0-8.53,0a57.14,57.14,0,0,0-2.66-13.58A8.16,8.16,0,0,0,57,66.41a10.27,10.27,0,0,0,4,1.87,21.51,21.51,0,0,0,4.14.51Z"/><path class="cls-3" d="M8.14,48.1a35.14,35.14,0,0,1,16.41,9.29A35.31,35.31,0,0,1,34.61,77.83l-4.53,0a30.73,30.73,0,0,0-8.71-17.23A30.85,30.85,0,0,0,6.58,52.32,27.53,27.53,0,0,1,8.14,48.1Z"/><path class="cls-3" d="M5.84,55.81a27.29,27.29,0,0,1,13,7.25A27.22,27.22,0,0,1,26.48,77.8l-3.55,0a23.74,23.74,0,0,0-6.52-12.25A23.94,23.94,0,0,0,5.53,59.29,32.61,32.61,0,0,1,5.84,55.81Z"/><path class="cls-3" d="M5.58,62.44a20.7,20.7,0,0,1,8.71,5.22,20.77,20.77,0,0,1,5.58,10.09l-2.72,0a18.28,18.28,0,0,0-4.73-8.19,18.94,18.94,0,0,0-6.52-4.2A27.75,27.75,0,0,1,5.58,62.44Z"/><path class="cls-3" d="M6.63,68.53a15,15,0,0,1,3.91,2.84,15.57,15.57,0,0,1,3.86,6.35l-2.1,0a13.22,13.22,0,0,0-3.14-4.9,11.35,11.35,0,0,0-1.39-1.22A28.61,28.61,0,0,1,6.63,68.53Z"/><circle class="cls-3" cx="4.22" cy="78.29" r="4.22"/></g></g></svg>