<svg xmlns="http://www.w3.org/2000/svg" viewBox="0 0 150.37 82.5"><defs><style>.cls-1{fill:#ff4655;}.cls-1,.cls-2{fill-rule:evenodd;}.cls-2,.cls-3{fill:#1a1a1a;}</style></defs><g id="Layer_2" data-name="Layer 2"><g id="Layer_1-2" data-name="Layer 1"><path class="cls-1" d="M29.23,32.07A26.77,26.77,0,0,0,24,33.29,54.72,54.72,0,0,1,38.3,43.64,54.61,54.61,0,0,1,54.17,77.91h3.6A58.17,58.17,0,0,0,40.85,41.09,60.3,60.3,0,0,0,29.23,32.07ZM16.44,37.6a27,27,0,0,0-3,2.75,44,44,0,0,1,17.4,10.74A44.34,44.34,0,0,1,43.6,77.85l3.6,0A47.73,47.73,0,0,0,33.36,48.54,47.84,47.84,0,0,0,16.44,37.6ZM9.72,45.11a31,31,0,0,0-1.58,3,35.15,35.15,0,0,1,16.41,9.3A35.25,35.25,0,0,1,34.61,77.82l3.32,0A38.61,38.61,0,0,0,26.87,55.06,38.63,38.63,0,0,0,9.72,45.11ZM66.3,77.94c35.41.08,74.53,0,75.8-.63,7.06-3.43,16.7-32.37-5.56-46.23-6.51-4.08-11-3.8-19.7-3.57-5.47-10.32-7-12.73-14.93-19.19C82.26-7.78,49.32-.1,38.21,27.79a67,67,0,0,1,8.65,7.29A66.82,66.82,0,0,1,66.3,77.94ZM6.58,52.31a33.23,33.23,0,0,0-.74,3.49,27.09,27.09,0,0,1,13,7.28A27.16,27.16,0,0,1,26.48,77.8h3.6a30.79,30.79,0,0,0-8.71-17.24A30.93,30.93,0,0,0,6.58,52.31Zm-1,7c0,.9,0,1.81,0,2.72a3,3,0,0,0,0,.42,20.7,20.7,0,0,1,8.71,5.22,20.81,20.81,0,0,1,5.58,10.09l3.06,0a23.74,23.74,0,0,0-6.52-12.25A24.1,24.1,0,0,0,5.53,59.29Zm.37,6a28.79,28.79,0,0,0,.73,3.21,14.77,14.77,0,0,1,3.91,2.83,15.57,15.57,0,0,1,3.86,6.35h2.75a18.28,18.28,0,0,0-4.73-8.19A19.08,19.08,0,0,0,5.9,65.32Z"/><path class="cls-2" d="M41.7,68.81h3.74a47.76,47.76,0,0,0-5.16-11.54l2.49-8.59a55.31,55.31,0,0,1,6.41,10.44l-2.81,9.69L52,49.62l-1.3,4.48A57.55,57.55,0,0,0,44,44.52L36.94,68.81l2-6.72A45.77,45.77,0,0,1,41.7,68.81ZM53.8,43.24l2-6.91H48.05A66.65,66.65,0,0,1,53.8,43.24Zm33.14,8c.08-.71.14-1.39.2-2.05s0-1.27,0-1.89c0-3.92-1-6.72-3.06-8.42s-5-2.55-9-2.55H68.68a10.06,10.06,0,0,0-5.13,1.47,18.64,18.64,0,0,0-4.62,3.88,22.91,22.91,0,0,0-3,4.62,66.78,66.78,0,0,1,9.16,22.51h5.78a12.13,12.13,0,0,0,5.64-1.42,17.63,17.63,0,0,0,4.85-3.8A21.54,21.54,0,0,0,85,58,23,23,0,0,0,86.94,51.24Zm-31.3-4.45c-.08.17-.14.34-.22.51l-.26.59.26-.59C55.5,47.13,55.56,47,55.64,46.79Zm-.48,1.1a3.7,3.7,0,0,1-.17.4A3.7,3.7,0,0,0,55.16,47.89Zm-.25.62-.17.49Zm-1.48,6.92v.14l0,.12,0-.12Zm-.08,1.62v.05h0Zm0,.11c0,.28,0,.57,0,.82C53.38,57.73,53.35,57.44,53.35,57.16Zm0,1.25a8.12,8.12,0,0,0,.06.82A8.12,8.12,0,0,1,53.4,58.41Zm.09,1.05a12.11,12.11,0,0,0,.82,3.34,9.4,9.4,0,0,0,1.16,2.1c-.11-.2-.25-.37-.36-.57-.46-1.39-1-2.75-1.51-4.11C53.55,60,53.52,59.71,53.49,59.46Zm2,5.44a10.71,10.71,0,0,0,1,1.1A10.71,10.71,0,0,1,55.47,64.9ZM56.52,66c.14.12.29.26.43.37l.59.43L57,66.4C56.81,66.29,56.66,66.15,56.52,66Zm6.27-13c.05-.31.14-.68.25-1.13s.26-.88.43-1.36a9.91,9.91,0,0,1,1.19-2.13,14.3,14.3,0,0,1,1.67-1.93,10.85,10.85,0,0,1,1.79-1.39,3.59,3.59,0,0,1,1.67-.51h4a3.77,3.77,0,0,1,2,.46A3.17,3.17,0,0,1,77,46.28,5.08,5.08,0,0,1,77.53,48a11.79,11.79,0,0,1,.17,2c0,.37,0,.74,0,1.08s0,.68,0,1c0-.06-.06.14-.14.53l-.17.63a5.39,5.39,0,0,1-.57,1.33,7.88,7.88,0,0,1-1.3,2.13,17.06,17.06,0,0,1-1.87,1.92A11,11,0,0,1,71.69,60a3.34,3.34,0,0,1-1.42.51H67.1a2.72,2.72,0,0,1-1.7-.59A6.67,6.67,0,0,1,64,58.32a8.06,8.06,0,0,1-1-2.15,8.54,8.54,0,0,1-.34-2.3V53.5A1.15,1.15,0,0,1,62.79,53.05Zm28,15.76h9.39l7-24.21h5.82c.25,0,.65-.34,1.24-1a20.88,20.88,0,0,0,1.76-2.32c.62-.88,1.19-1.82,1.73-2.73a20.65,20.65,0,0,0,1.16-2.23H94.37a9.32,9.32,0,0,0-1.62,1.81c-.65.82-1.28,1.7-1.87,2.61s-1.14,1.7-1.59,2.44a7,7,0,0,0-.68,1.36v.05h9.24Z"/><path class="cls-3" d="M13.44,40.35a44,44,0,0,1,17.4,10.74,43.71,43.71,0,0,1,8.05,11h0l-2,6.72H41.7a45.49,45.49,0,0,1,1.9,9.07l-5.67,0A38.61,38.61,0,0,0,26.87,55.06a38.63,38.63,0,0,0-17.15-10A27.71,27.71,0,0,1,13.44,40.35Z"/><path class="cls-3" d="M24,33.29A54.72,54.72,0,0,1,38.3,43.64a59.19,59.19,0,0,1,4.47,5l-2.49,8.59a48.14,48.14,0,0,0-6.92-8.73A47.84,47.84,0,0,0,16.44,37.6,37.42,37.42,0,0,1,20,35.13,22.71,22.71,0,0,1,24,33.29ZM49.18,59.12a54.44,54.44,0,0,1,5,18.79l-7,0a50.18,50.18,0,0,0-1.76-9.07h.93Z"/><path class="cls-3" d="M38.21,27.79a67,67,0,0,1,8.65,7.29c.39.42.79.82,1.19,1.25H46.37L44,44.52c-1-1.19-2.07-2.33-3.14-3.43a60.3,60.3,0,0,0-11.62-9,62.35,62.35,0,0,1,7.14-.39,20.87,20.87,0,0,1,1.53-3.09C38,28.33,38.13,28.05,38.21,27.79Zm11,9.78c.28.31.57.63.82.94C49.78,38.2,49.49,37.88,49.21,37.57Zm1.93,2.24.34.43Zm.45.54.34.43Zm2.21,2.89a63.74,63.74,0,0,1,4.93,8c-.87-1.68-1.84-3.32-2.83-4.91-.17.34-.34.66-.48,1a21.65,21.65,0,0,0-1.82,6.63c-.08.57-.14,1.1-.17,1.64s-.08,1-.08,1.53a17.53,17.53,0,0,0,.25,3.12c-.88-2.1-1.87-4.14-2.94-6.12Zm5.1,8.31a15.42,15.42,0,0,1,.85,1.67A15.42,15.42,0,0,0,58.9,51.55Zm2,4.08c.14.37.28.71.42,1C61.17,56.34,61,56,60.89,55.63Zm1.59,4a2.86,2.86,0,0,1,.19.54A2.86,2.86,0,0,0,62.48,59.68ZM65,68.58a68.45,68.45,0,0,1,1.27,9.36c-2.86,0-5.72,0-8.53,0a57.14,57.14,0,0,0-2.66-13.58A8.16,8.16,0,0,0,57,66.4a10.27,10.27,0,0,0,4,1.87,23.15,23.15,0,0,0,4.14.54Z"/><path class="cls-3" d="M8.14,48.09a35.15,35.15,0,0,1,16.41,9.3A35.25,35.25,0,0,1,34.61,77.82l-4.53,0a30.79,30.79,0,0,0-8.71-17.24A30.93,30.93,0,0,0,6.58,52.31,27.53,27.53,0,0,1,8.14,48.09Z"/><path class="cls-3" d="M5.84,55.8a27.09,27.09,0,0,1,13,7.28A27.16,27.16,0,0,1,26.48,77.8l-3.55,0a23.74,23.74,0,0,0-6.52-12.25A24.1,24.1,0,0,0,5.53,59.29,32.8,32.8,0,0,1,5.84,55.8Z"/><path class="cls-3" d="M5.58,62.43a20.7,20.7,0,0,1,8.71,5.22,20.81,20.81,0,0,1,5.58,10.09l-2.72,0a18.28,18.28,0,0,0-4.73-8.19,19.08,19.08,0,0,0-6.52-4.2A27.45,27.45,0,0,1,5.58,62.43Z"/><path class="cls-3" d="M6.63,68.53a14.77,14.77,0,0,1,3.91,2.83,15.57,15.57,0,0,1,3.86,6.35l-2.1,0a13.22,13.22,0,0,0-3.14-4.9,14.62,14.62,0,0,0-1.39-1.22A28.42,28.42,0,0,1,6.63,68.53Z"/><circle class="cls-3" cx="4.22" cy="78.28" r="4.22"/></g></g></svg>