<svg xmlns="http://www.w3.org/2000/svg" viewBox="0 0 137.93 80.99"><defs><style>.cls-1,.cls-3{fill:#ff4655;}.cls-2,.cls-4{fill:#fff;}.cls-2,.cls-3{fill-rule:evenodd;}</style></defs><g id="Layer_2" data-name="Layer 2"><g id="Layer_1-2" data-name="Layer 1"><path class="cls-1" d="M109.84,6.35A21.4,21.4,0,0,1,129.66,36a21.4,21.4,0,0,1-19.82,13.24,21.48,21.48,0,0,1-7.42-1.3,1.09,1.09,0,0,1,.08-.15.69.69,0,0,0,.09-.17l.17-.34a1.18,1.18,0,0,0,.17-.36.52.52,0,0,1,.11-.2H99.72a26.37,26.37,0,0,1-2.46-1.56h2.41l3-3.52H97.85l-2,2.38L97,39.91h6.43c.09,0,.29-.14.51-.4a8.3,8.3,0,0,0,.77-1c.26-.39.48-.76.71-1.16s.4-.71.51-1h-5.47l5.3-7.29-12.1-3.94a6.83,6.83,0,0,0-.12.77,18.37,18.37,0,0,0-.11,1.84,16.38,16.38,0,0,0,1.25,6.29,15.15,15.15,0,0,0,1.21,2.33H94.11l-1.3,4.39c-.51-.68-1-1.42-1.45-2.15a4,4,0,0,0,.28-.37c.4-.6.83-1.19,1.22-1.87H90.23L90.06,36a21.19,21.19,0,0,1-1.65-8.19,21.42,21.42,0,0,1,1.65-8.19A21.52,21.52,0,0,1,101.65,8,21.41,21.41,0,0,1,109.84,6.35Zm2.53,18,12.1-3.94a13.2,13.2,0,0,0-1-1.78,16.11,16.11,0,0,0-2-2.39,16.18,16.18,0,0,0-9.07-4.62Zm13.66.85-12.11,3.94,7.49,10.29,0,0a15.94,15.94,0,0,0,3.57-5.3,16.56,16.56,0,0,0,1.25-6.29,18.34,18.34,0,0,0-.12-1.84A6.8,6.8,0,0,0,126,25.17Zm-8.68,17.21-7.51-10.32-7.48,10.32a16.86,16.86,0,0,0,11.85,1.22A16.76,16.76,0,0,0,117.35,42.38Zm-22.11-22,12.08,3.94V11.59a16.23,16.23,0,0,0-9,4.62,15.78,15.78,0,0,0-2,2.39C95.9,19.16,95.56,19.76,95.24,20.38Z"/><path class="cls-1" d="M58.79,0A27.82,27.82,0,0,1,69.42,2.13a27.18,27.18,0,0,1,9,6,28.07,28.07,0,0,1,6,9,27.53,27.53,0,0,1,2.1,10.6,27.88,27.88,0,0,1-1.36,8.62h-1a3.33,3.33,0,0,0-2.07.71,6,6,0,0,0-1.73,1.78,8.61,8.61,0,0,0-1.19,2.41,8.16,8.16,0,0,0-.43,2.58,7.48,7.48,0,0,0,.43,2.69c-.26.29-.54.57-.83.85s-.48.46-.7.68l-1-8a21.68,21.68,0,0,0,3.83-12.33c0-.82-.06-1.64-.14-2.44-.06-.45-.11-.91-.2-1.36L63.64,29.37l6.63,9.12L66.84,44l-2.13-2.92,1.37-4.65H61.34l-2.55-3.52L55.11,38l-.23-1.56h-5l-4,13.77h4l.66-2.26a22.66,22.66,0,0,0,2.52.87h0l.2,1.39h1.44l.68-.9a19.93,19.93,0,0,0,2.92.28l-.2.62h4l.26-.9c.48-.06.93-.17,1.38-.26l-.59.91V50a1.17,1.17,0,0,1,0,.17h8.79a1.59,1.59,0,0,0,.45-.48c.2-.28.43-.57.65-.91s.4-.65.57-.93a4.82,4.82,0,0,0,.28-.6l.46,2.92h1a26.21,26.21,0,0,1-5.81,3.29A27.79,27.79,0,0,1,33.11,17.18a28.39,28.39,0,0,1,6-9,27.18,27.18,0,0,1,9-6A27.7,27.7,0,0,1,58.79,0Zm3,23.64,16.58-5.38a22.73,22.73,0,0,0-1.56-2.67,22.21,22.21,0,0,0-2.64-3.2A21.77,21.77,0,0,0,68,8.05a21.55,21.55,0,0,0-6.2-1.81ZM72.51,41.56l.82,1.16.48,4H69.62v-.28Zm-28.83,1.9L53.94,29.37,37.36,24c-.08.45-.14.91-.2,1.36-.08.8-.14,1.62-.14,2.44A21.55,21.55,0,0,0,43.4,43.17ZM39.2,18.26l16.59,5.38V6.24A21.43,21.43,0,0,0,43.4,12.39a22.21,22.21,0,0,0-2.64,3.2A24.22,24.22,0,0,0,39.2,18.26Z"/><path class="cls-2" d="M19.45,23l18.48,9.27V26.79h75V60.86h-75V55.39l-18.48,9.3Zm42.6,27.21,4-13.77H61l-5.1,6.91-1-6.91h-5l-4,13.77h4l2.24-7.74,1.14,7.74h1.44l5.64-7.74-2.24,7.74Zm15.93,0L76.59,39a5.78,5.78,0,0,0-.17-.76,6,6,0,0,0-.2-.88,2.92,2.92,0,0,0-.31-.71c-.11-.17-.22-.28-.37-.28H72.06a.62.62,0,0,0-.37.2,3.9,3.9,0,0,0-.46.45,5.77,5.77,0,0,0-.39.51,1.24,1.24,0,0,0-.23.4l-7.51,12V50a1.17,1.17,0,0,1,0,.17h8.79a1.59,1.59,0,0,0,.45-.48c.2-.28.43-.57.65-.91s.4-.65.57-.93a4.82,4.82,0,0,0,.28-.6l.46,2.92Zm-8.36-3.74,3.49-5.84.7,6.12H69.62Zm21.8-4.82-2.61,8.56H85.69a10.39,10.39,0,0,1-2.49-.28,5.55,5.55,0,0,1-2.21-1A5.45,5.45,0,0,1,79.43,47a7,7,0,0,1-.6-3.09,8.16,8.16,0,0,1,.43-2.58,8.61,8.61,0,0,1,1.19-2.41,6,6,0,0,1,1.73-1.78,3.33,3.33,0,0,1,2.07-.71h8.61c-.39.68-.82,1.27-1.22,1.87a12.2,12.2,0,0,1-1.36,1.64H84.87a1,1,0,0,0-.62.23,2.3,2.3,0,0,0-.57.59,4.32,4.32,0,0,0-.48.83,5.21,5.21,0,0,0-.34.87c0,.23-.09.4-.12.6a2.9,2.9,0,0,0,0,.48,2.81,2.81,0,0,0,.2,1.05,4.48,4.48,0,0,0,.53,1,3.76,3.76,0,0,0,.68.79,1.36,1.36,0,0,0,.77.32h1.25L86.6,45H84.25v0l.25-.51c.17-.29.34-.6.57-1s.45-.71.71-1a6,6,0,0,1,.65-.82Zm2.69-5.21-4,13.77h10.48s.12-.08.26-.25a6.38,6.38,0,0,0,.54-.63c.23-.25.42-.51.65-.79a3.8,3.8,0,0,0,.51-.74.69.69,0,0,0,.09-.17l.17-.34a1.18,1.18,0,0,0,.17-.36.52.52,0,0,1,.11-.2h-8l.46-1.56h4.14l3-3.52H97.85l-2,2.38L97,39.91h6.43c.09,0,.29-.14.51-.4a8.3,8.3,0,0,0,.77-1c.26-.39.48-.76.71-1.16s.4-.71.51-1Z"/><path class="cls-3" d="M1.42,63c.37.65.11.42.76.73l-1.05.43c.34.62.12,0,.51.79l-1.13.31.57.94c0,.34-1.56.06.56.57a2.07,2.07,0,0,0-.45.17c-.37.19-.17.08-.42.31,1.41.2.59-.09,1.24.39l-1.1.29.45.28c.2.26.57.17-1.22.8.46.73.06.56.46,1s.7.4,1,.83L.2,71.35l-.2.08c.43.63.37.48,1.25.71-.48.48-.43.23-.71.82,1.3,0,.71.15,1.64.68-.22.66-.25.06-.48.74S2.15,76.08,2,77l.94.45a.19.19,0,0,1,.14.09l-1.28.36c.94.37.54.09,1.11.68-1,.23-1.16.32-1.33,1.56,1,.29.71.17,1.22.83,3.37-.77,10.8-1,14.91-1.51l81.78-8c8.67-1,17.46-1.67,26.13-2.61,1.5-.14,10.86-.68,11.51-1.36,0-.06-.2,0,.17-.2a4.14,4.14,0,0,1,.43-.2l.19-.48a.26.26,0,0,0-.17,0s-.14,0-.17-.06a4.18,4.18,0,0,1-.65-.11c0-.09-.2-.6-.2-.63,0-.71-.11.12.23-.39l.14-.23c.46-1,.06-1.53-1.47-1.9.22-.94.22-.4-.06-1.13l1.13-.77-.62-.34c1.76-.37,1.22-.91-.2-1.08.57-.37.74-.37.94-.82-.68-.23-3.26-.23-2-1.05.25-.14.51-.17.79-.34,1.31-.76-.23-.05.37-.68s.23.37.54-.65l-1.76-.11L136,55.22c-.54-.28-.06-.09-.77-.26a7.65,7.65,0,0,1-.85-.14c.06-.79.68-.51,1.28-1.08-1.08-1.13-2.16.15-2.95-1l-.12-.17c-.17-.36-.25-.25.2-.59s1.56-.45-.05-.74l.82-.65c-.77-.31-.71-.08-1.45-.34l.94-.43c-1.82-.11-1-.19-.91-.51,0,0,.06,0,.06-.08-3.26-.54-10.38.71-14.12,1-12,1.05-24,2.3-35.91,3.46L1.93,61.48s0,.06,0,.09,0,.06,0,.08Z"/><path class="cls-4" d="M34.27,63.58l5.42,9.5-3.83.37L35,71.83l-4.9.48L29.45,74l-3.8.37,3.49-10.35ZM31,69.34l2.56-.26L32,66.61Z"/><path id="_1" data-name="1" class="cls-4" d="M44.67,62.53a15.85,15.85,0,0,1,3.24,0,5.64,5.64,0,0,1,2.21.74,3.44,3.44,0,0,1,1.27,1.27,4.74,4.74,0,0,1,.54,1.82l-3.4.31a.58.58,0,0,0-.06-.17,2,2,0,0,0-.28-.37,2.75,2.75,0,0,0-.62-.45,3.39,3.39,0,0,0-1-.28,5.77,5.77,0,0,0-1.62,0,7.91,7.91,0,0,0-1.39.25,2.89,2.89,0,0,0-.93.43,1.8,1.8,0,0,0-.49.54,1.5,1.5,0,0,0-.22.62,4.5,4.5,0,0,0,0,.65,2.76,2.76,0,0,0,.25.88,2.14,2.14,0,0,0,.57.65,3.2,3.2,0,0,0,1.05.4,7.26,7.26,0,0,0,1.62,0A8.91,8.91,0,0,0,47,69.51a3.17,3.17,0,0,0,1-.46,2.34,2.34,0,0,0,.48-.45.58.58,0,0,0,.17-.37l0-.14L52,67.78a4.19,4.19,0,0,1,0,1.33,3.32,3.32,0,0,1-.54,1.19,3.87,3.87,0,0,1-1.14,1,7.19,7.19,0,0,1-1.87.76,16.29,16.29,0,0,1-2.75.49,17.83,17.83,0,0,1-3.26,0,5.06,5.06,0,0,1-2.15-.73A3.63,3.63,0,0,1,39,70.47a6.24,6.24,0,0,1-.56-2.16,6,6,0,0,1,.22-2.43,3.43,3.43,0,0,1,1.14-1.73,5.79,5.79,0,0,1,2-1.08A15.55,15.55,0,0,1,44.67,62.53Z"/><path id="_2" data-name="2" class="cls-4" d="M60.49,61.17l5.42,9.5L62.08,71l-.91-1.59-4.9.45-.6,1.73-3.8.37,3.49-10.35Zm-3.32,5.76,2.56-.26L58.2,64.2Z"/><path id="_3" data-name="3" class="cls-4" d="M72.77,70.07l-6.86.65L65,60.8l6.8-.65a13.32,13.32,0,0,1,1.73-.06,6.37,6.37,0,0,1,1.56.29,3.88,3.88,0,0,1,1.36.73,4.15,4.15,0,0,1,1,1.37,7.11,7.11,0,0,1,.51,2.09,5.3,5.3,0,0,1-.15,2,3.79,3.79,0,0,1-.76,1.5,5,5,0,0,1-1.22,1,6.41,6.41,0,0,1-1.45.65A9,9,0,0,1,72.77,70.07Zm-.49-2.69A3.12,3.12,0,0,0,73.59,67a1.75,1.75,0,0,0,.71-.87,2.75,2.75,0,0,0,.17-1.17,2.09,2.09,0,0,0-2.61-2l-3.32.31L69,67.69Z"/><polygon id="_4" data-name="4" class="cls-4" points="78.01 59.58 88.98 58.53 89.26 61.28 81.58 62.02 81.67 62.9 88.87 62.22 89.09 64.86 81.89 65.54 82.01 66.44 89.66 65.71 89.94 68.48 78.94 69.53 78.01 59.58"/><polygon id="_5" data-name="5" class="cls-4" points="99.3 67.64 96.58 67.89 93.71 63.75 94.14 68.12 90.82 68.43 89.89 58.48 93.83 58.11 97.57 63.33 100.26 57.49 104.2 57.12 105.17 67.07 101.85 67.38 101.42 62.99 99.3 67.64"/><polygon id="_6" data-name="6" class="cls-4" points="113.98 56.24 117.89 55.87 113.75 63.35 114.01 66.27 110.72 66.59 110.44 63.67 104.97 57.09 108.88 56.72 111.74 59.92 113.98 56.24"/><polygon class="cls-2" points="19.45 22.96 34.84 30.67 34.84 56.95 19.45 64.69 19.45 22.96"/></g></g></svg>