<svg xmlns="http://www.w3.org/2000/svg" viewBox="0 0 137.93 80.99"><defs><style>.cls-1,.cls-3{fill:#fff;}.cls-2,.cls-4{fill:#1a1a1a;}.cls-2,.cls-3{fill-rule:evenodd;}</style></defs><g id="Layer_2" data-name="Layer 2"><g id="Layer_1-2" data-name="Layer 1"><path class="cls-1" d="M109.84,6.35A21.18,21.18,0,0,1,118,8a21.72,21.72,0,0,1,7,4.67,21.42,21.42,0,0,1-15.17,36.57,20.82,20.82,0,0,1-7.42-1.33.83.83,0,0,1,.08-.12,1.81,1.81,0,0,0,.09-.17l.17-.34a1.62,1.62,0,0,0,.17-.36l.11-.23H99.72a17.93,17.93,0,0,1-2.46-1.56h2.41l3-3.49H97.85l-2,2.38L97,39.91h6.43c.09,0,.29-.14.51-.42a6.71,6.71,0,0,0,.77-1c.26-.39.48-.79.71-1.16s.4-.71.51-1h-5.47l5.3-7.29-12.1-3.94a6.83,6.83,0,0,0-.12.77,18.37,18.37,0,0,0-.11,1.84A16.19,16.19,0,0,0,94.71,34a14.19,14.19,0,0,0,1.21,2.36H94.11l-1.3,4.39c-.51-.68-1-1.42-1.45-2.15a4,4,0,0,0,.28-.37c.4-.6.83-1.22,1.22-1.87H90.23L90.06,36a21.15,21.15,0,0,1,0-16.38,20.61,20.61,0,0,1,4.65-6.95,21.19,21.19,0,0,1,15.13-6.29Zm2.53,18,12.1-3.94a13.2,13.2,0,0,0-1-1.78,17.37,17.37,0,0,0-2-2.41,16.67,16.67,0,0,0-4.65-3.26,15.32,15.32,0,0,0-4.42-1.34Zm13.66.85-12.11,3.94,7.49,10.29,0,0A15.77,15.77,0,0,0,125,34a16.37,16.37,0,0,0,1.25-6.26,18.34,18.34,0,0,0-.12-1.84A6.8,6.8,0,0,0,126,25.17Zm-8.68,17.21-7.51-10.32-7.48,10.32a16.86,16.86,0,0,0,11.85,1.22A16.76,16.76,0,0,0,117.35,42.38Zm-22.11-22,12.08,3.94V11.59a15.32,15.32,0,0,0-4.39,1.34,16.52,16.52,0,0,0-4.65,3.26,17,17,0,0,0-2,2.41C95.9,19.16,95.56,19.76,95.24,20.38Z"/><path class="cls-1" d="M58.79,0A28.37,28.37,0,0,1,69.42,2.1,27.84,27.84,0,0,1,85.21,36.4h-1a3.33,3.33,0,0,0-2.07.71,6.27,6.27,0,0,0-1.73,1.75,8.79,8.79,0,0,0-1.19,2.44,8.12,8.12,0,0,0-.43,2.55,7.54,7.54,0,0,0,.43,2.72c-.26.29-.54.57-.83.85s-.48.46-.7.68l-1-8a21.75,21.75,0,0,0,3.83-12.33c0-.82-.06-1.64-.14-2.44-.06-.45-.11-.93-.2-1.36L63.64,29.37l6.63,9.1L66.84,44l-2.13-2.92,1.37-4.65H61.34l-2.55-3.52L55.11,38l-.23-1.56h-5l-4,13.77h4l.66-2.26a22.66,22.66,0,0,0,2.52.87h0l.2,1.39h1.44l.68-.9a19.93,19.93,0,0,0,2.92.28l-.2.62h4l.26-.9L63.69,49l-.59.91V50s0,0,0,.17h8.79a1.92,1.92,0,0,0,.45-.48c.2-.28.43-.59.65-.91s.4-.65.57-.93.26-.51.28-.6l.46,2.92h1a27.46,27.46,0,0,1-5.81,3.29A27.79,27.79,0,0,1,48.16,2.1,28.25,28.25,0,0,1,58.79,0Zm3,23.64,16.58-5.38a22.73,22.73,0,0,0-1.56-2.67,22.21,22.21,0,0,0-2.64-3.2A21.77,21.77,0,0,0,68,8.05a20.65,20.65,0,0,0-6.2-1.81ZM72.51,41.56l.82,1.13.48,4H69.62v-.26Zm-28.83,1.9L53.94,29.37,37.36,24c-.08.43-.14.91-.2,1.36-.08.8-.14,1.62-.14,2.44a22.09,22.09,0,0,0,1.64,8.33,21.82,21.82,0,0,0,4.74,7.06ZM39.2,18.26l16.59,5.38V6.24a20.71,20.71,0,0,0-6.21,1.81,21.77,21.77,0,0,0-6.18,4.34,22.21,22.21,0,0,0-2.64,3.2A24.22,24.22,0,0,0,39.2,18.26Z"/><path class="cls-2" d="M19.45,22.93l18.48,9.3V26.76h75v34.1h-75V55.39l-18.48,9.3Zm42.6,27.24,4-13.77H61l-5.1,6.91-1-6.91h-5l-4,13.77h4l2.24-7.74,1.14,7.74h1.44l5.64-7.74-2.24,7.74Zm15.93,0L76.59,39a5.78,5.78,0,0,0-.17-.76,6,6,0,0,0-.2-.88,2.92,2.92,0,0,0-.31-.71c-.11-.17-.22-.28-.37-.28H72.06a.62.62,0,0,0-.37.2,3.9,3.9,0,0,0-.46.45,3.27,3.27,0,0,0-.39.51,1.24,1.24,0,0,0-.23.4l-7.51,12V50s0,0,0,.17h8.79a1.92,1.92,0,0,0,.45-.48c.2-.28.43-.59.65-.91s.4-.65.57-.93.26-.51.28-.6l.46,2.92Zm-8.36-3.74,3.49-5.84.7,6.1H69.62Zm21.8-4.82-2.61,8.56H85.69a10.39,10.39,0,0,1-2.49-.28,6,6,0,0,1-2.21-1A5.45,5.45,0,0,1,79.43,47a7.14,7.14,0,0,1-.6-3.12,8.12,8.12,0,0,1,.43-2.55,8.79,8.79,0,0,1,1.19-2.44,6.27,6.27,0,0,1,1.73-1.75,3.33,3.33,0,0,1,2.07-.71h8.61c-.39.65-.82,1.27-1.22,1.87a12.2,12.2,0,0,1-1.36,1.64H84.87a1,1,0,0,0-.62.23,2.56,2.56,0,0,0-.57.57,6.54,6.54,0,0,0-.48.82,6.78,6.78,0,0,0-.34.9c0,.2-.09.4-.12.6a2.9,2.9,0,0,0,0,.48,2.81,2.81,0,0,0,.2,1.05,4.48,4.48,0,0,0,.53,1,3.21,3.21,0,0,0,.68.77,1.22,1.22,0,0,0,.77.31h1.25L86.6,45H84.25v0l.25-.51c.17-.29.34-.6.57-1s.45-.71.71-1a4.57,4.57,0,0,1,.65-.82Zm2.69-5.21-4,13.77h10.48s.12-.08.26-.25a6.38,6.38,0,0,0,.54-.63c.23-.25.42-.53.65-.79a5,5,0,0,0,.51-.74,1.81,1.81,0,0,0,.09-.17l.17-.34a1.62,1.62,0,0,0,.17-.36l.11-.23h-8l.46-1.56h4.14l3-3.49H97.85l-2,2.38L97,39.91h6.43c.09,0,.29-.14.51-.42a6.71,6.71,0,0,0,.77-1c.26-.39.48-.79.71-1.16s.4-.71.51-1Z"/><path class="cls-3" d="M1.42,63c.37.62.11.42.76.7l-1.05.46c.34.62.12,0,.51.76l-1.13.34.57.94c0,.34-1.56.06.56.57a1.94,1.94,0,0,0-.45.14c-.37.22-.17.11-.42.34,1.41.2.59-.12,1.24.39l-1.1.26.45.31c.2.26.57.14-1.22.77.46.76.06.59.46,1.07s.7.4,1,.83L.2,71.35l-.2.08c.43.63.37.48,1.25.71-.48.46-.43.23-.71.8,1.3,0,.71.17,1.64.68-.22.65-.25.08-.48.73S2.15,76.08,2,77l.94.45a.28.28,0,0,1,.14.06l-1.28.39c.94.37.54.09,1.11.68-1,.23-1.16.32-1.33,1.56,1,.26.71.17,1.22.83,3.37-.77,10.8-1,14.91-1.51l81.78-8c8.67-1,17.46-1.7,26.13-2.61,1.5-.14,10.86-.68,11.51-1.39,0,0-.2.06.17-.17a4.14,4.14,0,0,1,.43-.2l.19-.48a.26.26,0,0,0-.17,0,.5.5,0,0,0-.17-.06c-.28-.06-.28,0-.65-.11l-.2-.63c0-.71-.11.09.23-.39l.14-.23c.46-1,.06-1.53-1.47-1.93.22-.91.22-.37-.06-1.1l1.13-.8-.62-.31c1.76-.37,1.22-.91-.2-1.08.57-.37.74-.39.94-.82-.68-.25-3.26-.23-2-1.05.25-.17.51-.17.79-.34,1.31-.76-.23-.05.37-.68s.23.37.54-.65l-1.76-.11L136,55.22c-.54-.28-.06-.09-.77-.26-.31-.08-.37,0-.85-.14.06-.79.68-.54,1.28-1.08-1.08-1.13-2.16.15-2.95-1l-.12-.19c-.17-.34-.25-.23.2-.57s1.56-.45-.05-.74l.82-.65c-.77-.31-.71-.11-1.45-.34l.94-.45c-1.82-.09-1-.17-.91-.49,0,0,.06,0,.06-.11-3.26-.51-10.38.74-14.12,1-12,1-24,2.3-35.91,3.43L1.93,61.48s0,.06,0,.09,0,.06,0,.08Z"/><path class="cls-4" d="M34.27,63.58l5.42,9.5-3.83.37L35,71.83l-4.9.48L29.45,74l-3.8.37,3.49-10.35ZM31,69.34l2.56-.26L32,66.61Z"/><path id="_1" data-name="1" class="cls-4" d="M44.67,62.53a14,14,0,0,1,3.24,0,6.18,6.18,0,0,1,2.21.71,3.74,3.74,0,0,1,1.27,1.3,4.74,4.74,0,0,1,.54,1.82l-3.4.31a.39.39,0,0,0-.06-.17,2,2,0,0,0-.28-.37,2.75,2.75,0,0,0-.62-.45,3.39,3.39,0,0,0-1-.28,5.77,5.77,0,0,0-1.62,0,7.91,7.91,0,0,0-1.39.25,2.89,2.89,0,0,0-.93.43,1.8,1.8,0,0,0-.49.54,1.5,1.5,0,0,0-.22.62,4.5,4.5,0,0,0,0,.65,2.76,2.76,0,0,0,.25.88,2.14,2.14,0,0,0,.57.65,3.2,3.2,0,0,0,1.05.4,7.26,7.26,0,0,0,1.62,0A12.3,12.3,0,0,0,47,69.51a4,4,0,0,0,1-.46,2.34,2.34,0,0,0,.48-.45.65.65,0,0,0,.17-.37l0-.14L52,67.78a4,4,0,0,1,0,1.3,3.22,3.22,0,0,1-.54,1.22,3.44,3.44,0,0,1-1.14,1,6.24,6.24,0,0,1-1.87.79,16.29,16.29,0,0,1-2.75.49,16,16,0,0,1-3.26,0,5.19,5.19,0,0,1-2.15-.71A3.63,3.63,0,0,1,39,70.47a6.89,6.89,0,0,1-.34-4.62,3.48,3.48,0,0,1,1.14-1.7,5.79,5.79,0,0,1,2-1.08A13.42,13.42,0,0,1,44.67,62.53Z"/><path id="_2" data-name="2" class="cls-4" d="M60.49,61.17l5.42,9.5L62.08,71l-.91-1.62-4.9.48-.6,1.73-3.8.37,3.49-10.35Zm-3.32,5.76,2.56-.26L58.2,64.2Z"/><path id="_3" data-name="3" class="cls-4" d="M72.77,70.07l-6.86.65L65,60.8l6.8-.65a13.32,13.32,0,0,1,1.73-.06,6.37,6.37,0,0,1,1.56.29,4.2,4.2,0,0,1,1.36.71,4.7,4.7,0,0,1,1,1.36,7.58,7.58,0,0,1,.51,2.12,5.3,5.3,0,0,1-.15,2,4,4,0,0,1-.76,1.5,5.44,5.44,0,0,1-1.22,1,6.27,6.27,0,0,1-1.45.62A9.05,9.05,0,0,1,72.77,70.07Zm-.49-2.69A3.12,3.12,0,0,0,73.59,67a1.89,1.89,0,0,0,.71-.87,2.75,2.75,0,0,0,.17-1.17,2.41,2.41,0,0,0-.74-1.58,2.53,2.53,0,0,0-1.87-.46l-3.32.34L69,67.69Z"/><polygon id="_4" data-name="4" class="cls-4" points="78.01 59.58 88.98 58.53 89.26 61.28 81.58 62.02 81.67 62.9 88.87 62.22 89.09 64.86 81.89 65.54 82.01 66.44 89.66 65.71 89.94 68.46 78.94 69.51 78.01 59.58"/><polygon id="_5" data-name="5" class="cls-4" points="99.3 67.61 96.58 67.89 93.71 63.75 94.14 68.12 90.82 68.43 89.89 58.48 93.83 58.11 97.57 63.3 100.26 57.49 104.2 57.12 105.17 67.07 101.85 67.38 101.42 62.99 99.3 67.61"/><polygon id="_6" data-name="6" class="cls-4" points="113.98 56.24 117.89 55.87 113.75 63.35 114.01 66.27 110.72 66.59 110.44 63.67 104.97 57.09 108.88 56.72 111.74 59.9 113.98 56.24"/><polygon class="cls-2" points="19.45 22.93 34.84 30.67 34.84 56.95 19.45 64.69 19.45 22.93"/></g></g></svg>