<svg xmlns="http://www.w3.org/2000/svg" viewBox="0 0 137.93 80.96"><defs><style>.cls-1,.cls-3{fill:#1a1a1a;}.cls-2,.cls-4{fill:#ff4655;}.cls-2,.cls-3{fill-rule:evenodd;}</style></defs><g id="Layer_2" data-name="Layer 2"><g id="Layer_1-2" data-name="Layer 1"><path class="cls-1" d="M109.84,6.35A21.18,21.18,0,0,1,118,8,21.39,21.39,0,0,1,131.3,27.78a21.45,21.45,0,0,1-28.88,20.1.28.28,0,0,1,.08-.12,1.15,1.15,0,0,0,.09-.19l.17-.34a1.2,1.2,0,0,0,.17-.34,1,1,0,0,1,.11-.23H99.72a20.07,20.07,0,0,1-2.46-1.56h2.41l3-3.52H97.85l-2,2.41L97,39.91h6.43c.09,0,.29-.14.51-.42a9.36,9.36,0,0,0,.77-1,13.28,13.28,0,0,0,.71-1.16c.23-.39.4-.71.51-.93h-5.47l5.3-7.32-12.1-3.94a7.36,7.36,0,0,0-.12.8,17.85,17.85,0,0,0-.11,1.84A16.3,16.3,0,0,0,94.71,34a15.46,15.46,0,0,0,1.21,2.36H94.11l-1.3,4.36a23.74,23.74,0,0,1-1.45-2.15,2,2,0,0,0,.28-.37c.4-.57.83-1.19,1.22-1.84H90.23L90.06,36a21.15,21.15,0,0,1,0-16.38,21,21,0,0,1,4.65-7,21.32,21.32,0,0,1,15.13-6.26Zm2.53,17.94,12.1-3.94a15,15,0,0,0-1-1.75,15.77,15.77,0,0,0-2-2.41,16.53,16.53,0,0,0-9.07-4.62Zm13.66.85-12.11,3.94,7.49,10.29,0,0A15.94,15.94,0,0,0,125,34a16.49,16.49,0,0,0,1.25-6.26,17.77,17.77,0,0,0-.12-1.84A7.32,7.32,0,0,0,126,25.14Zm-8.68,17.21-7.51-10.29-7.48,10.29a14.8,14.8,0,0,0,3.15,1.22,16.33,16.33,0,0,0,8.7,0A14.93,14.93,0,0,0,117.35,42.35Zm-22.11-22,12.08,3.94V11.57a16.59,16.59,0,0,0-9,4.62,15.46,15.46,0,0,0-2,2.41C95.9,19.16,95.56,19.76,95.24,20.35Z"/><path class="cls-1" d="M58.79,0A27.81,27.81,0,0,1,85.21,36.4h-1a3.49,3.49,0,0,0-2.07.68,6.13,6.13,0,0,0-1.73,1.78,9,9,0,0,0-1.19,2.41,8.3,8.3,0,0,0-.43,2.58,7.37,7.37,0,0,0,.43,2.69c-.26.29-.54.6-.83.88s-.48.46-.7.68l-1-8a21.58,21.58,0,0,0,3.83-12.3,24.68,24.68,0,0,0-.14-2.47c-.06-.45-.11-.9-.2-1.36L63.64,29.34l6.63,9.13L66.84,44,64.71,41l1.37-4.62H61.34l-2.55-3.52-3.68,5-.23-1.53h-5l-4,13.77h4l.66-2.26a19.13,19.13,0,0,0,2.52.85h0l.2,1.41h1.44l.68-.9a25.16,25.16,0,0,0,2.92.25l-.2.65h4l.26-.9c.48-.09.93-.17,1.38-.29l-.59.94v0a1.1,1.1,0,0,1,0,.2h8.79a2.07,2.07,0,0,0,.45-.51c.2-.25.43-.56.65-.9s.4-.63.57-.94a3.79,3.79,0,0,0,.28-.59l.46,2.94h1a27.34,27.34,0,0,1-5.81,3.26,27.59,27.59,0,0,1-21.26,0,27.48,27.48,0,0,1-9-6,28.5,28.5,0,0,1-6-9,27.88,27.88,0,0,1,0-21.23,28,28,0,0,1,6-9A27.59,27.59,0,0,1,58.79,0Zm3,23.64,16.58-5.38a23.13,23.13,0,0,0-1.56-2.7A22.19,22.19,0,0,0,68,8.05a21.6,21.6,0,0,0-6.2-1.84ZM72.51,41.56l.82,1.13.48,4H69.62v-.26Zm-28.83,1.9L53.94,29.34,37.36,24c-.08.46-.14.91-.2,1.36A24.68,24.68,0,0,0,37,27.78,21.64,21.64,0,0,0,43.4,43.17ZM39.2,18.26l16.59,5.38V6.21A21.73,21.73,0,0,0,43.4,12.39a22,22,0,0,0-2.64,3.17A24.65,24.65,0,0,0,39.2,18.26Z"/><path class="cls-2" d="M19.45,22.93l18.48,9.3V26.76h75v34.1h-75V55.39l-18.48,9.3Zm42.6,27.24,4-13.77H61l-5.1,6.91-1-6.91h-5l-4,13.77h4l2.24-7.74,1.14,7.74h1.44l5.64-7.74-2.24,7.74Zm15.93,0L76.59,39a6.16,6.16,0,0,0-.17-.76,5.56,5.56,0,0,0-.2-.85,2.92,2.92,0,0,0-.31-.71c-.11-.2-.22-.28-.37-.28H72.06a.49.49,0,0,0-.37.2,2.25,2.25,0,0,0-.46.42,5.77,5.77,0,0,0-.39.51,1.07,1.07,0,0,0-.23.43l-7.51,12v0a1.1,1.1,0,0,1,0,.2h8.79a2.07,2.07,0,0,0,.45-.51c.2-.25.43-.56.65-.9s.4-.63.57-.94a3.79,3.79,0,0,0,.28-.59l.46,2.94Zm-8.36-3.74,3.49-5.87.7,6.13H69.62Zm21.8-4.85-2.61,8.59H85.69a12.18,12.18,0,0,1-2.49-.28,6.05,6.05,0,0,1-2.21-1,5,5,0,0,1-1.56-1.93,7,7,0,0,1-.6-3.09,8.3,8.3,0,0,1,.43-2.58,9,9,0,0,1,1.19-2.41,6.13,6.13,0,0,1,1.73-1.78,3.49,3.49,0,0,1,2.07-.68h8.61c-.39.65-.82,1.27-1.22,1.84a12.43,12.43,0,0,1-1.36,1.67H84.87a1,1,0,0,0-.62.2,2.74,2.74,0,0,0-.57.6,5.36,5.36,0,0,0-.48.82,5.51,5.51,0,0,0-.34.9c0,.2-.09.4-.12.57a3.26,3.26,0,0,0,0,.48,2.71,2.71,0,0,0,.2,1.05,4.48,4.48,0,0,0,.53,1,2.87,2.87,0,0,0,.68.8,1.41,1.41,0,0,0,.77.31h1.25L86.6,45H84.25v0s.11-.2.25-.48.34-.63.57-1,.45-.71.71-1.07a7.82,7.82,0,0,1,.65-.83Zm2.69-5.18-4,13.77h10.48s.12-.08.26-.25a8.45,8.45,0,0,0,.54-.65c.23-.26.42-.51.65-.8a5,5,0,0,0,.51-.71,1.15,1.15,0,0,0,.09-.19l.17-.34a1.2,1.2,0,0,0,.17-.34,1,1,0,0,1,.11-.23h-8l.46-1.56h4.14l3-3.52H97.85l-2,2.41L97,39.91h6.43c.09,0,.29-.14.51-.42a9.36,9.36,0,0,0,.77-1,13.28,13.28,0,0,0,.71-1.16c.23-.39.4-.71.51-.93Z"/><path class="cls-3" d="M1.42,63c.37.65.11.45.76.73l-1.05.46c.34.59.12,0,.51.76l-1.13.34.57.91c0,.34-1.56.06.56.6a1.94,1.94,0,0,0-.45.14c-.37.2-.17.08-.42.31,1.41.23.59-.09,1.24.4l-1.1.28.45.31c.2.23.57.14-1.22.77.46.76.06.59.46,1.07s.7.37,1,.8L.2,71.35a.56.56,0,0,0-.2.08c.43.6.37.46,1.25.71-.48.46-.43.2-.71.8,1.3,0,.71.14,1.64.68-.22.65-.25.08-.48.73S2.15,76.08,2,77l.94.45s.11.06.14.09l-1.28.39c.94.37.54.06,1.11.66-1,.25-1.16.34-1.33,1.58,1,.26.71.15,1.22.8,3.37-.77,10.8-1,14.91-1.5l81.78-8c8.67-1,17.46-1.7,26.13-2.61,1.5-.17,10.86-.68,11.51-1.39,0,0-.2.06.17-.2a1.54,1.54,0,0,1,.43-.17l.19-.51a.58.58,0,0,1-.17,0l-.17,0c-.28-.09-.28,0-.65-.14,0-.06-.2-.6-.2-.6,0-.73-.11.09.23-.42l.14-.23c.46-1,.06-1.53-1.47-1.9.22-.91.22-.37-.06-1.13l1.13-.77-.62-.31c1.76-.37,1.22-.94-.2-1.11.57-.34.74-.36.94-.82-.68-.22-3.26-.22-2-1.05.25-.14.51-.17.79-.31,1.31-.76-.23-.08.37-.68s.23.34.54-.65l-1.76-.11L136,55.22c-.54-.31-.06-.11-.77-.28a4.11,4.11,0,0,1-.85-.15c.06-.76.68-.51,1.28-1.07-1.08-1.11-2.16.14-2.95-1l-.12-.17c-.17-.37-.25-.23.2-.57s1.56-.48-.05-.77l.82-.62c-.77-.34-.71-.11-1.45-.34l.94-.45c-1.82-.12-1-.2-.91-.51,0,0,.06-.06.06-.09-3.26-.51-10.38.71-14.12,1-12,1-24,2.27-35.91,3.43L1.93,61.46s0,0,0,.08a.17.17,0,0,0,0,.09Z"/><path class="cls-4" d="M34.27,63.55l5.42,9.5-3.83.37L35,71.83l-4.9.45L29.45,74l-3.8.37,3.49-10.35ZM31,69.31l2.56-.23L32,66.59Z"/><path id="_1" data-name="1" class="cls-4" d="M44.67,62.5a13.79,13.79,0,0,1,3.24,0,5.81,5.81,0,0,1,2.21.71,3.46,3.46,0,0,1,1.27,1.28,4.64,4.64,0,0,1,.54,1.81l-3.4.34a.71.71,0,0,0-.06-.2,4.37,4.37,0,0,0-.28-.37,2,2,0,0,0-.62-.42,3.3,3.3,0,0,0-1-.31,7.18,7.18,0,0,0-1.62,0,9,9,0,0,0-1.39.25,5.2,5.2,0,0,0-.93.43,1.91,1.91,0,0,0-.49.57,1.37,1.37,0,0,0-.22.62,4.37,4.37,0,0,0,0,.65,2.57,2.57,0,0,0,.25.85,1.76,1.76,0,0,0,.57.65,2.51,2.51,0,0,0,1.05.4,5.7,5.7,0,0,0,1.62,0A8.75,8.75,0,0,0,47,69.48a3.82,3.82,0,0,0,1-.43,3.61,3.61,0,0,0,.48-.45.74.74,0,0,0,.17-.37l0-.14L52,67.75a4.15,4.15,0,0,1,0,1.33,3.32,3.32,0,0,1-.54,1.19,3.51,3.51,0,0,1-1.14,1,7.53,7.53,0,0,1-1.87.77,14.56,14.56,0,0,1-2.75.48,14.31,14.31,0,0,1-3.26,0,5.2,5.2,0,0,1-2.15-.74A3.43,3.43,0,0,1,39,70.44a6.81,6.81,0,0,1-.34-4.59,3.43,3.43,0,0,1,1.14-1.73,6,6,0,0,1,2-1.08A15.55,15.55,0,0,1,44.67,62.5Z"/><path id="_2" data-name="2" class="cls-4" d="M60.49,61.14l5.42,9.5L62.08,71l-.91-1.59-4.9.45-.6,1.76-3.8.37,3.49-10.35ZM57.17,66.9l2.56-.23L58.2,64.18Z"/><path id="_3" data-name="3" class="cls-4" d="M72.77,70l-6.86.66L65,60.77l6.8-.65c.66,0,1.22,0,1.73,0a5.91,5.91,0,0,1,1.56.28,4.26,4.26,0,0,1,1.36.74,4,4,0,0,1,1,1.36,7.36,7.36,0,0,1,.51,2.09,5.3,5.3,0,0,1-.15,2A3.93,3.93,0,0,1,77,68.09a4.67,4.67,0,0,1-1.22,1,6.41,6.41,0,0,1-1.45.65A9,9,0,0,1,72.77,70Zm-.49-2.69a2.55,2.55,0,0,0,1.31-.42,1.69,1.69,0,0,0,.71-.88,2.73,2.73,0,0,0,.17-1.16,2.33,2.33,0,0,0-.74-1.56,2.29,2.29,0,0,0-1.87-.46l-3.32.31L69,67.69Z"/><polygon id="_4" data-name="4" class="cls-4" points="78.01 59.56 88.98 58.51 89.26 61.28 81.58 61.99 81.67 62.87 88.87 62.19 89.09 64.86 81.89 65.54 82.01 66.42 89.66 65.71 89.94 68.46 78.94 69.51 78.01 59.56"/><polygon id="_5" data-name="5" class="cls-4" points="99.3 67.61 96.58 67.86 93.71 63.72 94.14 68.09 90.82 68.4 89.89 58.48 93.83 58.08 97.57 63.3 100.26 57.49 104.2 57.09 105.17 67.04 101.85 67.35 101.42 62.96 99.3 67.61"/><polygon id="_6" data-name="6" class="cls-4" points="113.98 56.21 117.89 55.84 113.75 63.33 114.01 66.25 110.72 66.56 110.44 63.64 104.97 57.09 108.88 56.72 111.74 59.9 113.98 56.21"/><polygon class="cls-2" points="19.45 22.93 34.84 30.67 34.84 56.95 19.45 64.69 19.45 22.93"/></g></g></svg>