<svg width="400" height="150" viewBox="0 0 1116 258" fill="none" xmlns="http://www.w3.org/2000/svg">
<g id="Group 2">
<g id="mage 7">
<path d="M232.704 216L288.288 63.36H218.592L148.032 139.968L133.344 63.36H63.648L8.064 216H63.36L94.464 130.176L110.304 216H130.176L208.512 130.176L177.408 216H232.704ZM453.006 216L433.998 92.448C433.422 90.144 432.654 87.36 431.694 84.096C430.926 80.64 429.966 77.376 428.814 74.304C427.662 71.232 426.222 68.64 424.494 66.528C422.958 64.416 421.23 63.36 419.31 63.36H370.926C369.582 63.36 367.854 64.128 365.742 65.664C363.822 67.008 361.806 68.64 359.694 70.56C357.774 72.288 355.95 74.112 354.222 76.032C352.494 77.952 351.342 79.488 350.766 80.64L247.086 213.12V213.984C247.086 213.792 246.894 214.464 246.51 216H368.334C369.678 215.424 371.79 213.6 374.67 210.528C377.55 207.456 380.43 204.096 383.31 200.448C386.382 196.8 389.07 193.344 391.374 190.08C393.87 186.816 395.31 184.608 395.694 183.456L401.742 216H453.006ZM337.23 174.528L385.614 109.728L395.694 177.408H337.23V174.528ZM639.16 120.96L603.16 216H560.248C548.344 216 536.728 214.944 525.4 212.832C514.072 210.72 503.896 207.072 494.872 201.888C485.848 196.512 478.552 189.312 472.984 180.288C467.608 171.264 464.92 159.84 464.92 146.016C464.92 136.8 466.936 127.296 470.968 117.504C475 107.712 480.472 98.784 487.384 90.72C494.296 82.656 502.264 76.128 511.288 71.136C520.312 65.952 529.912 63.36 540.088 63.36H659.032C653.464 70.656 647.8 77.568 642.04 84.096C636.472 90.432 630.328 96.48 623.608 102.24H548.728C545.656 102.24 542.68 103.104 539.8 104.832C536.92 106.368 534.232 108.48 531.736 111.168C529.432 113.856 527.32 116.928 525.4 120.384C523.48 123.648 521.944 126.912 520.792 130.176C519.256 135.168 518.488 139.104 518.488 141.984C518.488 145.632 519.352 149.568 521.08 153.792C523 157.824 525.4 161.568 528.28 165.024C531.352 168.48 534.616 171.36 538.072 173.664C541.72 175.968 545.272 177.12 548.728 177.12H565.72L572.344 158.4H539.8V158.112C539.992 157.536 541.144 155.712 543.256 152.64C545.56 149.376 548.248 145.824 551.32 141.984C554.392 137.952 557.56 134.016 560.824 130.176C564.28 126.144 567.352 123.072 570.04 120.96H639.16ZM676.211 63.36L620.627 216H765.491C765.683 216 766.835 215.04 768.947 213.12C771.251 211.2 773.843 208.896 776.723 206.208C779.603 203.328 782.483 200.352 785.363 197.28C788.435 194.208 790.835 191.52 792.562 189.216C792.755 189.024 793.235 188.352 794.003 187.2C794.771 186.048 795.539 184.8 796.307 183.456C797.075 182.112 797.843 180.864 798.611 179.712C799.379 178.368 799.859 177.504 800.051 177.12H689.747L696.083 159.84H753.395L794.579 120.96H728.051L700.691 147.456L717.107 102.24H805.811C807.347 102.24 809.747 100.704 813.011 97.632C816.467 94.56 819.923 90.912 823.379 86.688C827.027 82.464 830.387 78.24 833.459 74.016C836.723 69.6 839.027 66.048 840.371 63.36H676.211ZM889.128 216H947.304L1099.37 63.36H955.08C952.392 65.088 949.128 67.968 945.288 72C941.64 75.84 937.992 79.872 934.344 84.096C930.888 88.32 927.816 92.16 925.128 95.616C922.632 99.072 921.288 101.184 921.096 101.952V102.24H998.568L889.128 216Z" fill="black"/>
<path d="M232.704 216L288.288 63.36H218.592L148.032 139.968L133.344 63.36H63.648L8.064 216H63.36L94.464 130.176L110.304 216H130.176L208.512 130.176L177.408 216H232.704ZM453.006 216L433.998 92.448C433.422 90.144 432.654 87.36 431.694 84.096C430.926 80.64 429.966 77.376 428.814 74.304C427.662 71.232 426.222 68.64 424.494 66.528C422.958 64.416 421.23 63.36 419.31 63.36H370.926C369.582 63.36 367.854 64.128 365.742 65.664C363.822 67.008 361.806 68.64 359.694 70.56C357.774 72.288 355.95 74.112 354.222 76.032C352.494 77.952 351.342 79.488 350.766 80.64L247.086 213.12V213.984C247.086 213.792 246.894 214.464 246.51 216H368.334C369.678 215.424 371.79 213.6 374.67 210.528C377.55 207.456 380.43 204.096 383.31 200.448C386.382 196.8 389.07 193.344 391.374 190.08C393.87 186.816 395.31 184.608 395.694 183.456L401.742 216H453.006ZM337.23 174.528L385.614 109.728L395.694 177.408H337.23V174.528ZM639.16 120.96L603.16 216H560.248C548.344 216 536.728 214.944 525.4 212.832C514.072 210.72 503.896 207.072 494.872 201.888C485.848 196.512 478.552 189.312 472.984 180.288C467.608 171.264 464.92 159.84 464.92 146.016C464.92 136.8 466.936 127.296 470.968 117.504C475 107.712 480.472 98.784 487.384 90.72C494.296 82.656 502.264 76.128 511.288 71.136C520.312 65.952 529.912 63.36 540.088 63.36H659.032C653.464 70.656 647.8 77.568 642.04 84.096C636.472 90.432 630.328 96.48 623.608 102.24H548.728C545.656 102.24 542.68 103.104 539.8 104.832C536.92 106.368 534.232 108.48 531.736 111.168C529.432 113.856 527.32 116.928 525.4 120.384C523.48 123.648 521.944 126.912 520.792 130.176C519.256 135.168 518.488 139.104 518.488 141.984C518.488 145.632 519.352 149.568 521.08 153.792C523 157.824 525.4 161.568 528.28 165.024C531.352 168.48 534.616 171.36 538.072 173.664C541.72 175.968 545.272 177.12 548.728 177.12H565.72L572.344 158.4H539.8V158.112C539.992 157.536 541.144 155.712 543.256 152.64C545.56 149.376 548.248 145.824 551.32 141.984C554.392 137.952 557.56 134.016 560.824 130.176C564.28 126.144 567.352 123.072 570.04 120.96H639.16ZM676.211 63.36L620.627 216H765.491C765.683 216 766.835 215.04 768.947 213.12C771.251 211.2 773.843 208.896 776.723 206.208C779.603 203.328 782.483 200.352 785.363 197.28C788.435 194.208 790.835 191.52 792.562 189.216C792.755 189.024 793.235 188.352 794.003 187.2C794.771 186.048 795.539 184.8 796.307 183.456C797.075 182.112 797.843 180.864 798.611 179.712C799.379 178.368 799.859 177.504 800.051 177.12H689.747L696.083 159.84H753.395L794.579 120.96H728.051L700.691 147.456L717.107 102.24H805.811C807.347 102.24 809.747 100.704 813.011 97.632C816.467 94.56 819.923 90.912 823.379 86.688C827.027 82.464 830.387 78.24 833.459 74.016C836.723 69.6 839.027 66.048 840.371 63.36H676.211ZM889.128 216H947.304L1099.37 63.36H955.08C952.392 65.088 949.128 67.968 945.288 72C941.64 75.84 937.992 79.872 934.344 84.096C930.888 88.32 927.816 92.16 925.128 95.616C922.632 99.072 921.288 101.184 921.096 101.952V102.24H998.568L889.128 216Z" fill="url(#paint0_linear)"/>
</g>
<path id="mage 7_2" d="M246.704 210V211H247.404L247.644 210.342L246.704 210ZM302.288 57.36L303.228 57.7022L303.716 56.36H302.288V57.36ZM232.592 57.36V56.36H232.154L231.856 56.6825L232.592 57.36ZM162.032 133.968L161.05 134.156L161.423 136.105L162.768 134.645L162.032 133.968ZM147.344 57.36L148.326 57.1717L148.17 56.36H147.344V57.36ZM77.648 57.36V56.36H76.9479L76.7084 57.0178L77.648 57.36ZM22.064 210L21.1244 209.658L20.6356 211H22.064V210ZM77.36 210V211H78.0612L78.3002 210.341L77.36 210ZM108.464 124.176L109.447 123.994L108.779 120.372L107.524 123.835L108.464 124.176ZM124.304 210L123.321 210.181L123.472 211H124.304V210ZM144.176 210V211H144.617L144.915 210.674L144.176 210ZM222.512 124.176L223.452 124.517L221.773 123.502L222.512 124.176ZM191.408 210L190.468 209.659L189.982 211H191.408V210ZM247.644 210.342L303.228 57.7022L301.348 57.0178L245.764 209.658L247.644 210.342ZM302.288 56.36H232.592V58.36H302.288V56.36ZM231.856 56.6825L161.296 133.291L162.768 134.645L233.328 58.0375L231.856 56.6825ZM163.014 133.78L148.326 57.1717L146.362 57.5483L161.05 134.156L163.014 133.78ZM147.344 56.36H77.648V58.36H147.344V56.36ZM76.7084 57.0178L21.1244 209.658L23.0036 210.342L78.5876 57.7022L76.7084 57.0178ZM22.064 211H77.36V209H22.064V211ZM78.3002 210.341L109.404 124.517L107.524 123.835L76.4198 209.659L78.3002 210.341ZM107.481 124.357L123.321 210.181L125.287 209.819L109.447 123.994L107.481 124.357ZM124.304 211H144.176V209H124.304V211ZM144.915 210.674L223.251 124.85L221.773 123.502L143.437 209.326L144.915 210.674ZM221.572 123.835L190.468 209.659L192.348 210.341L223.452 124.517L221.572 123.835ZM191.408 211H246.704V209H191.408V211ZM467.006 210V211H468.172L467.994 209.848L467.006 210ZM447.998 86.448L448.986 86.2959L448.979 86.2503L448.968 86.2055L447.998 86.448ZM445.694 78.096L444.718 78.3129L444.725 78.3458L444.735 78.3782L445.694 78.096ZM442.814 68.304L443.75 67.9529L443.75 67.9529L442.814 68.304ZM438.494 60.528L437.685 61.1162L437.702 61.1392L437.72 61.1612L438.494 60.528ZM379.742 59.664L380.315 60.4832L380.323 60.478L380.33 60.4727L379.742 59.664ZM373.694 64.56L374.363 65.3033L374.367 65.2999L373.694 64.56ZM368.222 70.032L367.479 69.363L367.479 69.363L368.222 70.032ZM364.766 74.64L365.554 75.2563L365.615 75.1771L365.66 75.0872L364.766 74.64ZM261.086 207.12L260.298 206.504L260.086 206.775V207.12H261.086ZM260.51 210L259.54 209.757L259.229 211H260.51V210ZM382.334 210V211H382.539L382.728 210.919L382.334 210ZM388.67 204.528L389.4 205.212L389.4 205.212L388.67 204.528ZM397.31 194.448L396.545 193.804L396.535 193.816L396.525 193.828L397.31 194.448ZM405.374 184.08L404.58 183.473L404.568 183.488L404.557 183.503L405.374 184.08ZM409.694 177.456L410.677 177.273L409.97 173.467L408.745 177.14L409.694 177.456ZM415.742 210L414.759 210.183L414.911 211H415.742V210ZM351.23 168.528L350.429 167.93L350.23 168.196V168.528H351.23ZM399.614 103.728L400.603 103.581L400.249 101.206L398.813 103.13L399.614 103.728ZM409.694 171.408V172.408H410.854L410.683 171.261L409.694 171.408ZM351.23 171.408H350.23V172.408H351.23V171.408ZM467.994 209.848L448.986 86.2959L447.01 86.6001L466.018 210.152L467.994 209.848ZM448.968 86.2055C448.388 83.8839 447.616 81.0859 446.653 77.8138L444.735 78.3782C445.692 81.6341 446.456 84.4041 447.028 86.6905L448.968 86.2055ZM446.67 77.8791C445.893 74.381 444.92 71.0719 443.75 67.9529L441.878 68.6551C443.012 71.6801 443.959 74.899 444.718 78.3129L446.67 77.8791ZM443.75 67.9529C442.568 64.7986 441.077 62.1064 439.268 59.8947L437.72 61.1612C439.367 63.1736 440.757 65.6653 441.878 68.6551L443.75 67.9529ZM439.303 59.9398C437.652 57.67 435.657 56.36 433.31 56.36V58.36C434.803 58.36 436.264 59.162 437.685 61.1162L439.303 59.9398ZM433.31 56.36H384.926V58.36H433.31V56.36ZM384.926 56.36C383.249 56.36 381.3 57.2941 379.154 58.8553L380.33 60.4727C382.408 58.9619 383.915 58.36 384.926 58.36V56.36ZM379.169 58.8448C377.207 60.2176 375.158 61.8774 373.021 63.8201L374.367 65.2999C376.454 63.4025 378.437 61.7984 380.315 60.4832L379.169 58.8448ZM373.025 63.8167C371.079 65.5682 369.23 67.417 367.479 69.363L368.965 70.701C370.67 68.807 372.469 67.0078 374.363 65.3033L373.025 63.8167ZM367.479 69.363C365.738 71.297 364.51 72.9151 363.872 74.1928L365.66 75.0872C366.174 74.0609 367.25 72.607 368.965 70.701L367.479 69.363ZM363.979 74.0237L260.298 206.504L261.874 207.736L365.554 75.2563L363.979 74.0237ZM260.086 207.12V207.984H262.086V207.12H260.086ZM262.086 207.984C262.086 207.963 262.088 207.833 262.045 207.683C262.03 207.631 261.961 207.384 261.721 207.185C261.579 207.066 261.383 206.971 261.15 206.955C260.928 206.939 260.748 206.999 260.63 207.058C260.423 207.162 260.309 207.309 260.279 207.348C260.234 207.407 260.204 207.46 260.188 207.488C260.156 207.547 260.133 207.601 260.122 207.631C260.076 207.745 260.027 207.906 259.98 208.069C259.88 208.423 259.732 208.989 259.54 209.757L261.48 210.243C261.672 209.475 261.812 208.937 261.904 208.619C261.926 208.54 261.944 208.479 261.959 208.434C261.974 208.384 261.98 208.369 261.978 208.373C261.977 208.376 261.975 208.383 261.97 208.394C261.965 208.403 261.957 208.422 261.944 208.446C261.932 208.466 261.906 208.513 261.865 208.567C261.839 208.601 261.728 208.745 261.524 208.847C261.408 208.905 261.229 208.965 261.008 208.949C260.776 208.933 260.582 208.839 260.441 208.721C260.203 208.523 260.136 208.28 260.122 208.233C260.098 208.149 260.092 208.082 260.089 208.055C260.086 208.022 260.086 207.997 260.086 207.984H262.086ZM260.51 211H382.334V209H260.51V211ZM382.728 210.919C383.545 210.569 384.503 209.887 385.58 208.957C386.672 208.013 387.946 206.762 389.4 205.212L387.94 203.844C386.514 205.366 385.292 206.563 384.272 207.443C383.237 208.337 382.467 208.855 381.94 209.081L382.728 210.919ZM389.4 205.212C392.301 202.117 395.199 198.736 398.095 195.068L396.525 193.828C393.661 197.456 390.799 200.795 387.94 203.844L389.4 205.212ZM398.075 195.092C401.162 191.426 403.868 187.948 406.191 184.657L404.557 183.503C402.272 186.74 399.602 190.174 396.545 193.804L398.075 195.092ZM406.168 184.687C407.424 183.045 408.425 181.655 409.164 180.522C409.889 179.41 410.407 178.479 410.643 177.772L408.745 177.14C408.597 177.585 408.203 178.334 407.488 179.43C406.787 180.505 405.82 181.851 404.58 183.473L406.168 184.687ZM408.711 177.639L414.759 210.183L416.725 209.817L410.677 177.273L408.711 177.639ZM415.742 211H467.006V209H415.742V211ZM352.031 169.126L400.415 104.326L398.813 103.13L350.429 167.93L352.031 169.126ZM398.625 103.875L408.705 171.555L410.683 171.261L400.603 103.581L398.625 103.875ZM409.694 170.408H351.23V172.408H409.694V170.408ZM352.23 171.408V168.528H350.23V171.408H352.23ZM653.16 114.96L654.095 115.314L654.608 113.96H653.16V114.96ZM617.16 210V211H617.85L618.095 210.354L617.16 210ZM539.4 206.832L539.216 207.815L539.216 207.815L539.4 206.832ZM508.872 195.888L508.36 196.747L508.367 196.751L508.374 196.755L508.872 195.888ZM486.984 174.288L486.125 174.8L486.129 174.806L486.133 174.813L486.984 174.288ZM484.968 111.504L484.043 111.123L484.043 111.123L484.968 111.504ZM501.384 84.72L500.624 84.0692L500.624 84.0692L501.384 84.72ZM525.288 65.136L525.772 66.011L525.779 66.0071L525.786 66.0031L525.288 65.136ZM673.032 57.36L673.827 57.9667L675.053 56.36H673.032V57.36ZM656.04 78.096L655.29 77.4344L655.289 77.4359L656.04 78.096ZM637.608 96.24V97.24H637.978L638.259 96.9993L637.608 96.24ZM553.8 98.832L554.27 99.7144L554.293 99.7025L554.314 99.6895L553.8 98.832ZM545.736 105.168L545.003 104.488L544.989 104.502L544.977 104.517L545.736 105.168ZM539.4 114.384L540.262 114.891L540.268 114.88L540.274 114.87L539.4 114.384ZM534.792 124.176L533.849 123.843L533.842 123.862L533.836 123.882L534.792 124.176ZM535.08 147.792L534.154 148.171L534.165 148.197L534.177 148.222L535.08 147.792ZM542.28 159.024L541.512 159.664L541.522 159.676L541.532 159.688L542.28 159.024ZM552.072 167.664L551.517 168.496L551.527 168.503L551.538 168.509L552.072 167.664ZM579.72 171.12V172.12H580.427L580.662 171.454L579.72 171.12ZM586.344 152.4L587.286 152.734L587.758 151.4H586.344V152.4ZM553.8 152.4H552.8V153.4H553.8V152.4ZM553.8 152.112L552.851 151.796L552.8 151.95V152.112H553.8ZM557.256 146.64L556.439 146.063L556.432 146.073L557.256 146.64ZM565.32 135.984L566.101 136.609L566.108 136.599L566.115 136.59L565.32 135.984ZM574.824 124.176L574.064 123.525L574.062 123.528L574.824 124.176ZM584.04 114.96V113.96H583.694L583.422 114.174L584.04 114.96ZM652.225 114.606L616.225 209.646L618.095 210.354L654.095 115.314L652.225 114.606ZM617.16 209H574.248V211H617.16V209ZM574.248 209C562.403 209 550.849 207.949 539.583 205.849L539.216 207.815C550.607 209.939 562.284 211 574.248 211V209ZM539.583 205.849C528.354 203.755 518.286 200.143 509.37 195.021L508.374 196.755C517.505 202.001 527.79 205.685 539.216 207.815L539.583 205.849ZM509.384 195.029C500.499 189.736 493.319 182.651 487.835 173.763L486.133 174.813C491.784 183.973 499.196 191.288 508.36 196.747L509.384 195.029ZM487.843 173.776C482.584 164.949 479.92 153.715 479.92 140.016H477.92C477.92 153.965 480.632 165.579 486.125 174.8L487.843 173.776ZM479.92 140.016C479.92 130.949 481.903 121.574 485.892 111.885L484.043 111.123C479.969 121.018 477.92 130.651 477.92 140.016H479.92ZM485.892 111.885C489.884 102.191 495.3 93.3544 502.143 85.3708L500.624 84.0692C493.644 92.2136 488.116 101.233 484.043 111.123L485.892 111.885ZM502.143 85.3708C508.98 77.3946 516.855 70.9436 525.772 66.011L524.804 64.261C515.672 69.3124 507.612 75.9174 500.624 84.0692L502.143 85.3708ZM525.786 66.0031C534.662 60.9041 544.091 58.36 554.088 58.36V56.36C543.733 56.36 533.962 58.9999 524.79 64.2689L525.786 66.0031ZM554.088 58.36H673.032V56.36H554.088V58.36ZM672.237 56.7533C666.682 64.0315 661.033 70.9251 655.29 77.4344L656.79 78.7576C662.566 72.2109 668.245 65.2805 673.827 57.9667L672.237 56.7533ZM655.289 77.4359C649.753 83.7348 643.643 89.7499 636.957 95.4807L638.259 96.9993C645.013 91.2101 651.19 85.1292 656.791 78.7561L655.289 77.4359ZM637.608 95.24H562.728V97.24H637.608V95.24ZM562.728 95.24C559.458 95.24 556.306 96.1622 553.285 97.9745L554.314 99.6895C557.054 98.0458 559.854 97.24 562.728 97.24V95.24ZM553.329 97.9496C550.34 99.544 547.565 101.728 545.003 104.488L546.469 105.848C548.898 103.232 551.5 101.192 554.27 99.7144L553.329 97.9496ZM544.977 104.517C542.624 107.262 540.475 110.39 538.526 113.898L540.274 114.87C542.165 111.466 544.239 108.45 546.495 105.819L544.977 104.517ZM538.538 113.877C536.588 117.191 535.024 120.513 533.849 123.843L535.735 124.509C536.863 121.311 538.371 118.105 540.262 114.891L538.538 113.877ZM533.836 123.882C532.29 128.905 531.488 132.954 531.488 135.984H533.488C533.488 133.254 534.221 129.431 535.748 124.47L533.836 123.882ZM531.488 135.984C531.488 139.79 532.389 143.856 534.154 148.171L536.005 147.413C534.315 143.28 533.488 139.474 533.488 135.984H531.488ZM534.177 148.222C536.133 152.33 538.578 156.144 541.512 159.664L543.048 158.384C540.221 154.992 537.866 151.318 535.983 147.362L534.177 148.222ZM541.532 159.688C544.655 163.201 547.982 166.14 551.517 168.496L552.626 166.832C549.249 164.58 546.049 161.759 543.027 158.36L541.532 159.688ZM551.538 168.509C555.306 170.889 559.041 172.12 562.728 172.12V170.12C559.503 170.12 556.134 169.047 552.606 166.819L551.538 168.509ZM562.728 172.12H579.72V170.12H562.728V172.12ZM580.662 171.454L587.286 152.734L585.401 152.066L578.777 170.786L580.662 171.454ZM586.344 151.4H553.8V153.4H586.344V151.4ZM554.8 152.4V152.112H552.8V152.4H554.8ZM554.748 152.428C554.764 152.382 554.83 152.231 554.996 151.935C555.152 151.656 555.37 151.294 555.653 150.846C556.219 149.95 557.027 148.738 558.08 147.207L556.432 146.073C555.373 147.614 554.548 148.85 553.962 149.778C553.669 150.242 553.431 150.636 553.251 150.957C553.081 151.261 552.931 151.554 552.851 151.796L554.748 152.428ZM558.073 147.217C560.363 143.972 563.038 140.436 566.101 136.609L564.539 135.359C561.457 139.212 558.757 142.78 556.439 146.063L558.073 147.217ZM566.115 136.59C569.176 132.572 572.333 128.65 575.586 124.824L574.062 123.528C570.786 127.382 567.607 131.332 564.524 135.378L566.115 136.59ZM575.583 124.827C579.017 120.82 582.041 117.802 584.658 115.746L583.422 114.174C580.662 116.342 577.542 119.468 574.064 123.525L575.583 124.827ZM584.04 115.96H653.16V113.96H584.04V115.96ZM690.211 57.36V56.36H689.51L689.271 57.0178L690.211 57.36ZM634.627 210L633.687 209.658L633.198 211H634.627V210ZM782.947 207.12L782.306 206.352L782.29 206.366L782.274 206.38L782.947 207.12ZM790.723 200.208L791.405 200.939L791.417 200.927L791.43 200.915L790.723 200.208ZM799.363 191.28L798.655 190.573L798.644 190.584L798.633 190.596L799.363 191.28ZM806.562 183.216L805.855 182.509L805.805 182.559L805.762 182.616L806.562 183.216ZM808.003 181.2L808.835 181.755L808.835 181.755L808.003 181.2ZM812.611 173.712L813.443 174.267L813.462 174.238L813.479 174.208L812.611 173.712ZM814.051 171.12L814.945 171.567L815.669 170.12H814.051V171.12ZM703.747 171.12L702.808 170.776L702.315 172.12H703.747V171.12ZM710.083 153.84V152.84H709.384L709.144 153.496L710.083 153.84ZM767.395 153.84V154.84H767.792L768.081 154.567L767.395 153.84ZM808.579 114.96L809.265 115.687L811.094 113.96H808.579V114.96ZM742.051 114.96V113.96H741.646L741.355 114.242L742.051 114.96ZM714.691 141.456L713.751 141.115L715.386 142.174L714.691 141.456ZM731.107 96.24V95.24H730.406L730.167 95.8987L731.107 96.24ZM827.011 91.632L826.346 90.8846L826.336 90.894L826.325 90.9038L827.011 91.632ZM837.379 80.688L836.622 80.0344L836.613 80.0444L836.605 80.0548L837.379 80.688ZM847.459 68.016L846.654 67.4216L846.65 67.4278L847.459 68.016ZM854.371 57.36L855.265 57.8072L855.989 56.36H854.371V57.36ZM689.271 57.0178L633.687 209.658L635.566 210.342L691.15 57.7022L689.271 57.0178ZM634.627 211H779.491V209H634.627V211ZM779.491 211C779.684 211 779.835 210.946 779.897 210.922C779.975 210.892 780.043 210.857 780.093 210.829C780.195 210.773 780.298 210.703 780.396 210.634C780.594 210.492 780.844 210.294 781.139 210.048C781.732 209.554 782.56 208.823 783.619 207.86L782.274 206.38C781.221 207.337 780.417 208.046 779.858 208.512C779.577 208.746 779.371 208.908 779.233 209.006C779.2 209.03 779.174 209.048 779.153 209.061C779.144 209.068 779.136 209.072 779.13 209.076C779.125 209.079 779.122 209.081 779.122 209.081C779.122 209.081 779.123 209.08 779.125 209.079C779.127 209.078 779.13 209.077 779.134 209.075C779.142 209.071 779.157 209.064 779.179 209.055C779.202 209.047 779.321 209 779.491 209V211ZM783.587 207.888C785.909 205.953 788.515 203.636 791.405 200.939L790.04 199.477C787.17 202.156 784.592 204.447 782.306 206.352L783.587 207.888ZM791.43 200.915C794.317 198.027 797.205 195.044 800.092 191.964L798.633 190.596C795.76 193.66 792.888 196.629 790.015 199.501L791.43 200.915ZM800.07 191.987C803.16 188.897 805.596 186.172 807.363 183.816L805.762 182.616C804.073 184.868 801.709 187.519 798.655 190.573L800.07 191.987ZM807.27 183.923C807.434 183.759 807.649 183.473 807.88 183.149C808.129 182.801 808.448 182.335 808.835 181.755L807.17 180.645C806.789 181.217 806.484 181.663 806.253 181.987C806.137 182.149 806.044 182.275 805.971 182.368C805.935 182.415 805.906 182.45 805.885 182.476C805.862 182.503 805.853 182.512 805.855 182.509L807.27 183.923ZM808.835 181.755C809.617 180.582 810.397 179.314 811.175 177.952L809.438 176.96C808.68 178.286 807.924 179.514 807.17 180.645L808.835 181.755ZM811.175 177.952C811.933 176.626 812.689 175.398 813.443 174.267L811.778 173.157C810.996 174.33 810.216 175.598 809.438 176.96L811.175 177.952ZM813.479 174.208C814.243 172.871 814.738 171.981 814.945 171.567L813.156 170.673C812.979 171.027 812.514 171.865 811.742 173.216L813.479 174.208ZM814.051 170.12H703.747V172.12H814.051V170.12ZM704.685 171.464L711.021 154.184L709.144 153.496L702.808 170.776L704.685 171.464ZM710.083 154.84H767.395V152.84H710.083V154.84ZM768.081 154.567L809.265 115.687L807.892 114.233L766.708 153.113L768.081 154.567ZM808.579 113.96H742.051V115.96H808.579V113.96ZM741.355 114.242L713.995 140.738L715.386 142.174L742.746 115.678L741.355 114.242ZM715.63 141.797L732.046 96.5813L730.167 95.8987L713.751 141.115L715.63 141.797ZM731.107 97.24H819.811V95.24H731.107V97.24ZM819.811 97.24C820.873 97.24 822.058 96.7261 823.302 95.9303C824.575 95.1156 826.041 93.9175 827.696 92.3602L826.325 90.9038C824.716 92.4185 823.35 93.5244 822.223 94.2457C821.067 94.9859 820.284 95.24 819.811 95.24V97.24ZM827.675 92.3794C831.177 89.2667 834.669 85.579 838.152 81.3212L836.605 80.0548C833.176 84.2449 829.756 87.8533 826.346 90.8846L827.675 92.3794ZM838.135 81.3416C841.8 77.098 845.178 72.8522 848.267 68.6042L846.65 67.4278C843.595 71.6278 840.253 75.83 836.622 80.0344L838.135 81.3416ZM848.263 68.6104C851.538 64.1793 853.882 60.5727 855.265 57.8072L853.476 56.9128C852.171 59.5233 849.907 63.0207 846.654 67.4216L848.263 68.6104ZM854.371 56.36H690.211V58.36H854.371V56.36ZM903.128 210L902.407 209.307L900.778 211H903.128V210ZM961.304 210V211H961.719L962.012 210.706L961.304 210ZM1113.37 57.36L1114.08 58.0658L1115.78 56.36H1113.37V57.36ZM969.08 57.36V56.36H968.786L968.539 56.5188L969.08 57.36ZM959.288 66L958.564 65.3103L958.563 65.3113L959.288 66ZM948.344 78.096L947.587 77.4424L947.578 77.4524L947.57 77.4628L948.344 78.096ZM939.128 89.616L938.339 89.0021L938.328 89.0161L938.317 89.0305L939.128 89.616ZM935.096 95.952L934.126 95.7095L934.096 95.8289V95.952H935.096ZM935.096 96.24H934.096V97.24H935.096V96.24ZM1012.57 96.24L1013.29 96.9333L1014.92 95.24H1012.57V96.24ZM903.128 211H961.304V209H903.128V211ZM962.012 210.706L1114.08 58.0658L1112.66 56.6542L960.596 209.294L962.012 210.706ZM1113.37 56.36H969.08V58.36H1113.37V56.36ZM968.539 56.5188C965.753 58.3102 962.425 61.2565 958.564 65.3103L960.012 66.6897C963.831 62.6795 967.031 59.8658 969.621 58.2012L968.539 56.5188ZM958.563 65.3113C954.904 69.1633 951.245 73.207 947.587 77.4424L949.101 78.7496C952.739 74.5369 956.376 70.5167 960.013 66.6887L958.563 65.3113ZM947.57 77.4628C944.11 81.6916 941.033 85.5382 938.339 89.0021L939.917 90.2299C942.599 86.7818 945.666 82.9483 949.118 78.7292L947.57 77.4628ZM938.317 89.0305C937.065 90.765 936.092 92.1751 935.404 93.2551C935.061 93.7946 934.782 94.2623 934.574 94.6534C934.375 95.0262 934.205 95.3922 934.126 95.7095L936.066 96.1945C936.083 96.1278 936.153 95.9418 936.338 95.5946C936.514 95.2657 936.763 94.8453 937.092 94.3289C937.748 93.2969 938.695 91.9229 939.939 90.2015L938.317 89.0305ZM934.096 95.952V96.24H936.096V95.952H934.096ZM935.096 97.24H1012.57V95.24H935.096V97.24ZM1011.85 95.5467L902.407 209.307L903.849 210.693L1013.29 96.9333L1011.85 95.5467Z" fill="white"/>
</g>
<defs>
<linearGradient id="paint0_linear" x1="0" y1="131.999" x2="1050" y2="132" gradientUnits="userSpaceOnUse">
<stop stop-color="#FF4655"/>
<stop offset="1" stop-color="#FF7C9D"/>
</linearGradient>
</defs>
</svg>
