<svg xmlns="http://www.w3.org/2000/svg" viewBox="0 0 92.95 98.4" fill-rule="evenodd" xmlns:v="https://vecta.io/nano"><path d="M19.59 98.4l43.08-.51s1.68-10.66 8-14.26l.74-.4h-4.68L63 79.15l-3.77 4.08h-6.45l6.52-7.17-6.46-7.17h6.43l3.74 4 3.77-4h6.41l-6.52 7.17 5.93 6.55c3.65-1.73 7-2.5 8.64-3.63l-6.92-10.09h5.62l.82 1.11a7.26 7.26 0 0 1 .54-2.24c1.13-3-.26-5.53-1.82-7.83s6.75-8.22 7.12-9.44-12.25-11.88-12.87-14.71 3-9.1 3.66-11.79 2.8-7.17-1.56-10.46S61.54.37 40.88 0 7.85 17.89 5.27 24.89 3.17 50.29 8 56.81a115.73 115.73 0 0 1 9.41 17v-4.9h11.3c.23 0 .6 0 1 .14a7.35 7.35 0 0 1 1.21.31 4.65 4.65 0 0 1 1.17.6 4.1 4.1 0 0 1 1 .93 5 5 0 0 1 .71 1.39 6.43 6.43 0 0 1 .25 1.9A5.09 5.09 0 0 1 31.46 79l2.95 4.22h-5.5l-2.46-3.37h-4.31v3.4h-1.05c.71 2.41 1 4.34.68 5.42a67.86 67.86 0 0 0-2.18 9.73zm61.79-19.53a.41.41 0 0 1 .12-.09.41.41 0 0 0-.12.09zM27.5 75.63c1.16 0 1.75-.45 1.75-1.33s-.62-1.24-1.84-1.24h-5.27v2.57zm17-7a25.52 25.52 0 0 1 3.46.2 11.82 11.82 0 0 1 2.75.74A5.49 5.49 0 0 1 54.09 73a9.18 9.18 0 0 1 .42 3 8.69 8.69 0 0 1-.4 2.9A5.13 5.13 0 0 1 51 82.32a11.06 11.06 0 0 1-2.75.74 22.36 22.36 0 0 1-3.6.23c-3.37 0-5.84-.63-7.37-1.84S35 78.3 35 75.72a6.16 6.16 0 0 1 2.35-5.33c1.57-1.16 3.98-1.73 7.18-1.73zm.2 10.86a5.52 5.52 0 0 0 3.35-.88A3.08 3.08 0 0 0 49.27 76 3.14 3.14 0 0 0 48 73.31a5.68 5.68 0 0 0-3.35-.91 6.82 6.82 0 0 0-2 .26 3.09 3.09 0 0 0-2.18 1.81 4.22 4.22 0 0 0-.26 1.5 3.25 3.25 0 0 0 1.11 2.58 5 5 0 0 0 3.41.97z" fill="#fff"/><path d="M35.6 60.33c-.88.68-3.68-.17-4.16-1.42s1.47-2.41-2.16-3.71-6.66-3.12-6.77-4.88a29.1 29.1 0 0 0-.4-3.2s-5.78-1.53-6-7.66.88-6.37.88-6.37-1.29-6.81 1.78-10.49 5.81-4 5.81-4 .73-3.77 6.4-5.16 8.68.62 8.68.62A11.3 11.3 0 0 1 47.2 12c4.36.42 5.16 1.64 5.16 1.64a9.37 9.37 0 0 1 4.7 1.3 29.7 29.7 0 0 1 6.18 4.85 1.3 1.3 0 0 1 .31 1.45 9 9 0 0 1 3.26 3.34H54.17l-6.66 6.66H32.94a3.69 3.69 0 0 0-1.16-1.9 3.65 3.65 0 0 0-5 .15h0a3.69 3.69 0 0 0-1.08 2.57 3.64 3.64 0 0 0 1.08 2.58 3.66 3.66 0 0 0 5.13 0h0a3.73 3.73 0 0 0 1-1.75h15.28l6.66-6.66h12.67a9.27 9.27 0 0 1 .37 2.09 11.2 11.2 0 0 1-.68 4.71H53l-3.89 3.88h-8.1a2.61 2.61 0 0 0-.71-1 2.35 2.35 0 0 0-1.62-.62A2.51 2.51 0 0 0 37 36a2.37 2.37 0 0 0-.7 1.73 2.47 2.47 0 0 0 .7 1.76 2.59 2.59 0 0 0 1.76.71 2.49 2.49 0 0 0 1.73-.71 2.92 2.92 0 0 0 .6-.93h8.78l3.89-3.89h12.63a5.4 5.4 0 0 1-.68.91s-.17 4.42-3.55 6.32S53 43.29 53 43.29A37.12 37.12 0 0 1 48.53 48a7.7 7.7 0 0 1-4 1.38s-2.1 1.88-2.89 2.67a16.14 16.14 0 0 0-1.39 1.67s-1.13 2.33-1.87 3.63a15.07 15.07 0 0 1-2.78 2.98zm-4.9-29.74a1.95 1.95 0 0 0-2.72.09h0a2 2 0 0 0 0 2.83 1.92 1.92 0 0 0 1.42.6 2 2 0 0 0 1.41-.6 2.07 2.07 0 0 0 .57-1.42v-.25a2.12 2.12 0 0 0-.68-1.25zm8.56 6.55a.91.91 0 0 0-.54-.2.76.76 0 0 0-.59.26.78.78 0 0 0-.26.56.91.91 0 0 0 .26.6.85.85 0 0 0 .59.23.8.8 0 0 0 .57-.23 1 1 0 0 0 .25-.6v-.11h0a.74.74 0 0 0-.28-.51zM0 68.89h10.86a9.93 9.93 0 0 1 1 .14 7.75 7.75 0 0 1 1.22.31 12.68 12.68 0 0 1 1.16.63 4.57 4.57 0 0 1 1 1A5.09 5.09 0 0 1 16 72.4a7.23 7.23 0 0 1 .25 2 7.15 7.15 0 0 1-.25 2 4.54 4.54 0 0 1-.65 1.5 4.48 4.48 0 0 1-1 1.08 4.87 4.87 0 0 1-1.1.71 9.49 9.49 0 0 1-1.16.43 10 10 0 0 1-1.05.19 7.75 7.75 0 0 1-.8.06H4.76v2.89H0zm9.92 7.2c1.28 0 1.9-.51 1.9-1.56a2.13 2.13 0 0 0-.08-.6 1.88 1.88 0 0 0-.29-.39l-.37-.26a1.29 1.29 0 0 0-.45-.11 2.74 2.74 0 0 0-.43-.06 1.16 1.16 0 0 0-.34 0h-5.1v3zm11.17 7.14h-3.71v-9.44a73 73 0 0 1 3.71 9.44zm51.51-.62l.53.62h-1.75a13.92 13.92 0 0 1 1.22-.62zm14.74-13.72H93L86 79v4.22h-4.73V79h0a1.82 1.82 0 0 0 .82-2.27A15.6 15.6 0 0 1 80.76 70l2.86 3.85z" fill="#ff4655"/></svg>