<svg xmlns="http://www.w3.org/2000/svg" viewBox="0 0 92.95 98.37"><defs><style>.cls-1{fill:#1a1a1a;}.cls-1,.cls-2{fill-rule:evenodd;}.cls-2{fill:#fff;}</style></defs><g id="Layer_2" data-name="Layer 2"><g id="Layer_1-2" data-name="Layer 1"><path class="cls-1" d="M19.59,98.37l43.08-.51s1.68-10.63,8-14.23a7.58,7.58,0,0,1,.74-.4H66.73L63,79.15l-3.77,4.08H52.78l6.52-7.17-6.46-7.2h6.43L63,72.94l3.77-4.08h6.41l-6.52,7.2,5.93,6.55c3.65-1.73,7-2.5,8.64-3.63L74.32,68.86h5.62L80.76,70a7.06,7.06,0,0,1,.54-2.24c1.13-3-.26-5.53-1.82-7.83s6.75-8.22,7.12-9.44S74.35,38.61,73.73,35.78s3-9.1,3.66-11.79,2.8-7.2-1.56-10.46S61.54.37,40.88,0,7.85,17.89,5.27,24.87,3.17,50.26,8,56.81a115.16,115.16,0,0,1,9.41,17v-4.9H27.92c.28,0,.54,0,.79,0s.6,0,1,.14a5.22,5.22,0,0,1,1.21.31,4.65,4.65,0,0,1,1.17.6,4.1,4.1,0,0,1,1,.93,4.81,4.81,0,0,1,.71,1.36,6.79,6.79,0,0,1,.25,1.93A5.14,5.14,0,0,1,31.46,79l2.95,4.22-5.5,0-2.46-3.37H22.14v3.4H21.09c.71,2.41,1,4.34.68,5.42A67,67,0,0,0,19.59,98.37Zm61.79-19.5a.41.41,0,0,1,.12-.09A.41.41,0,0,0,81.38,78.87ZM27.5,75.63c1.16,0,1.75-.45,1.75-1.33s-.62-1.24-1.84-1.24H22.14v2.57Zm17-7a25.16,25.16,0,0,1,3.46.23,11.82,11.82,0,0,1,2.75.74,5.65,5.65,0,0,1,2.07,1.33A6,6,0,0,1,54.09,73a9.5,9.5,0,0,1,.42,3,8.8,8.8,0,0,1-.4,2.9A5.18,5.18,0,0,1,53,80.94a5.58,5.58,0,0,1-2,1.38,11.06,11.06,0,0,1-2.75.74,26.44,26.44,0,0,1-3.6.23c-3.37,0-5.84-.63-7.37-1.84S35,78.3,35,75.69a6.23,6.23,0,0,1,2.35-5.33C38.92,69.23,41.33,68.63,44.53,68.63Zm.2,10.89a5.52,5.52,0,0,0,3.35-.88A3.08,3.08,0,0,0,49.27,76,3.14,3.14,0,0,0,48,73.31a5.68,5.68,0,0,0-3.35-.91,8.15,8.15,0,0,0-2,.23,3.79,3.79,0,0,0-1.39.71,3.17,3.17,0,0,0-.79,1.13,4.1,4.1,0,0,0-.26,1.5,3.25,3.25,0,0,0,1.11,2.58A5,5,0,0,0,44.73,79.52Z"/><path class="cls-2" d="M35.6,60.33c-.88.65-3.68-.17-4.16-1.42s1.47-2.41-2.16-3.71-6.66-3.12-6.77-4.88a29.1,29.1,0,0,0-.4-3.2s-5.78-1.53-6-7.66.88-6.37.88-6.37S15.7,26.26,18.77,22.6s5.81-4,5.81-4,.73-3.77,6.4-5.16,8.68.62,8.68.62A11.3,11.3,0,0,1,47.2,12c4.36.42,5.16,1.64,5.16,1.64a9.5,9.5,0,0,1,4.7,1.27,30.63,30.63,0,0,1,6.18,4.88,1.25,1.25,0,0,1,.31,1.42,9.2,9.2,0,0,1,3.26,3.37H54.17l-6.66,6.66H32.94a3.66,3.66,0,0,0-6.12-1.75h0a3.64,3.64,0,0,0-1.08,2.57,3.7,3.7,0,0,0,1.08,2.58,3.66,3.66,0,0,0,5.13,0h0a3.73,3.73,0,0,0,1-1.75H48.19l6.66-6.66H67.52a9.27,9.27,0,0,1,.37,2.09,11.2,11.2,0,0,1-.68,4.71H53l-3.89,3.88h-8.1a2.61,2.61,0,0,0-.71-1,2.35,2.35,0,0,0-1.62-.62A2.51,2.51,0,0,0,37,36a2.49,2.49,0,0,0,0,3.46,2.48,2.48,0,0,0,1.76.74,2.39,2.39,0,0,0,1.73-.74,2.78,2.78,0,0,0,.6-.9h8.78l3.89-3.89H66.39a5.4,5.4,0,0,1-.68.91S65.54,40,62.16,41.9,53,43.29,53,43.29A37.12,37.12,0,0,1,48.53,48a7.7,7.7,0,0,1-4,1.38s-2.1,1.88-2.89,2.67a14.26,14.26,0,0,0-1.39,1.64s-1.13,2.36-1.87,3.63A14.64,14.64,0,0,1,35.6,60.33ZM30.7,30.59a1.95,1.95,0,0,0-2.72.09h0a2,2,0,0,0-.6,1.41,2,2,0,0,0,.6,1.42,1.9,1.9,0,0,0,1.42.57,2,2,0,0,0,1.41-.57,2.13,2.13,0,0,0,.57-1.42v-.25A2,2,0,0,0,30.7,30.59Zm8.56,6.55a.91.91,0,0,0-.54-.2.85.85,0,0,0-.59.23.81.81,0,0,0,0,1.19.85.85,0,0,0,.59.23.8.8,0,0,0,.57-.23,1,1,0,0,0,.25-.6v-.11h0A.74.74,0,0,0,39.26,37.14Z"/><path class="cls-2" d="M0,68.86H10.06c.29,0,.54,0,.8,0a9.93,9.93,0,0,1,1,.14,5.44,5.44,0,0,1,1.22.31,8,8,0,0,1,1.16.63,4,4,0,0,1,1,1A5.09,5.09,0,0,1,16,72.4a7.23,7.23,0,0,1,.25,2,7.15,7.15,0,0,1-.25,2,4.84,4.84,0,0,1-.65,1.5,5.12,5.12,0,0,1-1,1.08,4.87,4.87,0,0,1-1.1.71,6.12,6.12,0,0,1-1.16.4c-.4.11-.77.17-1.05.22a7.4,7.4,0,0,1-.8,0H4.76v2.92H0Zm9.92,7.23c1.28,0,1.9-.51,1.9-1.56a2.13,2.13,0,0,0-.08-.6,1.88,1.88,0,0,0-.29-.39l-.37-.26a1.29,1.29,0,0,0-.45-.11,2.74,2.74,0,0,0-.43-.06,1.16,1.16,0,0,0-.34,0H4.76v3Zm11.17,7.14H17.38V73.76A75,75,0,0,1,21.09,83.23Zm51.51-.62.53.62H71.38C71.77,83,72.17,82.81,72.6,82.61ZM87.34,68.86H93L86,79v4.22H81.27V79l0,0a1.82,1.82,0,0,0,.82-2.27A15.68,15.68,0,0,1,80.76,70l2.86,3.85Z"/></g></g></svg>