<svg xmlns="http://www.w3.org/2000/svg" viewBox="0 0 111.09 72.28" xmlns:v="https://vecta.io/nano"><g fill="#fff"><path d="M21.69 43.37h7.22v7.23h7.23v7.23h7.23v7.23h7.23v-7.23h7.23V50.6H43.37v-7.23H59.9v-6.94h11.42v-7.52h15.42v-7.22H57.83v-7.23H50.6v7.23h-7.23v-7.23h-7.23V7.23H21.69v7.23h-7.23v7.23H7.23v7.22h7.23v7.23h7.23zm9.92-14.94l-2 6.61h-2.43a7.26 7.26 0 0 1-1.92-.23 4.14 4.14 0 0 1-1.7-.77 3.74 3.74 0 0 1-1.22-1.5 5.63 5.63 0 0 1-.46-2.38 6.54 6.54 0 0 1 .34-2 7.06 7.06 0 0 1 .91-1.87 4.84 4.84 0 0 1 1.33-1.37 2.73 2.73 0 0 1 1.59-.53h6.66q-.47.77-.93 1.44l-1.05 1.28h-4.2a.72.72 0 0 0-.48.17 2.06 2.06 0 0 0-.42.45 2.91 2.91 0 0 0-.37.62 5 5 0 0 0-.37 1.14 1.63 1.63 0 0 0 0 .37 2.31 2.31 0 0 0 .17.82 2.8 2.8 0 0 0 .4.79 2.58 2.58 0 0 0 .54.6.87.87 0 0 0 .56.25h1l.36-1.3h-1.87 0l.2-.4.45-.73a10.52 10.52 0 0 1 .54-.82 4.5 4.5 0 0 1 .51-.63zM42 35l-1.07-8.59c0-.17-.09-.37-.12-.6s-.11-.48-.17-.68a3.31 3.31 0 0 0-.22-.54.4.4 0 0 0-.32-.22h-2.71a.53.53 0 0 0-.31.14l-.34.34-.31.4a1.18 1.18 0 0 0-.17.34l-5.79 9.21h0a.84.84 0 0 1 0 .15h6.78a1.51 1.51 0 0 0 .37-.37l.48-.71a6.45 6.45 0 0 0 .42-.74 2.48 2.48 0 0 0 .26-.45l.31 2.32zm-6.46-2.9l2.69-4.5.57 4.7h-3.31zM55.19 35l3.12-10.63H54.4l-3.91 5.33-.83-5.33h-3.88L42.66 35h3.09l1.73-6 .88 6h1.13l4.37-6-1.73 6zm4-10.63L56.1 35h8.08a1.17 1.17 0 0 0 .19-.2l.43-.48c.17-.2.31-.4.48-.63a3.3 3.3 0 0 0 .4-.56s0-.06.08-.15a2 2 0 0 0 .12-.25 1.65 1.65 0 0 0 .14-.26.93.93 0 0 1 .08-.17H60l.34-1.22h3.16l2.29-2.69h-3.71l-1.5 1.84.88-3.14h5c.08 0 .22-.12.39-.34a4.69 4.69 0 0 0 .6-.77c.2-.28.39-.59.56-.88s.29-.54.37-.73zM46.6 39a7.11 7.11 0 0 1-.68 1.07 2.89 2.89 0 0 1-.74.74 3.14 3.14 0 0 1-.87.4 3.4 3.4 0 0 1-1.11.14h-2l1.53-5.19h3.41a.82.82 0 0 1 .68.31 1.58 1.58 0 0 1 .22.83 3.19 3.19 0 0 1-.14.85 3.51 3.51 0 0 1-.3.85zm-2.69-1.51L43.17 40h.2a1.58 1.58 0 0 0 .43-.12 4.29 4.29 0 0 0 .51-.28 3.28 3.28 0 0 0 .45-.37 2.21 2.21 0 0 0 .34-.43l.08-.17a.52.52 0 0 0 .12-.22l.08-.31a.42.42 0 0 0 .06-.26.65.65 0 0 0-.06-.28.2.2 0 0 0-.2-.12zm4-1.33l-1.51 5.17h3.94s.06 0 .12-.09a2.7 2.7 0 0 1 .2-.25 2.42 2.42 0 0 0 .22-.28 1.26 1.26 0 0 0 .2-.29l.06-.05v-.15c0-.06 0-.08.06-.14s0 0 0 0h-3l.2-.6H50l1.11-1.33h-1.79l-.73.9.41-1.58h2.41s.11 0 .2-.17l.28-.36.28-.43a1.77 1.77 0 0 0 .17-.37zm6.55 3.49l-.37-3.49h-1.34l.48 4.2a1.18 1.18 0 0 0 .06.28 1.35 1.35 0 0 0 .06.34c0 .11.08.2.11.26s.09.11.14.11h1.31a.48.48 0 0 0 .14-.06.88.88 0 0 0 .17-.2.45.45 0 0 0 .14-.19.77.77 0 0 0 .11-.15l2.78-4.59h-1.61zm6.4-27.69h.26.25.26.25.23.25.23.23.22.23.2.2.22.17.2.17.17.17.14.15.14.11.11.12.08.09.08.06.03.05 0 .03V7.88h-6.32-6.32-6.29v4.08h13.83z" fill-rule="evenodd"/><path d="M70.21 7.88h11.23v4.08H70.21zM52.55 67.35h33.53v4.08H52.55zm7.57-15.08H73.3v4.08H60.12zm14.32-21.29h26.16v4.08H74.44zM59.95 44.93h26.5v4.08h-26.5zm29.62 0h21.51v4.08H89.57zM61 15.31h37.28v4.08H61z"/></g><g fill="#ff4655"><path d="M0 21.69h7.23v7.23H0z"/><path d="M7.23 14.46h7.23v7.23H7.23z"/><path d="M14.46 7.23h7.23v7.23h-7.23z"/><path d="M21.68 0h7.23 7.23v7.23h-7.23-7.23V0z" fill-rule="evenodd"/><path d="M36.14 7.23h7.23v7.23h-7.23zm54.43 14.46h6.32v7.23h-6.32zm-47.2 43.37h7.23v7.23h-7.23zm16.27-6.04h18.94v6.04H59.64zM21.69 43.37h7.23v7.23h-7.23z"/><path d="M14.46 36.14h7.23v7.23h-7.23z"/><path d="M7.23 28.91h7.23v7.23H7.23zm28.91 28.92h7.23v7.23h-7.23z"/><path d="M28.91 50.6h7.23v7.23h-7.23zm35.32-12.9h12.61v4.08H64.23zM43.37 14.46h14.46v7.23H43.37zM80.05 37.7h26.5v4.08h-26.5zm-3.68 14.57h15.99v4.08H76.37zm-30.73-7.34H57.6v4.08H45.64zm56.8-29.62h3.46v4.08h-3.46zM53.23 60.97h3.46v4.08h-3.46z"/></g></svg>