<svg xmlns="http://www.w3.org/2000/svg" viewBox="0 0 150.37 82.5" xmlns:v="https://vecta.io/nano"><g fill-rule="evenodd"><path d="M29.23 32.07A26.77 26.77 0 0 0 24 33.29a54.72 54.72 0 0 1 14.3 10.35 54.61 54.61 0 0 1 15.87 34.27h3.6a58.17 58.17 0 0 0-16.92-36.82 60.3 60.3 0 0 0-11.62-9.02zM16.44 37.6a27 27 0 0 0-3 2.75 44 44 0 0 1 17.4 10.74A44.34 44.34 0 0 1 43.6 77.85h3.6a47.73 47.73 0 0 0-13.84-29.31A47.84 47.84 0 0 0 16.44 37.6zm-6.72 7.51a31 31 0 0 0-1.58 3 35.15 35.15 0 0 1 16.41 9.3 35.25 35.25 0 0 1 10.06 20.41h3.32a38.61 38.61 0 0 0-11.06-22.76 38.63 38.63 0 0 0-17.15-9.95zM66.3 77.94l75.8-.63c7.06-3.43 16.7-32.37-5.56-46.23-6.51-4.08-11-3.8-19.7-3.57-5.47-10.32-7-12.73-14.93-19.19C82.26-7.78 49.32-.1 38.21 27.79a67 67 0 0 1 8.65 7.29A66.82 66.82 0 0 1 66.3 77.94zM6.58 52.31a33.23 33.23 0 0 0-.74 3.49 27.09 27.09 0 0 1 13 7.28 27.16 27.16 0 0 1 7.64 14.72h3.6a30.79 30.79 0 0 0-8.71-17.24 30.93 30.93 0 0 0-14.79-8.25zm-1 7v2.72a3 3 0 0 0 0 .42 20.7 20.7 0 0 1 8.71 5.22 20.81 20.81 0 0 1 5.58 10.09h3.06a23.74 23.74 0 0 0-6.52-12.25 24.1 24.1 0 0 0-10.88-6.22zm.37 6a28.79 28.79 0 0 0 .73 3.21 14.77 14.77 0 0 1 3.91 2.83 15.57 15.57 0 0 1 3.86 6.35h2.75a18.28 18.28 0 0 0-4.73-8.19 19.08 19.08 0 0 0-6.57-4.19z" fill="#ff4655"/><path d="M41.7 68.81h3.74a47.76 47.76 0 0 0-5.16-11.54l2.49-8.59a55.31 55.31 0 0 1 6.41 10.44l-2.81 9.69L52 49.62l-1.3 4.48a57.55 57.55 0 0 0-6.7-9.58l-7.06 24.29 2-6.72a45.77 45.77 0 0 1 2.76 6.72zm12.1-25.57l2-6.91h-7.75a66.65 66.65 0 0 1 5.75 6.91zm33.14 8l.2-2.05c.06-.66 0-1.27 0-1.89 0-3.92-1-6.72-3.06-8.42s-5-2.55-9-2.55h-6.4a10.06 10.06 0 0 0-5.13 1.47 18.64 18.64 0 0 0-4.62 3.88 22.91 22.91 0 0 0-3 4.62 66.78 66.78 0 0 1 9.16 22.51h5.78a12.13 12.13 0 0 0 5.64-1.42 17.63 17.63 0 0 0 4.85-3.8A21.54 21.54 0 0 0 85 58a23 23 0 0 0 1.94-6.76zm-31.3-4.45l-.22.51-.26.59.26-.59.22-.51zm-.48 1.1a3.7 3.7 0 0 1-.17.4 3.7 3.7 0 0 0 .17-.4zm-.25.62l-.17.49zm-1.48 6.92v.14.12-.12zm-.08 1.62v.05h0zm0 .11v.82c.03-.25 0-.54 0-.82zm0 1.25a8.12 8.12 0 0 0 .06.82 8.12 8.12 0 0 1-.01-.82zm.09 1.05a12.11 12.11 0 0 0 .82 3.34 9.4 9.4 0 0 0 1.16 2.1c-.11-.2-.25-.37-.36-.57l-1.51-4.11c0-.22-.03-.51-.06-.76zm2 5.44a10.71 10.71 0 0 0 1 1.1 10.71 10.71 0 0 1-.97-1.1zm1.08 1.1l.43.37.59.43-.54-.4c-.19-.11-.34-.25-.48-.4zm6.27-13a15.61 15.61 0 0 1 .25-1.13c.11-.45.26-.88.43-1.36a9.91 9.91 0 0 1 1.19-2.13 14.3 14.3 0 0 1 1.67-1.93 10.85 10.85 0 0 1 1.79-1.39 3.59 3.59 0 0 1 1.67-.51h4a3.77 3.77 0 0 1 2 .46A3.17 3.17 0 0 1 77 46.28a5.08 5.08 0 0 1 .53 1.72 11.79 11.79 0 0 1 .17 2v1.08 1c0-.06-.06.14-.14.53l-.17.63a5.39 5.39 0 0 1-.57 1.33 7.88 7.88 0 0 1-1.3 2.13 17.06 17.06 0 0 1-1.87 1.92A11 11 0 0 1 71.69 60a3.34 3.34 0 0 1-1.42.51H67.1a2.72 2.72 0 0 1-1.7-.59 6.67 6.67 0 0 1-1.4-1.6 8.06 8.06 0 0 1-1-2.15 8.54 8.54 0 0 1-.34-2.3v-.37a1.15 1.15 0 0 1 .13-.45zm28 15.76h9.39l7-24.21H113c.25 0 .65-.34 1.24-1a20.88 20.88 0 0 0 1.76-2.32l1.73-2.73a20.65 20.65 0 0 0 1.16-2.23H94.37a9.32 9.32 0 0 0-1.62 1.81l-1.87 2.61-1.59 2.44a7 7 0 0 0-.68 1.36v.05h9.24z" fill="#1a1a1a"/></g><path d="M13.44 40.35a44 44 0 0 1 17.4 10.74 43.71 43.71 0 0 1 8.05 11h0l-2 6.72h4.81a45.49 45.49 0 0 1 1.9 9.07h-5.67a38.61 38.61 0 0 0-11.06-22.82 38.63 38.63 0 0 0-17.15-10 27.71 27.71 0 0 1 3.72-4.71zM24 33.29a54.72 54.72 0 0 1 14.3 10.35 59.19 59.19 0 0 1 4.47 5l-2.49 8.59a48.14 48.14 0 0 0-6.92-8.73 47.84 47.84 0 0 0-16.92-10.9A37.42 37.42 0 0 1 20 35.13a22.71 22.71 0 0 1 4-1.84zm25.18 25.83a54.44 54.44 0 0 1 5 18.79h-7a50.18 50.18 0 0 0-1.76-9.07h.93zM38.21 27.79a67 67 0 0 1 8.65 7.29l1.19 1.25h-1.68L44 44.52l-3.14-3.43a60.3 60.3 0 0 0-11.62-9 62.35 62.35 0 0 1 7.14-.39 20.87 20.87 0 0 1 1.53-3.09l.3-.82zm11 9.78l.82.94-.82-.94zm1.93 2.24l.34.43zm.45.54l.34.43zm2.21 2.89a63.74 63.74 0 0 1 4.93 8l-2.83-4.91-.48 1a21.65 21.65 0 0 0-1.82 6.63l-.17 1.64-.08 1.53a17.53 17.53 0 0 0 .25 3.12c-.88-2.1-1.87-4.14-2.94-6.12zm5.1 8.31a15.42 15.42 0 0 1 .85 1.67 15.42 15.42 0 0 0-.85-1.67zm2 4.08l.42 1c-.15-.29-.32-.63-.43-1zm1.59 4a2.86 2.86 0 0 1 .19.54 2.86 2.86 0 0 0-.2-.49zM65 68.58a68.45 68.45 0 0 1 1.27 9.36h-8.53a57.14 57.14 0 0 0-2.66-13.58A8.16 8.16 0 0 0 57 66.4a10.27 10.27 0 0 0 4 1.87 23.15 23.15 0 0 0 4.14.54zM8.14 48.09a35.15 35.15 0 0 1 16.41 9.3 35.25 35.25 0 0 1 10.06 20.43h-4.53a30.79 30.79 0 0 0-8.71-17.24 30.93 30.93 0 0 0-14.79-8.27 27.53 27.53 0 0 1 1.56-4.22zm-2.3 7.71a27.09 27.09 0 0 1 13 7.28 27.16 27.16 0 0 1 7.64 14.72h-3.55a23.74 23.74 0 0 0-6.52-12.25 24.1 24.1 0 0 0-10.88-6.26 32.8 32.8 0 0 1 .31-3.49zm-.26 6.63a20.7 20.7 0 0 1 8.71 5.22 20.81 20.81 0 0 1 5.58 10.09h-2.72a18.28 18.28 0 0 0-4.73-8.19 19.08 19.08 0 0 0-6.52-4.2 27.45 27.45 0 0 1-.32-2.92zm1.05 6.1a14.77 14.77 0 0 1 3.91 2.83 15.57 15.57 0 0 1 3.86 6.35h-2.1a13.22 13.22 0 0 0-3.14-4.9 14.62 14.62 0 0 0-1.39-1.22 28.42 28.42 0 0 1-1.14-3.06z" fill="#1a1a1a"/><circle cx="4.22" cy="78.28" r="4.22" fill="#1a1a1a"/></svg>