<svg xmlns="http://www.w3.org/2000/svg" viewBox="0 0 137.93 80.99" xmlns:v="https://vecta.io/nano"><path d="M109.84 6.35A21.4 21.4 0 0 1 129.66 36a21.4 21.4 0 0 1-19.82 13.24 21.48 21.48 0 0 1-7.42-1.3 1.09 1.09 0 0 1 .08-.15.69.69 0 0 0 .09-.17l.17-.34a1.18 1.18 0 0 0 .17-.36.52.52 0 0 1 .11-.2h-3.32a26.37 26.37 0 0 1-2.46-1.56h2.41l3-3.52h-4.82l-2 2.38L97 39.91h6.43c.09 0 .29-.14.51-.4a8.3 8.3 0 0 0 .77-1l.71-1.16c.23-.4.4-.71.51-1h-5.47l5.3-7.29-12.1-3.94a6.83 6.83 0 0 0-.12.77 18.37 18.37 0 0 0-.11 1.84 16.38 16.38 0 0 0 1.25 6.29 15.15 15.15 0 0 0 1.21 2.33h-1.78l-1.3 4.39-1.45-2.15a4 4 0 0 0 .28-.37l1.22-1.87h-2.63l-.17-.35a21.19 21.19 0 0 1-1.65-8.19 21.42 21.42 0 0 1 1.65-8.19A21.52 21.52 0 0 1 101.65 8a21.41 21.41 0 0 1 8.19-1.65zm2.53 18l12.1-3.94a13.2 13.2 0 0 0-1-1.78 16.11 16.11 0 0 0-2-2.39 16.18 16.18 0 0 0-9.07-4.62zm13.66.85l-12.11 3.94 7.49 10.29h0a15.94 15.94 0 0 0 3.57-5.3 16.56 16.56 0 0 0 1.25-6.29 18.34 18.34 0 0 0-.12-1.84 6.8 6.8 0 0 0-.11-.83zm-8.68 17.21l-7.51-10.32-7.48 10.32a16.86 16.86 0 0 0 11.85 1.22 16.76 16.76 0 0 0 3.14-1.25zm-22.11-22l12.08 3.94V11.59a16.23 16.23 0 0 0-9 4.62 15.78 15.78 0 0 0-2 2.39c-.42.56-.76 1.16-1.08 1.78zM58.79 0a27.82 27.82 0 0 1 10.63 2.13 27.18 27.18 0 0 1 9 6 28.07 28.07 0 0 1 6 9 27.53 27.53 0 0 1 2.1 10.6 27.88 27.88 0 0 1-1.36 8.62h-1a3.33 3.33 0 0 0-2.07.71 6 6 0 0 0-1.73 1.78 8.61 8.61 0 0 0-1.19 2.41 8.16 8.16 0 0 0-.43 2.58 7.48 7.48 0 0 0 .43 2.69l-.83.85-.7.68-1-8a21.68 21.68 0 0 0 3.83-12.33c0-.82-.06-1.64-.14-2.44l-.2-1.36-16.49 5.45 6.63 9.12L66.84 44l-2.13-2.92 1.37-4.65h-4.74l-2.55-3.52L55.11 38l-.23-1.56h-5l-4 13.77h4l.66-2.26a22.66 22.66 0 0 0 2.52.87h0l.2 1.39h1.44l.68-.9a19.93 19.93 0 0 0 2.92.28l-.2.62h4l.26-.9c.48-.06.93-.17 1.38-.26l-.59.91V50a1.17 1.17 0 0 1 0 .17h8.79a1.59 1.59 0 0 0 .45-.48l.65-.91.57-.93a4.82 4.82 0 0 0 .28-.6l.46 2.92h1a26.21 26.21 0 0 1-5.81 3.29 27.79 27.79 0 0 1-36.43-36.28 28.39 28.39 0 0 1 6-9 27.18 27.18 0 0 1 9-6A27.7 27.7 0 0 1 58.79 0zm3 23.64l16.58-5.38a22.73 22.73 0 0 0-1.56-2.67 22.21 22.21 0 0 0-2.64-3.2A21.77 21.77 0 0 0 68 8.05a21.55 21.55 0 0 0-6.2-1.81zm10.72 17.92l.82 1.16.48 4h-4.19v-.28zm-28.83 1.9l10.26-14.09L37.36 24l-.2 1.36-.14 2.44a21.55 21.55 0 0 0 6.38 15.37zm-4.48-25.2l16.59 5.38V6.24a21.43 21.43 0 0 0-12.39 6.15 22.21 22.21 0 0 0-2.64 3.2 24.22 24.22 0 0 0-1.56 2.67z" fill="#ff4655"/><g fill-rule="evenodd"><path d="M19.45 23l18.48 9.27v-5.48h75v34.07h-75v-5.47l-18.48 9.3zm42.6 27.21l4-13.77H61l-5.1 6.91-1-6.91h-5l-4 13.77h4l2.24-7.74 1.14 7.74h1.44l5.64-7.74-2.24 7.74zm15.93 0L76.59 39a5.78 5.78 0 0 0-.17-.76 6 6 0 0 0-.2-.88 2.92 2.92 0 0 0-.31-.71c-.11-.17-.22-.28-.37-.28h-3.48a.62.62 0 0 0-.37.2 3.9 3.9 0 0 0-.46.45 5.77 5.77 0 0 0-.39.51 1.24 1.24 0 0 0-.23.4l-7.51 12V50a1.17 1.17 0 0 1 0 .17h8.79a1.59 1.59 0 0 0 .45-.48l.65-.91.57-.93a4.82 4.82 0 0 0 .28-.6l.46 2.92zm-8.36-3.74l3.49-5.84.7 6.12h-4.19zm21.8-4.82l-2.61 8.56h-3.12a10.39 10.39 0 0 1-2.49-.28 5.55 5.55 0 0 1-2.21-1A5.45 5.45 0 0 1 79.43 47a7 7 0 0 1-.6-3.09 8.16 8.16 0 0 1 .43-2.58 8.61 8.61 0 0 1 1.19-2.41 6 6 0 0 1 1.73-1.78 3.33 3.33 0 0 1 2.07-.71h8.61c-.39.68-.82 1.27-1.22 1.87a12.2 12.2 0 0 1-1.36 1.64h-5.41a1 1 0 0 0-.62.23 2.3 2.3 0 0 0-.57.59 4.32 4.32 0 0 0-.48.83 5.21 5.21 0 0 0-.34.87c0 .23-.09.4-.12.6a2.9 2.9 0 0 0 0 .48 2.81 2.81 0 0 0 .2 1.05 4.48 4.48 0 0 0 .53 1 3.76 3.76 0 0 0 .68.79 1.36 1.36 0 0 0 .77.32h1.25l.43-1.7h-2.35 0l.25-.51.57-1c.23-.4.45-.71.71-1a6 6 0 0 1 .65-.82zm2.69-5.21l-4 13.77h10.48s.12-.08.26-.25a6.38 6.38 0 0 0 .54-.63c.23-.25.42-.51.65-.79a3.8 3.8 0 0 0 .51-.74.69.69 0 0 0 .09-.17l.17-.34a1.18 1.18 0 0 0 .17-.36.52.52 0 0 1 .11-.2h-8l.46-1.56h4.14l3-3.52h-4.84l-2 2.38L97 39.91h6.43c.09 0 .29-.14.51-.4a8.3 8.3 0 0 0 .77-1l.71-1.16c.23-.4.4-.71.51-1z" fill="#fff"/><path d="M1.42 63c.37.65.11.42.76.73l-1.05.43c.34.62.12 0 .51.79l-1.13.31.57.94c0 .34-1.56.06.56.57a2.07 2.07 0 0 0-.45.17c-.37.19-.17.08-.42.31 1.41.2.59-.09 1.24.39l-1.1.29.45.28c.2.26.57.17-1.22.8.46.73.06.56.46 1s.7.4 1 .83l-1.4.51-.2.08c.43.63.37.48 1.25.71-.48.48-.43.23-.71.82 1.3 0 .71.15 1.64.68-.22.66-.25.06-.48.74s.45 1.7.3 2.62l.94.45a.19.19 0 0 1 .14.09l-1.28.36c.94.37.54.09 1.11.68-1 .23-1.16.32-1.33 1.56 1 .29.71.17 1.22.83 3.37-.77 10.8-1 14.91-1.51l81.78-8c8.67-1 17.46-1.67 26.13-2.61 1.5-.14 10.86-.68 11.51-1.36 0-.06-.2 0 .17-.2a4.14 4.14 0 0 1 .43-.2l.19-.48a.26.26 0 0 0-.17 0s-.14 0-.17-.06a4.18 4.18 0 0 1-.65-.11c0-.09-.2-.6-.2-.63 0-.71-.11.12.23-.39l.14-.23c.46-1 .06-1.53-1.47-1.9.22-.94.22-.4-.06-1.13l1.13-.77-.62-.34c1.76-.37 1.22-.91-.2-1.08.57-.37.74-.37.94-.82-.68-.23-3.26-.23-2-1.05.25-.14.51-.17.79-.34 1.31-.76-.23-.05.37-.68s.23.37.54-.65l-1.76-.11 1.24-1.1c-.54-.28-.06-.09-.77-.26a7.65 7.65 0 0 1-.85-.14c.06-.79.68-.51 1.28-1.08-1.08-1.13-2.16.15-2.95-1l-.12-.17c-.17-.36-.25-.25.2-.59s1.56-.45-.05-.74l.82-.65c-.77-.31-.71-.08-1.45-.34l.94-.43c-1.82-.11-1-.19-.91-.51 0 0 .06 0 .06-.08-3.26-.54-10.38.71-14.12 1l-35.91 3.46-80.24 7.79v.09.08z" fill="#ff4655"/></g><g fill="#fff"><path d="M34.27 63.58l5.42 9.5-3.83.37-.86-1.62-4.9.48-.65 1.69-3.8.37 3.49-10.35zM31 69.34l2.56-.26L32 66.61zm13.67-6.81a15.85 15.85 0 0 1 3.24 0 5.64 5.64 0 0 1 2.21.74 3.44 3.44 0 0 1 1.27 1.27 4.74 4.74 0 0 1 .54 1.82l-3.4.31a.58.58 0 0 0-.06-.17 2 2 0 0 0-.28-.37 2.75 2.75 0 0 0-.62-.45 3.39 3.39 0 0 0-1-.28 5.77 5.77 0 0 0-1.62 0 7.91 7.91 0 0 0-1.39.25 2.89 2.89 0 0 0-.93.43 1.8 1.8 0 0 0-.49.54 1.5 1.5 0 0 0-.22.62 4.5 4.5 0 0 0 0 .65 2.76 2.76 0 0 0 .25.88 2.14 2.14 0 0 0 .57.65 3.2 3.2 0 0 0 1.05.4 7.26 7.26 0 0 0 1.62 0 8.91 8.91 0 0 0 1.59-.31 3.17 3.17 0 0 0 1-.46 2.34 2.34 0 0 0 .48-.45.58.58 0 0 0 .17-.37v-.14l3.35-.31a4.19 4.19 0 0 1 0 1.33 3.32 3.32 0 0 1-.54 1.19 3.87 3.87 0 0 1-1.14 1 7.19 7.19 0 0 1-1.87.76 16.29 16.29 0 0 1-2.75.49 17.83 17.83 0 0 1-3.26 0 5.06 5.06 0 0 1-2.15-.73A3.63 3.63 0 0 1 39 70.47a6.24 6.24 0 0 1-.56-2.16 6 6 0 0 1 .22-2.43 3.43 3.43 0 0 1 1.14-1.73 5.79 5.79 0 0 1 2-1.08 15.55 15.55 0 0 1 2.87-.54zm15.82-1.36l5.42 9.5-3.83.33-.91-1.59-4.9.45-.6 1.73-3.8.37 3.49-10.35zm-3.32 5.76l2.56-.26-1.53-2.47z"/><path d="M72.77 70.07l-6.86.65L65 60.8l6.8-.65a13.32 13.32 0 0 1 1.73-.06 6.37 6.37 0 0 1 1.56.29 3.88 3.88 0 0 1 1.36.73 4.15 4.15 0 0 1 1 1.37 7.11 7.11 0 0 1 .51 2.09 5.3 5.3 0 0 1-.15 2 3.79 3.79 0 0 1-.76 1.5 5 5 0 0 1-1.22 1 6.41 6.41 0 0 1-1.45.65 9 9 0 0 1-1.61.35zm-.49-2.69a3.12 3.12 0 0 0 1.31-.38 1.75 1.75 0 0 0 .71-.87 2.75 2.75 0 0 0 .17-1.17 2.09 2.09 0 0 0-2.61-2l-3.32.31.46 4.42zm5.73-7.8l10.97-1.05.28 2.75-7.68.74.09.88 7.2-.68.22 2.64-7.2.68.12.9 7.65-.73.28 2.77-11 1.05-.93-9.95zm21.29 8.06l-2.72.25-2.87-4.14.43 4.37-3.32.31-.93-9.95 3.94-.37 3.74 5.22 2.69-5.84 3.94-.37.97 9.95-3.32.31-.43-4.39-2.12 4.65zm14.68-11.4l3.91-.37-4.14 7.48.26 2.92-3.29.32-.28-2.92-5.47-6.58 3.91-.37 2.86 3.2 2.24-3.68z"/><path d="M19.45 22.96l15.39 7.71v26.28l-15.39 7.74V22.96z" fill-rule="evenodd"/></g></svg>