<svg xmlns="http://www.w3.org/2000/svg" viewBox="0 0 137.93 80.99" xmlns:v="https://vecta.io/nano"><path d="M109.84 6.35A21.18 21.18 0 0 1 118 8a21.72 21.72 0 0 1 7 4.67 21.42 21.42 0 0 1-15.17 36.57 20.82 20.82 0 0 1-7.42-1.33.83.83 0 0 1 .08-.12 1.81 1.81 0 0 0 .09-.17l.17-.34a1.62 1.62 0 0 0 .17-.36l.11-.23h-3.31a17.93 17.93 0 0 1-2.46-1.56h2.41l3-3.49h-4.82l-2 2.38L97 39.91h6.43c.09 0 .29-.14.51-.42a6.71 6.71 0 0 0 .77-1l.71-1.16c.23-.37.4-.71.51-1h-5.47l5.3-7.29-12.1-3.94a6.83 6.83 0 0 0-.12.77 18.37 18.37 0 0 0-.11 1.84A16.19 16.19 0 0 0 94.71 34a14.19 14.19 0 0 0 1.21 2.36h-1.81l-1.3 4.39-1.45-2.15a4 4 0 0 0 .28-.37l1.22-1.87h-2.63l-.17-.36a21.15 21.15 0 0 1 0-16.38 20.61 20.61 0 0 1 4.65-6.95 21.19 21.19 0 0 1 15.13-6.29zm2.53 18l12.1-3.94a13.2 13.2 0 0 0-1-1.78 17.37 17.37 0 0 0-2-2.41 16.67 16.67 0 0 0-4.65-3.26 15.32 15.32 0 0 0-4.42-1.34zm13.66.85l-12.11 3.94 7.49 10.29h0A15.77 15.77 0 0 0 125 34a16.37 16.37 0 0 0 1.25-6.26 18.34 18.34 0 0 0-.12-1.84 6.8 6.8 0 0 0-.13-.73zm-8.68 17.21l-7.51-10.32-7.48 10.32a16.86 16.86 0 0 0 11.85 1.22 16.76 16.76 0 0 0 3.14-1.25zm-22.11-22l12.08 3.94V11.59a15.32 15.32 0 0 0-4.39 1.34 16.52 16.52 0 0 0-4.65 3.26 17 17 0 0 0-2 2.41c-.38.56-.72 1.16-1.04 1.78zM58.79 0a28.37 28.37 0 0 1 10.63 2.1 27.84 27.84 0 0 1 15.79 34.3h-1a3.33 3.33 0 0 0-2.07.71 6.27 6.27 0 0 0-1.73 1.75 8.79 8.79 0 0 0-1.19 2.44 8.12 8.12 0 0 0-.43 2.55 7.54 7.54 0 0 0 .43 2.72l-.83.85-.7.68-1-8a21.75 21.75 0 0 0 3.83-12.33c0-.82-.06-1.64-.14-2.44l-.2-1.36-16.54 5.4 6.63 9.1L66.84 44l-2.13-2.92 1.37-4.65h-4.74l-2.55-3.52L55.11 38l-.23-1.56h-5l-4 13.77h4l.66-2.26a22.66 22.66 0 0 0 2.52.87h0l.2 1.39h1.44l.68-.9a19.93 19.93 0 0 0 2.92.28l-.2.62h4l.26-.9 1.33-.31-.59.91V50v.17h8.79a1.92 1.92 0 0 0 .45-.48l.65-.91c.22-.32.4-.65.57-.93s.26-.51.28-.6l.46 2.92h1a27.46 27.46 0 0 1-5.81 3.29A27.807 27.807 0 0 1 48.16 2.1 28.25 28.25 0 0 1 58.79 0zm3 23.64l16.58-5.38a22.73 22.73 0 0 0-1.56-2.67 22.21 22.21 0 0 0-2.64-3.2A21.77 21.77 0 0 0 68 8.05a20.65 20.65 0 0 0-6.2-1.81zm10.72 17.92l.82 1.13.48 4h-4.19v-.26zm-28.83 1.9l10.26-14.09L37.36 24l-.2 1.36-.14 2.44a22.09 22.09 0 0 0 1.64 8.33 21.82 21.82 0 0 0 4.74 7.06zm-4.48-25.2l16.59 5.38V6.24a20.71 20.71 0 0 0-6.21 1.81 21.77 21.77 0 0 0-6.18 4.34 22.21 22.21 0 0 0-2.64 3.2 24.22 24.22 0 0 0-1.56 2.67z" fill="#fff"/><g fill-rule="evenodd"><path d="M19.45 22.93l18.48 9.3v-5.47h75v34.1h-75v-5.47l-18.48 9.3zm42.6 27.24l4-13.77H61l-5.1 6.91-1-6.91h-5l-4 13.77h4l2.24-7.74 1.14 7.74h1.44l5.64-7.74-2.24 7.74zm15.93 0L76.59 39a5.78 5.78 0 0 0-.17-.76 6 6 0 0 0-.2-.88 2.92 2.92 0 0 0-.31-.71c-.11-.17-.22-.28-.37-.28h-3.48a.62.62 0 0 0-.37.2 3.9 3.9 0 0 0-.46.45 3.27 3.27 0 0 0-.39.51 1.24 1.24 0 0 0-.23.4l-7.51 12V50v.17h8.79a1.92 1.92 0 0 0 .45-.48l.65-.91c.22-.32.4-.65.57-.93s.26-.51.28-.6l.46 2.92zm-8.36-3.74l3.49-5.84.7 6.1h-4.19zm21.8-4.82l-2.61 8.56h-3.12a10.39 10.39 0 0 1-2.49-.28 6 6 0 0 1-2.21-1A5.45 5.45 0 0 1 79.43 47a7.14 7.14 0 0 1-.6-3.12 8.12 8.12 0 0 1 .43-2.55 8.79 8.79 0 0 1 1.19-2.44 6.27 6.27 0 0 1 1.73-1.75 3.33 3.33 0 0 1 2.07-.71h8.61l-1.22 1.87a12.2 12.2 0 0 1-1.36 1.64h-5.41a1 1 0 0 0-.62.23 2.56 2.56 0 0 0-.57.57 6.54 6.54 0 0 0-.48.82 6.78 6.78 0 0 0-.34.9c0 .2-.09.4-.12.6a2.9 2.9 0 0 0 0 .48 2.81 2.81 0 0 0 .2 1.05 4.48 4.48 0 0 0 .53 1 3.21 3.21 0 0 0 .68.77 1.22 1.22 0 0 0 .77.31h1.25L86.6 45h-2.35 0l.25-.51.57-1c.23-.4.45-.71.71-1a4.57 4.57 0 0 1 .65-.82zm2.69-5.21l-4 13.77h10.48s.12-.08.26-.25a6.38 6.38 0 0 0 .54-.63c.23-.25.42-.53.65-.79a5 5 0 0 0 .51-.74 1.81 1.81 0 0 0 .09-.17l.17-.34a1.62 1.62 0 0 0 .17-.36l.11-.23h-8l.46-1.56h4.14l3-3.49h-4.84l-2 2.38L97 39.91h6.43c.09 0 .29-.14.51-.42a6.71 6.71 0 0 0 .77-1l.71-1.16c.23-.37.4-.71.51-1z" fill="#1a1a1a"/><path d="M1.42 63c.37.62.11.42.76.7l-1.05.46c.34.62.12 0 .51.76l-1.13.34.57.94c0 .34-1.56.06.56.57a1.94 1.94 0 0 0-.45.14c-.37.22-.17.11-.42.34 1.41.2.59-.12 1.24.39l-1.1.26.45.31c.2.26.57.14-1.22.77.46.76.06.59.46 1.07s.7.4 1 .83l-1.4.47-.2.08c.43.63.37.48 1.25.71-.48.46-.43.23-.71.8 1.3 0 .71.17 1.64.68-.22.65-.25.08-.48.73s.45 1.73.3 2.65l.94.45a.28.28 0 0 1 .14.06l-1.28.39c.94.37.54.09 1.11.68-1 .23-1.16.32-1.33 1.56 1 .26.71.17 1.22.83 3.37-.77 10.8-1 14.91-1.51l81.78-8c8.67-1 17.46-1.7 26.13-2.61 1.5-.14 10.86-.68 11.51-1.39 0 0-.2.06.17-.17a4.14 4.14 0 0 1 .43-.2l.19-.48a.26.26 0 0 0-.17 0 .5.5 0 0 0-.17-.06c-.28-.06-.28 0-.65-.11l-.2-.63c0-.71-.11.09.23-.39l.14-.23c.46-1 .06-1.53-1.47-1.93.22-.91.22-.37-.06-1.1l1.13-.8-.62-.31c1.76-.37 1.22-.91-.2-1.08.57-.37.74-.39.94-.82-.68-.25-3.26-.23-2-1.05.25-.17.51-.17.79-.34 1.31-.76-.23-.05.37-.68s.23.37.54-.65l-1.76-.11 1.24-1.1c-.54-.28-.06-.09-.77-.26-.31-.08-.37 0-.85-.14.06-.79.68-.54 1.28-1.08-1.08-1.13-2.16.15-2.95-1l-.12-.19c-.17-.34-.25-.23.2-.57s1.56-.45-.05-.74l.82-.65c-.77-.31-.71-.11-1.45-.34l.94-.45c-1.82-.09-1-.17-.91-.49 0 0 .06 0 .06-.11-3.26-.51-10.38.74-14.12 1l-35.91 3.43-80.24 7.85v.09.08z" fill="#fff"/></g><g fill="#1a1a1a"><path d="M34.27 63.58l5.42 9.5-3.83.37-.86-1.62-4.9.48-.65 1.69-3.8.37 3.49-10.35zM31 69.34l2.56-.26L32 66.61zm13.67-6.81a14 14 0 0 1 3.24 0 6.18 6.18 0 0 1 2.21.71 3.74 3.74 0 0 1 1.27 1.3 4.74 4.74 0 0 1 .54 1.82l-3.4.31a.39.39 0 0 0-.06-.17 2 2 0 0 0-.28-.37 2.75 2.75 0 0 0-.62-.45 3.39 3.39 0 0 0-1-.28 5.77 5.77 0 0 0-1.62 0 7.91 7.91 0 0 0-1.39.25 2.89 2.89 0 0 0-.93.43 1.8 1.8 0 0 0-.49.54 1.5 1.5 0 0 0-.22.62 4.5 4.5 0 0 0 0 .65 2.76 2.76 0 0 0 .25.88 2.14 2.14 0 0 0 .57.65 3.2 3.2 0 0 0 1.05.4 7.26 7.26 0 0 0 1.62 0 12.3 12.3 0 0 0 1.59-.31 4 4 0 0 0 1-.46 2.34 2.34 0 0 0 .48-.45.65.65 0 0 0 .17-.37v-.14l3.35-.31a4 4 0 0 1 0 1.3 3.22 3.22 0 0 1-.54 1.22 3.44 3.44 0 0 1-1.14 1 6.24 6.24 0 0 1-1.87.79 16.29 16.29 0 0 1-2.75.49 16 16 0 0 1-3.26 0 5.19 5.19 0 0 1-2.15-.71 3.63 3.63 0 0 1-1.29-1.4 6.89 6.89 0 0 1-.34-4.62 3.48 3.48 0 0 1 1.14-1.7 5.79 5.79 0 0 1 2-1.08 13.42 13.42 0 0 1 2.87-.54zm15.82-1.36l5.42 9.5-3.83.33-.91-1.62-4.9.48-.6 1.73-3.8.37 3.49-10.35zm-3.32 5.76l2.56-.26-1.53-2.47z"/><path d="M72.77 70.07l-6.86.65L65 60.8l6.8-.65a13.32 13.32 0 0 1 1.73-.06 6.37 6.37 0 0 1 1.56.29 4.2 4.2 0 0 1 1.36.71 4.7 4.7 0 0 1 1 1.36 7.58 7.58 0 0 1 .51 2.12 5.3 5.3 0 0 1-.15 2 4 4 0 0 1-.76 1.5 5.44 5.44 0 0 1-1.22 1 6.27 6.27 0 0 1-1.45.62 9.05 9.05 0 0 1-1.61.38zm-.49-2.69a3.12 3.12 0 0 0 1.31-.38 1.89 1.89 0 0 0 .71-.87 2.75 2.75 0 0 0 .17-1.17 2.41 2.41 0 0 0-.74-1.58 2.53 2.53 0 0 0-1.87-.46l-3.32.34.46 4.43zm5.73-7.8l10.97-1.05.28 2.75-7.68.74.09.88 7.2-.68.22 2.64-7.2.68.12.9 7.65-.73.28 2.75-11 1.05-.93-9.93zm21.29 8.03l-2.72.28-2.87-4.14.43 4.37-3.32.31-.93-9.95 3.94-.37 3.74 5.19 2.69-5.81 3.94-.37.97 9.95-3.32.31-.43-4.39-2.12 4.62zm14.68-11.37l3.91-.37-4.14 7.48.26 2.92-3.29.32-.28-2.92-5.47-6.58 3.91-.37 2.86 3.18 2.24-3.66z"/><path d="M19.45 22.93l15.39 7.74v26.28l-15.39 7.74V22.93z" fill-rule="evenodd"/></g></svg>