<svg xmlns="http://www.w3.org/2000/svg" viewBox="0 0 371.36 99.12"><defs><style>.cls-1{font-size:16.94px;font-family:Rubik-Medium,Rubik;font-weight:500}.cls-1,.cls-6,.cls-8{fill:#fff}.cls-2{letter-spacing:-.01em}.cls-3{letter-spacing:-.02em}.cls-4{letter-spacing:0}.cls-5{letter-spacing:-.01em}.cls-6{font-size:66.28px;font-family:Airstrike}.cls-7{letter-spacing:-.1em}</style></defs><g id="Layer_2" data-name="Layer 2"><g id="Layer_3" data-name="Layer 3"><g id="White_Logo_Side"><text class="cls-1" transform="translate(118.35 74.86)">Multimedia and Game <tspan x="178.91" y="0" class="cls-2">E</tspan><tspan x="189.26" y="0" class="cls-3">v</tspan><tspan x="198.66" y="0" class="cls-4">e</tspan><tspan x="208.43" y="0" class="cls-5">n</tspan><tspan x="218.9" y="0">t 7</tspan></text><text class="cls-6" transform="translate(118.35 56.82)">M<tspan x="55.41" y="0" class="cls-7">A</tspan><tspan x="98.56" y="0">GE 7</tspan></text><path d="M94.39,62.68c.72-10.49,1-26.61-2.67-35.91a2.61,2.61,0,0,1,.3-.2,3.73,3.73,0,0,1,3.62-.17C96.49,28,101,37.8,94.39,62.68Z" class="cls-8"/><path d="M73.72,19.08h0c-3.79,6.35-7.59,17.2-7,34.79v0c-1.45,4.62-3.17,9.65-5.2,15.13.09-11.53-.22-36.21-4-49.57h0C61.1,11.76,65.22,6,70,3.83,71,4.69,74,8.22,73.72,19.08Z" class="cls-8"/><path d="M70.53,1.79l-.07,0,.14.06Z"/><path d="M25.32,3.08l-.1,0,.19,0Z"/><path d="M30.45,14.52h0a105,105,0,0,0-6.3,41.11h0c0,.16-.08.33-.13.49,0-11.77-.73-33.08-5.67-39.93A52.28,52.28,0,0,1,25.8,5.11a3.7,3.7,0,0,1,2.1,1.4C29,7.8,30,10.17,30.45,14.52Z" class="cls-8"/><path d="M21.48,7.18c-.72,1-1.54,2.15-2.4,3.53s-1.81,3-2.76,4.8l-.45.88C10.1,27.75,3.68,47.17,3.87,77.22.44,66.66-4.85,42,9.39,17.09A63,63,0,0,1,19.8,8.24C20.35,7.87,20.91,7.52,21.48,7.18Z" class="cls-8"/><path d="M67.46,3,67.34,3a16,16,0,0,0-1.62,1.19h0c-3.35,2.79-6.35,7.15-9,12.53h0c-.21.4-.4.8-.6,1.22s-.41.88-.61,1.33h0C44.2,44.15,39,86.71,37.72,99.12A107.62,107.62,0,0,1,26.21,55.69c-.06-1.18-.09-2.35-.1-3.51,0-1.44,0-2.85,0-4.23,0,0,0,0,0,0a105.1,105.1,0,0,1,4.43-27.24h0c.33-1.07.65-2.1,1-3.08v0c.3-.88.6-1.73.9-2.54h0A74.36,74.36,0,0,1,37.79,3.31C43.28-2.2,57.51.42,65,2.29h0C66,2.53,66.77,2.76,67.46,3Z" class="cls-8"/><path d="M94.24,24a5.64,5.64,0,0,0-2.25.37h0a5.55,5.55,0,0,0-1,.45l-.14.09a7.12,7.12,0,0,0-.82.57,9.78,9.78,0,0,0-.77.69c-9.45,9.38-13.72,47.53-15,62.15a155.76,155.76,0,0,1-5.44-34.41v0c0-1.09,0-2.16,0-3.2,0-1.35,0-2.65.07-3.92,0,0,0,0,0,0,.4-9.77,2.29-17,4.51-22.14h0c.42-1,.86-1.91,1.3-2.76.36-.69.71-1.32,1.07-1.92h0A23.21,23.21,0,0,1,81.58,13c3.59-1,8.35,4.55,11.45,9.14.42.63.82,1.24,1.17,1.81h0A.21.21,0,0,1,94.24,24Z" class="cls-8"/></g></g></g></svg>