<svg xmlns="http://www.w3.org/2000/svg" viewBox="0 0 92.95 98.4" fill-rule="evenodd" xmlns:v="https://vecta.io/nano"><path d="M19.59 98.4l43.08-.51s1.68-10.66 8-14.26c.25-.11.48-.26.74-.4h-4.68l-3.74-4-3.77 4h-6.44l6.52-7.17-6.46-7.17h6.43l3.74 4 3.77-4h6.41l-6.52 7.17 5.93 6.58c3.65-1.73 7-2.53 8.64-3.66l-6.92-10.09h5.62l.82 1.11a7.46 7.46 0 0 1 .54-2.24c1.13-3-.26-5.5-1.82-7.83s6.75-8.19 7.12-9.41-12.25-11.91-12.87-14.74 3-9.1 3.66-11.79 2.8-7.17-1.56-10.46S61.54.4 40.88 0 7.85 17.89 5.27 24.89s-2.1 25.4 2.7 32a113.59 113.59 0 0 1 9.41 17v-4.9h11.33l1 .14a7.35 7.35 0 0 1 1.21.31 7.25 7.25 0 0 1 1.17.6 4.1 4.1 0 0 1 1 .93 5 5 0 0 1 .71 1.39 6.57 6.57 0 0 1 .25 1.9A5.09 5.09 0 0 1 31.46 79l2.95 4.22h-5.5l-2.46-3.37h-4.31v3.37h-1.05c.71 2.41 1 4.34.68 5.42a67.86 67.86 0 0 0-2.18 9.76zm61.79-19.53a.41.41 0 0 1 .12-.09.41.41 0 0 0-.12.09zM27.5 75.66c1.16 0 1.75-.45 1.75-1.36s-.62-1.22-1.84-1.22h-5.27v2.58zm17-7a25.52 25.52 0 0 1 3.46.2 11.82 11.82 0 0 1 2.75.74 5.49 5.49 0 0 1 3.38 3.4 9.18 9.18 0 0 1 .42 3 8.77 8.77 0 0 1-.4 2.92 5.15 5.15 0 0 1-3.11 3.4 12.51 12.51 0 0 1-2.75.77 26.91 26.91 0 0 1-3.6.2c-3.37 0-5.84-.6-7.37-1.84S35 78.3 35 75.72a6.16 6.16 0 0 1 2.35-5.33c1.57-1.16 3.98-1.73 7.18-1.73zm.2 10.89a5.73 5.73 0 0 0 3.35-.88A3.18 3.18 0 0 0 49.27 76 3 3 0 0 0 48 73.34a5.48 5.48 0 0 0-3.35-.91 6.87 6.87 0 0 0-2 .23 3.39 3.39 0 0 0-1.39.71 3.06 3.06 0 0 0-.79 1.1 4.22 4.22 0 0 0-.26 1.5 3.21 3.21 0 0 0 1.11 2.58 5 5 0 0 0 3.41 1z" fill="#ff4655"/><path d="M35.6 60.33c-.88.68-3.68-.14-4.16-1.42s1.47-2.38-2.16-3.68-6.66-3.12-6.77-4.91a27.88 27.88 0 0 0-.4-3.17s-5.78-1.56-6-7.69.88-6.34.88-6.34-1.29-6.84 1.78-10.52 5.81-3.94 5.81-3.94.73-3.8 6.4-5.19 8.68.65 8.68.65A11.23 11.23 0 0 1 47.2 12c4.36.42 5.16 1.67 5.16 1.67a9.12 9.12 0 0 1 4.7 1.33 31.49 31.49 0 0 1 6.18 4.85 1.3 1.3 0 0 1 .31 1.45 8.91 8.91 0 0 1 3.26 3.37H54.17l-6.66 6.63H32.94a3.78 3.78 0 0 0-1.16-1.9 3.6 3.6 0 0 0-2.38-.9 3.5 3.5 0 0 0-2.58 1.07h0a3.635 3.635 0 1 0 5.18 5.1h0a3.73 3.73 0 0 0 1-1.75h15.19l6.66-6.66h12.67a9.58 9.58 0 0 1 .37 2.09 11.37 11.37 0 0 1-.68 4.74H53l-3.89 3.85h-8.1a2.61 2.61 0 0 0-.71-1A2.46 2.46 0 0 0 37 36a2.42 2.42 0 0 0-.7 1.73 2.47 2.47 0 0 0 .7 1.76 2.5 2.5 0 0 0 1.76.71 2.41 2.41 0 0 0 1.73-.71 2.71 2.71 0 0 0 .6-.93h8.78l3.89-3.89h12.63a4.13 4.13 0 0 1-.68.91s-.17 4.42-3.55 6.32S53 43.29 53 43.29a38.23 38.23 0 0 1-4.48 4.76 7.47 7.47 0 0 1-4 1.36s-2.1 1.88-2.89 2.7a14.26 14.26 0 0 0-1.39 1.64s-1.13 2.35-1.87 3.63a15.07 15.07 0 0 1-2.77 2.95zm-4.9-29.74a1.89 1.89 0 0 0-1.3-.48 2 2 0 0 0-1.42.57h0a2 2 0 0 0-.6 1.41 2 2 0 0 0 .6 1.42 1.92 1.92 0 0 0 1.42.6 2 2 0 0 0 1.41-.6 2.07 2.07 0 0 0 .57-1.42v-.25a2.12 2.12 0 0 0-.68-1.25zm8.56 6.55a.91.91 0 0 0-.54-.2.87.87 0 0 0-.59.26.78.78 0 0 0-.26.56.84.84 0 0 0 .85.83.8.8 0 0 0 .57-.23.89.89 0 0 0 .25-.6v-.08h0a.75.75 0 0 0-.28-.54zM0 68.89h10.86l1 .14a7.68 7.68 0 0 1 1.22.34 6.36 6.36 0 0 1 1.16.62 4.1 4.1 0 0 1 1 1A5.09 5.09 0 0 1 16 72.4a7.23 7.23 0 0 1 .25 2 7.53 7.53 0 0 1-.25 2 5.18 5.18 0 0 1-.65 1.5 5 5 0 0 1-1 1 4.87 4.87 0 0 1-1.1.71 9.49 9.49 0 0 1-1.16.43 10 10 0 0 1-1.05.19 7.75 7.75 0 0 1-.8.06H4.76v2.89H0zm9.92 7.2c1.28 0 1.9-.51 1.9-1.53a1.84 1.84 0 0 0-.08-.6 1 1 0 0 0-.29-.39 1.81 1.81 0 0 0-.37-.26 1.32 1.32 0 0 0-.45-.14c-.17 0-.31 0-.43-.06s-.22 0-.34 0h-5.1v3zm11.17 7.14h-3.71v-9.44a74.77 74.77 0 0 1 3.71 9.44zm51.51-.59l.53.59h-1.75c.39-.23.79-.42 1.22-.59zm14.74-13.75H93L86 79v4.19h-4.73V79v-.06a1.82 1.82 0 0 0 .82-2.27A15.52 15.52 0 0 1 80.76 70l2.86 3.85z" fill="#1a1a1a"/></svg>